Halant_0.ufo
<glyph name="numbersign" format="1">
  <advance width="773"/>
  <unicode hex="0023"/>
  <outline>
    <contour>
      <point x="724" y="444" type="line"/>
      <point x="724" y="487" type="line"/>
      <point x="127" y="487" type="line"/>
      <point x="127" y="444" type="line"/>
    </contour>
    <contour>
      <point x="665" y="201" type="line"/>
      <point x="665" y="244" type="line"/>
      <point x="68" y="244" type="line"/>
      <point x="68" y="201" type="line"/>
    </contour>
    <contour>
      <point x="223" y="0" type="line"/>
      <point x="354" y="686" type="line"/>
      <point x="311" y="686" type="line"/>
      <point x="179" y="0" type="line"/>
    </contour>
    <contour>
      <point x="468" y="0" type="line"/>
      <point x="599" y="686" type="line"/>
      <point x="556" y="686" type="line"/>
      <point x="424" y="0" type="line"/>
    </contour>
  </outline>
</glyph>
<glyph name="ampersand" format="1">
  <advance width="640"/>
  <unicode hex="0026"/>
  <outline>
    <contour>
      <point x="160" y="484" type="curve" smooth="yes"/>
      <point x="160" y="443"/>
      <point x="178" y="411"/>
      <point x="216" y="365" type="curve" smooth="yes"/>
      <point x="517" y="0" type="line"/>
      <point x="621" y="0" type="line"/>
      <point x="623" y="6"/>
      <point x="624" y="15"/>
      <point x="624" y="23" type="curve"/>
      <point x="585" y="25"/>
      <point x="555" y="33"/>
      <point x="520" y="76" type="curve" smooth="yes"/>
      <point x="254" y="396" type="line" smooth="yes"/>
      <point x="222" y="435"/>
      <point x="213" y="456"/>
      <point x="213" y="490" type="curve" smooth="yes"/>
      <point x="213" y="548"/>
      <point x="258" y="587"/>
      <point x="313" y="587" type="curve" smooth="yes"/>
      <point x="368" y="587"/>
      <point x="413" y="548"/>
      <point x="413" y="490" type="curve" smooth="yes"/>
      <point x="413" y="426"/>
      <point x="369" y="389"/>
      <point x="275" y="354" type="curve"/>
      <point x="297" y="336" type="line"/>
      <point x="390" y="368"/>
      <point x="466" y="404"/>
      <point x="466" y="490" type="curve" smooth="yes"/>
      <point x="466" y="564"/>
      <point x="388" y="613"/>
      <point x="313" y="613" type="curve" smooth="yes"/>
      <point x="238" y="613"/>
      <point x="160" y="564"/>
    </contour>
    <contour>
      <point x="53" y="140" type="curve" smooth="yes"/>
      <point x="53" y="45"/>
      <point x="124" y="-13"/>
      <point x="209" y="-13" type="curve" smooth="yes"/>
      <point x="294" y="-13"/>
      <point x="354" y="30"/>
      <point x="439" y="128" type="curve"/>
      <point x="421" y="151" type="line"/>
      <point x="345" y="64"/>
      <point x="296" y="34"/>
      <point x="216" y="34" type="curve" smooth="yes"/>
      <point x="146" y="34"/>
      <point x="106" y="80"/>
      <point x="106" y="140" type="curve" smooth="yes"/>
      <point x="106" y="200"/>
      <point x="137" y="265"/>
      <point x="275" y="326" type="curve"/>
      <point x="255" y="343" type="line"/>
      <point x="117" y="296"/>
      <point x="53" y="228"/>
    </contour>
    <contour>
      <point x="466" y="282" type="curve"/>
      <point x="494" y="280"/>
      <point x="516" y="275"/>
      <point x="545" y="262" type="curve"/>
      <point x="537" y="284" type="line"/>
      <point x="428" y="159" type="line"/>
      <point x="449" y="139" type="line"/>
      <point x="533" y="236" type="line" smooth="yes"/>
      <point x="555" y="261"/>
      <point x="582" y="277"/>
      <point x="623" y="282" type="curve"/>
      <point x="624" y="288"/>
      <point x="625" y="298"/>
      <point x="624" y="305" type="curve"/>
      <point x="469" y="305" type="line"/>
      <point x="467" y="299"/>
      <point x="466" y="290"/>
    </contour>
  </outline>
</glyph>
<glyph name="quotesingle" format="1">
  <advance width="163"/>
  <unicode hex="0027"/>
  <outline>
    <contour>
      <point x="55" y="746" type="line"/>
      <point x="72" y="557" type="line"/>
      <point x="91" y="557" type="line"/>
      <point x="108" y="746" type="line"/>
    </contour>
  </outline>
</glyph>
<glyph name="parenleft" format="1">
  <advance width="382"/>
  <unicode hex="0028"/>
  <outline>
    <contour>
      <point x="352" y="775" type="line"/>
      <point x="212" y="646"/>
      <point x="169" y="494"/>
      <point x="169" y="339" type="curve" smooth="yes"/>
      <point x="169" y="185"/>
      <point x="212" y="15"/>
      <point x="352" y="-113" type="curve"/>
      <point x="324" y="-136" type="line"/>
      <point x="196" y="-19"/>
      <point x="120" y="142"/>
      <point x="120" y="339" type="curve" smooth="yes"/>
      <point x="120" y="537"/>
      <point x="196" y="680"/>
      <point x="324" y="797" type="curve"/>
    </contour>
  </outline>
</glyph>
<glyph name="parenright" format="1">
  <advance width="382"/>
  <unicode hex="0029"/>
  <outline>
    <contour>
      <point x="262" y="339" type="curve" smooth="yes"/>
      <point x="262" y="142"/>
      <point x="186" y="-19"/>
      <point x="58" y="-136" type="curve"/>
      <point x="30" y="-113" type="line"/>
      <point x="170" y="15"/>
      <point x="213" y="185"/>
      <point x="213" y="339" type="curve" smooth="yes"/>
      <point x="213" y="494"/>
      <point x="170" y="646"/>
      <point x="30" y="775" type="curve"/>
      <point x="58" y="797" type="line"/>
      <point x="186" y="680"/>
      <point x="262" y="537"/>
    </contour>
  </outline>
</glyph>
<glyph name="asterisk" format="1">
  <advance width="463"/>
  <unicode hex="002A"/>
  <outline>
    <contour>
      <point x="216" y="547" type="line"/>
      <point x="320" y="588" type="line"/>
      <point x="328" y="581"/>
      <point x="336" y="554"/>
      <point x="335" y="539" type="curve"/>
      <point x="223" y="519" type="line"/>
      <point x="310" y="431" type="line"/>
      <point x="306" y="421"/>
      <point x="291" y="404"/>
      <point x="272" y="396" type="curve"/>
      <point x="200" y="501" type="line"/>
      <point x="137" y="393" type="line"/>
      <point x="126" y="395"/>
      <point x="106" y="406"/>
      <point x="94" y="422" type="curve"/>
      <point x="177" y="518" type="line"/>
      <point x="60" y="540" type="line"/>
      <point x="60" y="556"/>
      <point x="67" y="581"/>
      <point x="76" y="588" type="curve"/>
      <point x="186" y="548" type="line"/>
      <point x="170" y="671" type="line"/>
      <point x="179" y="676"/>
      <point x="202" y="681"/>
      <point x="222" y="676" type="curve"/>
    </contour>
  </outline>
</glyph>
<glyph name="hyphen" format="1">
  <advance width="388"/>
  <unicode hex="002D"/>
  <outline>
    <contour>
      <point x="343" y="287" type="line"/>
      <point x="343" y="327" type="line"/>
      <point x="45" y="327" type="line"/>
      <point x="45" y="287" type="line"/>
    </contour>
  </outline>
</glyph>
<glyph name="zero" format="1">
  <advance width="491"/>
  <unicode hex="0030"/>
  <outline>
    <contour>
      <point x="316" y="601" type="move" name="top"/>
    </contour>
    <contour>
      <point x="441" y="300" type="curve" smooth="yes"/>
      <point x="441" y="120"/>
      <point x="380" y="-12"/>
      <point x="245" y="-12" type="curve" smooth="yes"/>
      <point x="110" y="-12"/>
      <point x="50" y="120"/>
      <point x="50" y="300" type="curve" smooth="yes"/>
      <point x="50" y="480"/>
      <point x="110" y="614"/>
      <point x="245" y="614" type="curve" smooth="yes"/>
      <point x="380" y="614"/>
      <point x="441" y="480"/>
    </contour>
    <contour>
      <point x="103" y="300" type="curve" smooth="yes"/>
      <point x="106" y="131"/>
      <point x="153" y="22"/>
      <point x="250" y="22" type="curve" smooth="yes"/>
      <point x="347" y="22"/>
      <point x="391" y="132"/>
      <point x="388" y="301" type="curve" smooth="yes"/>
      <point x="385" y="469"/>
      <point x="337" y="580"/>
      <point x="240" y="580" type="curve" smooth="yes"/>
      <point x="143" y="580"/>
      <point x="100" y="469"/>
    </contour>
  </outline>
</glyph>
<glyph name="one" format="1">
  <advance width="302"/>
  <unicode hex="0031"/>
  <outline>
    <contour>
      <point x="175" y="8" type="line"/>
      <point x="147" y="56" type="line"/>
      <point x="185" y="35"/>
      <point x="212" y="23"/>
      <point x="262" y="21" type="curve"/>
      <point x="262" y="14"/>
      <point x="261" y="6"/>
      <point x="259" y="0" type="curve"/>
      <point x="41" y="0" type="line"/>
      <point x="40" y="7"/>
      <point x="41" y="16"/>
      <point x="44" y="21" type="curve"/>
      <point x="106" y="27"/>
      <point x="127" y="36"/>
      <point x="127" y="66" type="curve" smooth="yes"/>
      <point x="127" y="560" type="line"/>
      <point x="148" y="548" type="line"/>
      <point x="42" y="535" type="line"/>
      <point x="42" y="539"/>
      <point x="42" y="545"/>
      <point x="43" y="548" type="curve"/>
      <point x="83" y="570"/>
      <point x="119" y="591"/>
      <point x="163" y="611" type="curve"/>
      <point x="175" y="606" type="line"/>
    </contour>
    <contour>
      <point x="232" y="8" type="move" name="ogonek"/>
    </contour>
    <contour>
      <point x="151" y="601" type="move" name="top"/>
    </contour>
  </outline>
</glyph>
<glyph name="two" format="1">
  <advance width="436"/>
  <unicode hex="0032"/>
  <outline>
    <contour>
      <point x="66" y="570" type="curve"/>
      <point x="62" y="540"/>
      <point x="61" y="503"/>
      <point x="61" y="472" type="curve"/>
      <point x="66" y="470"/>
      <point x="72" y="470"/>
      <point x="77" y="470" type="curve"/>
      <point x="96" y="536"/>
      <point x="144" y="564"/>
      <point x="201" y="564" type="curve" smooth="yes"/>
      <point x="262" y="564"/>
      <point x="311" y="519"/>
      <point x="311" y="450" type="curve" smooth="yes"/>
      <point x="311" y="383"/>
      <point x="289" y="325"/>
      <point x="30" y="38" type="curve"/>
      <point x="30" y="26"/>
      <point x="33" y="12"/>
      <point x="37" y="0" type="curve"/>
      <point x="365" y="0" type="line"/>
      <point x="372" y="43"/>
      <point x="376" y="100"/>
      <point x="376" y="141" type="curve"/>
      <point x="370" y="144"/>
      <point x="364" y="145"/>
      <point x="359" y="145" type="curve"/>
      <point x="348" y="72"/>
      <point x="326" y="45"/>
      <point x="254" y="45" type="curve" smooth="yes"/>
      <point x="59" y="45" type="line"/>
      <point x="61" y="28" type="line"/>
      <point x="310" y="300"/>
      <point x="368" y="347"/>
      <point x="368" y="452" type="curve" smooth="yes"/>
      <point x="368" y="544"/>
      <point x="297" y="613"/>
      <point x="209" y="613" type="curve" smooth="yes"/>
      <point x="155" y="613"/>
      <point x="107" y="595"/>
    </contour>
  </outline>
</glyph>
<glyph name="four" format="1">
  <advance width="464"/>
  <unicode hex="0034"/>
  <outline>
    <contour>
      <point x="310" y="540" type="line"/>
      <point x="65" y="192" type="line"/>
      <point x="59" y="206" type="line"/>
      <point x="291" y="206" type="line"/>
      <point x="291" y="541" type="line"/>
    </contour>
    <contour>
      <point x="340" y="206" type="line"/>
      <point x="429" y="206" type="line"/>
      <point x="433" y="194"/>
      <point x="435" y="187"/>
      <point x="433" y="171" type="curve"/>
      <point x="340" y="171" type="line"/>
      <point x="340" y="18" type="line"/>
      <point x="312" y="51" type="line"/>
      <point x="350" y="30"/>
      <point x="373" y="23"/>
      <point x="407" y="21" type="curve"/>
      <point x="407" y="14"/>
      <point x="406" y="6"/>
      <point x="404" y="0" type="curve"/>
      <point x="226" y="0" type="line"/>
      <point x="225" y="7"/>
      <point x="226" y="16"/>
      <point x="228" y="21" type="curve"/>
      <point x="276" y="27"/>
      <point x="291" y="36"/>
      <point x="291" y="66" type="curve"/>
      <point x="291" y="171" type="line"/>
      <point x="49" y="171" type="line"/>
      <point x="41" y="179"/>
      <point x="34" y="190"/>
      <point x="30" y="203" type="curve"/>
      <point x="312" y="610" type="line"/>
      <point x="340" y="610" type="line"/>
    </contour>
  </outline>
</glyph>
<glyph name="nine" format="1">
  <advance width="460"/>
  <unicode hex="0039"/>
  <outline>
    <contour>
      <point x="348" y="316" type="curve"/>
      <point x="355" y="357" type="line"/>
      <point x="301" y="280"/>
      <point x="250" y="269"/>
      <point x="201" y="269" type="curve" smooth="yes"/>
      <point x="131" y="269"/>
      <point x="101" y="338"/>
      <point x="101" y="408" type="curve" smooth="yes"/>
      <point x="101" y="520"/>
      <point x="155" y="575"/>
      <point x="234" y="575" type="curve" smooth="yes"/>
      <point x="305" y="575"/>
      <point x="346" y="492"/>
      <point x="346" y="394" type="curve" smooth="yes"/>
      <point x="346" y="242"/>
      <point x="274" y="102"/>
      <point x="114" y="17" type="curve"/>
      <point x="115" y="10"/>
      <point x="118" y="3"/>
      <point x="130" y="-6" type="curve"/>
      <point x="329" y="87"/>
      <point x="400" y="242"/>
      <point x="400" y="382" type="curve" smooth="yes"/>
      <point x="400" y="529"/>
      <point x="334" y="613"/>
      <point x="233" y="613" type="curve" smooth="yes"/>
      <point x="149" y="613"/>
      <point x="50" y="528"/>
      <point x="50" y="406" type="curve" smooth="yes"/>
      <point x="50" y="314"/>
      <point x="101" y="226"/>
      <point x="183" y="226" type="curve" smooth="yes"/>
      <point x="232" y="226"/>
      <point x="290" y="229"/>
    </contour>
  </outline>
</glyph>
<glyph name="colon" format="1">
  <advance width="250"/>
  <unicode hex="003A"/>
  <outline>
    <contour>
      <point x="164" y="110" type="curve" smooth="yes"/>
      <point x="164" y="88"/>
      <point x="146" y="72"/>
      <point x="124" y="72" type="curve" smooth="yes"/>
      <point x="102" y="72"/>
      <point x="86" y="88"/>
      <point x="86" y="110" type="curve" smooth="yes"/>
      <point x="86" y="132"/>
      <point x="102" y="149"/>
      <point x="124" y="149" type="curve" smooth="yes"/>
      <point x="146" y="149"/>
      <point x="164" y="132"/>
    </contour>
    <contour>
      <point x="164" y="454" type="curve" smooth="yes"/>
      <point x="164" y="432"/>
      <point x="146" y="416"/>
      <point x="124" y="416" type="curve" smooth="yes"/>
      <point x="102" y="416"/>
      <point x="86" y="432"/>
      <point x="86" y="454" type="curve" smooth="yes"/>
      <point x="86" y="476"/>
      <point x="102" y="494"/>
      <point x="124" y="494" type="curve" smooth="yes"/>
      <point x="146" y="494"/>
      <point x="164" y="476"/>
    </contour>
  </outline>
</glyph>
<glyph name="at" format="1">
  <advance width="868"/>
  <unicode hex="0040"/>
  <outline>
    <contour>
      <point x="817" y="267" type="curve" smooth="yes"/>
      <point x="808" y="95"/>
      <point x="671" y="-12"/>
      <point x="571" y="-12" type="curve" smooth="yes"/>
      <point x="526" y="-12"/>
      <point x="506" y="17"/>
      <point x="511" y="67" type="curve" smooth="yes"/>
      <point x="533" y="283" type="line" smooth="yes"/>
      <point x="539" y="340"/>
      <point x="521" y="379"/>
      <point x="464" y="379" type="curve" smooth="yes"/>
      <point x="392" y="379"/>
      <point x="324" y="310"/>
      <point x="305" y="189" type="curve" smooth="yes"/>
      <point x="287" y="75"/>
      <point x="330" y="24"/>
      <point x="380" y="24" type="curve" smooth="yes"/>
      <point x="435" y="24"/>
      <point x="491" y="75"/>
      <point x="523" y="163" type="curve"/>
      <point x="538" y="141" type="line"/>
      <point x="517" y="52"/>
      <point x="446" y="-12"/>
      <point x="373" y="-12" type="curve" smooth="yes"/>
      <point x="288" y="-12"/>
      <point x="232" y="66"/>
      <point x="252" y="187" type="curve" smooth="yes"/>
      <point x="273" y="313"/>
      <point x="366" y="412"/>
      <point x="472" y="412" type="curve" smooth="yes"/>
      <point x="554" y="412"/>
      <point x="594" y="358"/>
      <point x="586" y="283" type="curve" smooth="yes"/>
      <point x="562" y="59" type="line" smooth="yes"/>
      <point x="559" y="35"/>
      <point x="561" y="22"/>
      <point x="583" y="22" type="curve" smooth="yes"/>
      <point x="647" y="22"/>
      <point x="757" y="100"/>
      <point x="765" y="263" type="curve" smooth="yes"/>
      <point x="774" y="428"/>
      <point x="666" y="544"/>
      <point x="498" y="544" type="curve" smooth="yes"/>
      <point x="261" y="544"/>
      <point x="115" y="359"/>
      <point x="104" y="144" type="curve" smooth="yes"/>
      <point x="93" y="-59"/>
      <point x="208" y="-137"/>
      <point x="341" y="-137" type="curve" smooth="yes"/>
      <point x="406" y="-137"/>
      <point x="464" y="-129"/>
      <point x="529" y="-110" type="curve"/>
      <point x="533" y="-115"/>
      <point x="537" y="-122"/>
      <point x="536" y="-132" type="curve"/>
      <point x="472" y="-159"/>
      <point x="412" y="-175"/>
      <point x="331" y="-175" type="curve" smooth="yes"/>
      <point x="175" y="-175"/>
      <point x="40" y="-78"/>
      <point x="51" y="130" type="curve" smooth="yes"/>
      <point x="64" y="376"/>
      <point x="258" y="580"/>
      <point x="504" y="580" type="curve" smooth="yes"/>
      <point x="686" y="580"/>
      <point x="827" y="453"/>
    </contour>
  </outline>
</glyph>
<glyph name="A" format="1">
  <advance width="553"/>
  <unicode hex="0041"/>
  <outline>
    <contour>
      <point x="473" y="76" type="line"/>
      <point x="485" y="38"/>
      <point x="512" y="25"/>
      <point x="557" y="21" type="curve"/>
      <point x="556" y="14"/>
      <point x="555" y="6"/>
      <point x="552" y="0" type="curve"/>
      <point x="363" y="0" type="line"/>
      <point x="363" y="7"/>
      <point x="364" y="16"/>
      <point x="367" y="21" type="curve"/>
      <point x="403" y="27"/>
      <point x="433" y="34"/>
      <point x="454" y="58" type="curve"/>
      <point x="442" y="22" type="line"/>
      <point x="255" y="585" type="line"/>
      <point x="275" y="583" type="line"/>
      <point x="256" y="506" type="line"/>
      <point x="92" y="13" type="line"/>
      <point x="77" y="50" type="line"/>
      <point x="107" y="31"/>
      <point x="142" y="23"/>
      <point x="173" y="21" type="curve"/>
      <point x="173" y="14"/>
      <point x="171" y="6"/>
      <point x="169" y="0" type="curve"/>
      <point x="-4" y="0" type="line"/>
      <point x="-4" y="7"/>
      <point x="-2" y="16"/>
      <point x="0" y="21" type="curve"/>
      <point x="49" y="27"/>
      <point x="67" y="47"/>
      <point x="76" y="74" type="curve" smooth="yes"/>
      <point x="256" y="606" type="line"/>
      <point x="266" y="612"/>
      <point x="281" y="614"/>
      <point x="295" y="614" type="curve"/>
    </contour>
    <contour>
      <point x="387" y="201" type="line"/>
      <point x="155" y="201" type="line"/>
      <point x="155" y="228" type="line"/>
      <point x="387" y="228" type="line"/>
    </contour>
    <contour>
      <point x="552" y="0" type="move" name="ogonek"/>
    </contour>
    <contour>
      <point x="276" y="601" type="move" name="top"/>
    </contour>
  </outline>
</glyph>
<glyph name="C" format="1">
  <advance width="567"/>
  <unicode hex="0043"/>
  <outline>
    <contour>
      <point x="507" y="585" type="curve"/>
      <point x="507" y="555"/>
      <point x="501" y="507"/>
      <point x="493" y="476" type="curve"/>
      <point x="491" y="476"/>
      <point x="482" y="476"/>
      <point x="479" y="477" type="curve"/>
      <point x="479" y="545"/>
      <point x="424" y="578"/>
      <point x="362" y="578" type="curve" smooth="yes"/>
      <point x="210" y="578"/>
      <point x="113" y="466"/>
      <point x="113" y="295" type="curve" smooth="yes"/>
      <point x="113" y="131"/>
      <point x="215" y="28"/>
      <point x="342" y="28" type="curve" smooth="yes"/>
      <point x="404" y="28"/>
      <point x="453" y="43"/>
      <point x="509" y="79" type="curve"/>
      <point x="522" y="67" type="line"/>
      <point x="473" y="18"/>
      <point x="416" y="-12"/>
      <point x="334" y="-12" type="curve" smooth="yes"/>
      <point x="185" y="-12"/>
      <point x="56" y="105"/>
      <point x="56" y="295" type="curve" smooth="yes"/>
      <point x="56" y="482"/>
      <point x="193" y="614"/>
      <point x="361" y="614" type="curve" smooth="yes"/>
      <point x="416" y="614"/>
      <point x="470" y="601"/>
    </contour>
    <contour>
      <point x="365" y="599" type="move" name="top"/>
    </contour>
    <contour>
      <point x="318" y="0" type="move" name="bottom"/>
    </contour>
  </outline>
</glyph>
<glyph name="D" format="1">
  <advance width="558"/>
  <unicode hex="0044"/>
  <outline>
    <contour>
      <point x="237" y="601" type="line"/>
      <point x="416" y="601"/>
      <point x="538" y="494"/>
      <point x="538" y="302" type="curve" smooth="yes"/>
      <point x="538" y="108"/>
      <point x="417" y="0"/>
      <point x="238" y="0" type="curve" smooth="yes"/>
      <point x="33" y="0" type="line"/>
      <point x="32" y="7"/>
      <point x="33" y="16"/>
      <point x="35" y="21" type="curve"/>
      <point x="83" y="27"/>
      <point x="98" y="36"/>
      <point x="98" y="66" type="curve" smooth="yes"/>
      <point x="98" y="572" type="line"/>
      <point x="102" y="563" type="line"/>
      <point x="77" y="575"/>
      <point x="56" y="579"/>
      <point x="30" y="580" type="curve"/>
      <point x="30" y="587"/>
      <point x="31" y="597"/>
      <point x="32" y="601" type="curve"/>
    </contour>
    <contour>
      <point x="146" y="575" type="line"/>
      <point x="146" y="28" type="line"/>
      <point x="236" y="28" type="line" smooth="yes"/>
      <point x="398" y="28"/>
      <point x="481" y="140"/>
      <point x="481" y="302" type="curve" smooth="yes"/>
      <point x="481" y="461"/>
      <point x="398" y="575"/>
      <point x="236" y="575" type="curve" smooth="yes"/>
    </contour>
    <contour>
      <point x="275" y="599" type="move" name="top"/>
    </contour>
  </outline>
</glyph>
<glyph name="F" format="1">
  <advance width="466"/>
  <unicode hex="0046"/>
  <outline>
    <contour>
      <point x="337" y="269" type="line"/>
      <point x="306" y="269" type="line"/>
      <point x="125" y="273" type="line"/>
      <point x="125" y="301" type="line"/>
      <point x="306" y="307" type="line"/>
      <point x="337" y="307" type="line"/>
    </contour>
    <contour>
      <point x="100" y="580" type="line"/>
      <point x="105" y="562" type="line"/>
      <point x="81" y="574"/>
      <point x="59" y="579"/>
      <point x="31" y="580" type="curve"/>
      <point x="31" y="587"/>
      <point x="32" y="597"/>
      <point x="34" y="601" type="curve"/>
      <point x="426" y="601" type="line"/>
      <point x="428" y="561"/>
      <point x="427" y="520"/>
      <point x="422" y="482" type="curve"/>
      <point x="418" y="480"/>
      <point x="410" y="480"/>
      <point x="405" y="480" type="curve"/>
      <point x="399" y="548"/>
      <point x="382" y="575"/>
      <point x="315" y="575" type="curve" smooth="yes"/>
      <point x="138" y="575" type="line"/>
      <point x="148" y="581" type="line"/>
      <point x="148" y="21" type="line"/>
      <point x="142" y="48" type="line"/>
      <point x="181" y="32"/>
      <point x="209" y="28"/>
      <point x="247" y="23" type="curve"/>
      <point x="247" y="15"/>
      <point x="247" y="6"/>
      <point x="245" y="0" type="curve"/>
      <point x="31" y="0" type="line"/>
      <point x="30" y="7"/>
      <point x="31" y="17"/>
      <point x="33" y="23" type="curve"/>
      <point x="84" y="29"/>
      <point x="100" y="39"/>
      <point x="100" y="70" type="curve" smooth="yes"/>
    </contour>
  </outline>
</glyph>
<glyph name="G" format="1">
  <advance width="597"/>
  <unicode hex="0047"/>
  <outline>
    <contour>
      <point x="507" y="585" type="curve"/>
      <point x="507" y="555"/>
      <point x="501" y="507"/>
      <point x="493" y="476" type="curve"/>
      <point x="491" y="476"/>
      <point x="483" y="476"/>
      <point x="479" y="477" type="curve"/>
      <point x="479" y="545"/>
      <point x="424" y="578"/>
      <point x="362" y="578" type="curve" smooth="yes"/>
      <point x="200" y="578"/>
      <point x="113" y="466"/>
      <point x="113" y="295" type="curve" smooth="yes"/>
      <point x="113" y="121"/>
      <point x="205" y="28"/>
      <point x="322" y="28" type="curve" smooth="yes"/>
      <point x="376" y="28"/>
      <point x="431" y="45"/>
      <point x="470" y="71" type="curve"/>
      <point x="464" y="55" type="line"/>
      <point x="464" y="276" type="line"/>
      <point x="492" y="245" type="line"/>
      <point x="453" y="265"/>
      <point x="430" y="273"/>
      <point x="396" y="275" type="curve"/>
      <point x="396" y="282"/>
      <point x="397" y="291"/>
      <point x="398" y="297" type="curve"/>
      <point x="576" y="297" type="line"/>
      <point x="577" y="290"/>
      <point x="576" y="280"/>
      <point x="574" y="275" type="curve"/>
      <point x="526" y="269"/>
      <point x="511" y="260"/>
      <point x="511" y="231" type="curve" smooth="yes"/>
      <point x="511" y="0" type="line"/>
      <point x="488" y="0" type="line"/>
      <point x="468" y="42" type="line"/>
      <point x="480" y="48" type="line"/>
      <point x="441" y="14"/>
      <point x="375" y="-12"/>
      <point x="314" y="-12" type="curve" smooth="yes"/>
      <point x="180" y="-12"/>
      <point x="56" y="95"/>
      <point x="56" y="295" type="curve" smooth="yes"/>
      <point x="56" y="482"/>
      <point x="193" y="614"/>
      <point x="361" y="614" type="curve" smooth="yes"/>
      <point x="416" y="614"/>
      <point x="470" y="601"/>
    </contour>
    <contour>
      <point x="329" y="601" type="move" name="top"/>
    </contour>
    <contour>
      <point x="321" y="0" type="move" name="bottom"/>
    </contour>
  </outline>
</glyph>
<glyph name="H" format="1">
  <advance width="606"/>
  <unicode hex="0048"/>
  <outline>
    <contour>
      <point x="135" y="316" type="line"/>
      <point x="472" y="316" type="line"/>
      <point x="472" y="288" type="line"/>
      <point x="135" y="288" type="line"/>
    </contour>
    <contour>
      <point x="148" y="8" type="line"/>
      <point x="120" y="51" type="line"/>
      <point x="158" y="30"/>
      <point x="182" y="23"/>
      <point x="215" y="21" type="curve"/>
      <point x="215" y="14"/>
      <point x="214" y="6"/>
      <point x="212" y="0" type="curve"/>
      <point x="34" y="0" type="line"/>
      <point x="33" y="7"/>
      <point x="34" y="16"/>
      <point x="37" y="21" type="curve"/>
      <point x="85" y="27"/>
      <point x="100" y="36"/>
      <point x="100" y="66" type="curve" smooth="yes"/>
      <point x="100" y="582" type="line"/>
      <point x="126" y="551" type="line"/>
      <point x="88" y="571"/>
      <point x="65" y="578"/>
      <point x="31" y="580" type="curve"/>
      <point x="31" y="587"/>
      <point x="32" y="597"/>
      <point x="34" y="601" type="curve"/>
      <point x="212" y="601" type="line"/>
      <point x="212" y="596"/>
      <point x="212" y="586"/>
      <point x="210" y="580" type="curve"/>
      <point x="163" y="575"/>
      <point x="148" y="566"/>
      <point x="148" y="537" type="curve" smooth="yes"/>
    </contour>
    <contour>
      <point x="508" y="8" type="line"/>
      <point x="481" y="51" type="line"/>
      <point x="518" y="30"/>
      <point x="542" y="23"/>
      <point x="575" y="21" type="curve"/>
      <point x="575" y="14"/>
      <point x="574" y="6"/>
      <point x="574" y="0" type="curve"/>
      <point x="395" y="0" type="line"/>
      <point x="395" y="7"/>
      <point x="395" y="16"/>
      <point x="396" y="21" type="curve"/>
      <point x="444" y="27"/>
      <point x="459" y="36"/>
      <point x="459" y="66" type="curve" smooth="yes"/>
      <point x="459" y="582" type="line"/>
      <point x="487" y="551" type="line"/>
      <point x="449" y="571"/>
      <point x="425" y="578"/>
      <point x="392" y="580" type="curve"/>
      <point x="392" y="587"/>
      <point x="393" y="597"/>
      <point x="395" y="601" type="curve"/>
      <point x="573" y="601" type="line"/>
      <point x="574" y="596"/>
      <point x="573" y="586"/>
      <point x="571" y="580" type="curve"/>
      <point x="522" y="575"/>
      <point x="508" y="566"/>
      <point x="508" y="537" type="curve" smooth="yes"/>
    </contour>
  </outline>
</glyph>
<glyph name="J" format="1">
  <advance width="235"/>
  <unicode hex="004A"/>
  <outline>
    <contour>
      <point x="148" y="-20" type="line" smooth="yes"/>
      <point x="148" y="-134"/>
      <point x="103" y="-189"/>
      <point x="2" y="-221" type="curve"/>
      <point x="1" y="-217"/>
      <point x="-1" y="-212"/>
      <point x="-2" y="-208" type="curve"/>
      <point x="92" y="-157"/>
      <point x="100" y="-93"/>
      <point x="100" y="-22" type="curve" smooth="yes"/>
      <point x="100" y="582" type="line"/>
      <point x="126" y="551" type="line"/>
      <point x="88" y="571"/>
      <point x="65" y="578"/>
      <point x="31" y="580" type="curve"/>
      <point x="31" y="587"/>
      <point x="32" y="597"/>
      <point x="34" y="601" type="curve"/>
      <point x="212" y="601" type="line"/>
      <point x="212" y="596"/>
      <point x="212" y="586"/>
      <point x="210" y="580" type="curve"/>
      <point x="163" y="575"/>
      <point x="148" y="566"/>
      <point x="148" y="537" type="curve" smooth="yes"/>
    </contour>
  </outline>
</glyph>
<glyph name="K" format="1">
  <advance width="558"/>
  <unicode hex="004B"/>
  <outline>
    <contour>
      <point x="210" y="580" type="curve"/>
      <point x="163" y="575"/>
      <point x="148" y="566"/>
      <point x="148" y="537" type="curve" smooth="yes"/>
      <point x="148" y="8" type="line"/>
      <point x="120" y="51" type="line"/>
      <point x="158" y="30"/>
      <point x="182" y="23"/>
      <point x="215" y="21" type="curve"/>
      <point x="215" y="14"/>
      <point x="214" y="6"/>
      <point x="212" y="0" type="curve"/>
      <point x="34" y="0" type="line"/>
      <point x="33" y="7"/>
      <point x="34" y="16"/>
      <point x="37" y="21" type="curve"/>
      <point x="85" y="27"/>
      <point x="100" y="36"/>
      <point x="100" y="66" type="curve" smooth="yes"/>
      <point x="100" y="582" type="line"/>
      <point x="126" y="551" type="line"/>
      <point x="88" y="571"/>
      <point x="65" y="578"/>
      <point x="31" y="580" type="curve"/>
      <point x="31" y="587"/>
      <point x="32" y="597"/>
      <point x="34" y="601" type="curve"/>
      <point x="212" y="601" type="line"/>
      <point x="212" y="596"/>
      <point x="212" y="586"/>
    </contour>
    <contour>
      <point x="510" y="580" type="curve"/>
      <point x="467" y="580"/>
      <point x="441" y="569"/>
      <point x="417" y="544" type="curve" smooth="yes"/>
      <point x="138" y="251" type="line"/>
      <point x="108" y="264" type="line"/>
      <point x="391" y="566" type="line"/>
      <point x="399" y="556" type="line"/>
      <point x="375" y="572"/>
      <point x="349" y="578"/>
      <point x="322" y="580" type="curve"/>
      <point x="322" y="587"/>
      <point x="323" y="596"/>
      <point x="326" y="601" type="curve"/>
      <point x="513" y="601" type="line"/>
      <point x="513" y="593"/>
      <point x="512" y="587"/>
    </contour>
    <contour>
      <point x="514" y="23" type="curve"/>
      <point x="514" y="16"/>
      <point x="513" y="7"/>
      <point x="510" y="0" type="curve"/>
      <point x="414" y="0" type="line"/>
      <point x="208" y="271" type="line" smooth="yes"/>
      <point x="197" y="286"/>
      <point x="188" y="291"/>
      <point x="170" y="290" type="curve"/>
      <point x="202" y="322" type="line"/>
      <point x="226" y="321"/>
      <point x="239" y="313"/>
      <point x="254" y="293" type="curve" smooth="yes"/>
      <point x="413" y="79" type="line" smooth="yes"/>
      <point x="447" y="35"/>
      <point x="470" y="26"/>
    </contour>
    <contour>
      <point x="279" y="601" type="move" name="top"/>
    </contour>
    <contour>
      <point x="279" y="0" type="move" name="bottom"/>
    </contour>
  </outline>
</glyph>
<glyph name="L" format="1">
  <advance width="484"/>
  <unicode hex="004C"/>
  <outline>
    <contour>
      <point x="208" y="580" type="curve"/>
      <point x="161" y="575"/>
      <point x="146" y="566"/>
      <point x="146" y="537" type="curve" smooth="yes"/>
      <point x="146" y="19" type="line"/>
      <point x="135" y="28" type="line"/>
      <point x="342" y="28" type="line" smooth="yes"/>
      <point x="409" y="28"/>
      <point x="426" y="54"/>
      <point x="432" y="121" type="curve"/>
      <point x="437" y="121"/>
      <point x="445" y="121"/>
      <point x="449" y="120" type="curve"/>
      <point x="454" y="81"/>
      <point x="456" y="41"/>
      <point x="453" y="0" type="curve"/>
      <point x="33" y="0" type="line"/>
      <point x="32" y="7"/>
      <point x="33" y="16"/>
      <point x="35" y="21" type="curve"/>
      <point x="83" y="27"/>
      <point x="98" y="36"/>
      <point x="98" y="66" type="curve" smooth="yes"/>
      <point x="98" y="582" type="line"/>
      <point x="124" y="551" type="line"/>
      <point x="87" y="571"/>
      <point x="63" y="578"/>
      <point x="30" y="580" type="curve"/>
      <point x="30" y="587"/>
      <point x="31" y="597"/>
      <point x="32" y="601" type="curve"/>
      <point x="210" y="601" type="line"/>
      <point x="211" y="596"/>
      <point x="210" y="586"/>
    </contour>
    <contour>
      <point x="126" y="599" type="move" name="top"/>
    </contour>
    <contour>
      <point x="244" y="0" type="move" name="bottom"/>
    </contour>
    <contour>
      <point x="260" y="601" type="move" name="commaaccent"/>
    </contour>
  </outline>
</glyph>
<glyph name="M" format="1">
  <advance width="777"/>
  <unicode hex="004D"/>
  <outline>
    <contour>
      <point x="190" y="601" type="line"/>
      <point x="395" y="44" type="line"/>
      <point x="368" y="44" type="line"/>
      <point x="590" y="601" type="line"/>
      <point x="688" y="601" type="line"/>
      <point x="690" y="596"/>
      <point x="692" y="587"/>
      <point x="692" y="579" type="curve"/>
      <point x="661" y="577"/>
      <point x="644" y="563"/>
      <point x="646" y="530" type="curve" smooth="yes"/>
      <point x="689" y="26" type="line"/>
      <point x="661" y="51" type="line"/>
      <point x="700" y="31"/>
      <point x="725" y="23"/>
      <point x="758" y="21" type="curve"/>
      <point x="759" y="15"/>
      <point x="759" y="6"/>
      <point x="757" y="0" type="curve"/>
      <point x="579" y="0" type="line"/>
      <point x="578" y="7"/>
      <point x="578" y="16"/>
      <point x="579" y="21" type="curve"/>
      <point x="627" y="27"/>
      <point x="641" y="36"/>
      <point x="639" y="66" type="curve" smooth="yes"/>
      <point x="595" y="584" type="line"/>
      <point x="608" y="563" type="line"/>
      <point x="568" y="455" type="line"/>
      <point x="386" y="0" type="line"/>
      <point x="368" y="0" type="line"/>
      <point x="193" y="474" type="line"/>
      <point x="159" y="573" type="line"/>
      <point x="167" y="576" type="line"/>
      <point x="121" y="25" type="line"/>
      <point x="99" y="50" type="line"/>
      <point x="128" y="31"/>
      <point x="165" y="23"/>
      <point x="197" y="21" type="curve"/>
      <point x="197" y="15"/>
      <point x="195" y="6"/>
      <point x="193" y="0" type="curve"/>
      <point x="11" y="0" type="line"/>
      <point x="11" y="7"/>
      <point x="13" y="16"/>
      <point x="15" y="21" type="curve"/>
      <point x="64" y="27"/>
      <point x="89" y="45"/>
      <point x="91" y="73" type="curve" smooth="yes"/>
      <point x="133" y="566" type="line"/>
      <point x="117" y="572"/>
      <point x="108" y="575"/>
      <point x="86" y="578" type="curve"/>
      <point x="84" y="586"/>
      <point x="84" y="595"/>
      <point x="86" y="601" type="curve"/>
    </contour>
  </outline>
</glyph>
<glyph name="N" format="1">
  <advance width="631"/>
  <unicode hex="004E"/>
  <outline>
    <contour>
      <point x="418" y="226" type="line"/>
      <point x="528" y="61" type="line"/>
      <point x="505" y="63" type="line"/>
      <point x="505" y="581" type="line"/>
      <point x="511" y="561" type="line"/>
      <point x="485" y="574"/>
      <point x="455" y="578"/>
      <point x="427" y="580" type="curve"/>
      <point x="427" y="587"/>
      <point x="428" y="597"/>
      <point x="430" y="601" type="curve"/>
      <point x="612" y="601" type="line"/>
      <point x="612" y="596"/>
      <point x="612" y="586"/>
      <point x="610" y="580" type="curve"/>
      <point x="561" y="575"/>
      <point x="539" y="557"/>
      <point x="539" y="528" type="curve" smooth="yes"/>
      <point x="539" y="0" type="line"/>
      <point x="517" y="0" type="line"/>
      <point x="183" y="479" type="line"/>
      <point x="127" y="566" type="line"/>
      <point x="138" y="566" type="line"/>
      <point x="138" y="20" type="line"/>
      <point x="131" y="41" type="line"/>
      <point x="157" y="29"/>
      <point x="188" y="23"/>
      <point x="215" y="21" type="curve"/>
      <point x="215" y="14"/>
      <point x="214" y="6"/>
      <point x="212" y="0" type="curve"/>
      <point x="32" y="0" type="line"/>
      <point x="31" y="7"/>
      <point x="32" y="16"/>
      <point x="34" y="21" type="curve"/>
      <point x="82" y="27"/>
      <point x="104" y="44"/>
      <point x="104" y="73" type="curve" smooth="yes"/>
      <point x="104" y="575" type="line"/>
      <point x="110" y="562" type="line"/>
      <point x="85" y="573"/>
      <point x="64" y="579"/>
      <point x="38" y="580" type="curve"/>
      <point x="38" y="587"/>
      <point x="39" y="597"/>
      <point x="40" y="601" type="curve"/>
      <point x="156" y="601" type="line"/>
    </contour>
    <contour>
      <point x="330" y="601" type="move" name="top"/>
    </contour>
    <contour>
      <point x="329" y="0" type="move" name="bottom"/>
    </contour>
  </outline>
</glyph>
<glyph name="O" format="1">
  <advance width="646"/>
  <unicode hex="004F"/>
  <outline>
    <contour>
      <point x="323" y="-13" type="curve" smooth="yes"/>
      <point x="156" y="-13"/>
      <point x="57" y="119"/>
      <point x="57" y="299" type="curve" smooth="yes"/>
      <point x="57" y="479"/>
      <point x="155" y="614"/>
      <point x="322" y="614" type="curve" smooth="yes"/>
      <point x="489" y="614"/>
      <point x="589" y="479"/>
      <point x="589" y="299" type="curve" smooth="yes"/>
      <point x="589" y="119"/>
      <point x="489" y="-13"/>
    </contour>
    <contour>
      <point x="536" y="300" type="curve" smooth="yes"/>
      <point x="531" y="488"/>
      <point x="440" y="580"/>
      <point x="314" y="580" type="curve" smooth="yes"/>
      <point x="187" y="580"/>
      <point x="105" y="459"/>
      <point x="110" y="299" type="curve" smooth="yes"/>
      <point x="114" y="101"/>
      <point x="204" y="21"/>
      <point x="331" y="21" type="curve" smooth="yes"/>
      <point x="459" y="21"/>
      <point x="540" y="129"/>
    </contour>
    <contour>
      <point x="323" y="601" type="move" name="top"/>
    </contour>
  </outline>
</glyph>
<glyph name="Q" format="1">
  <advance width="646"/>
  <unicode hex="0051"/>
  <outline>
    <contour>
      <point x="345" y="-7" type="line"/>
      <point x="355" y="-59"/>
      <point x="381" y="-113"/>
      <point x="425" y="-113" type="curve" smooth="yes"/>
      <point x="449" y="-113"/>
      <point x="489" y="-106"/>
      <point x="520" y="-95" type="curve"/>
      <point x="530" y="-111" type="line"/>
      <point x="498" y="-133"/>
      <point x="457" y="-150"/>
      <point x="418" y="-150" type="curve" smooth="yes"/>
      <point x="359" y="-150"/>
      <point x="309" y="-79"/>
      <point x="295" y="-7" type="curve"/>
    </contour>
    <component base="O"/>
  </outline>
</glyph>
<glyph name="R" format="1">
  <advance width="530"/>
  <unicode hex="0052"/>
  <outline>
    <contour>
      <point x="435" y="441" type="curve" smooth="yes"/>
      <point x="435" y="351"/>
      <point x="377" y="282"/>
      <point x="250" y="282" type="curve" smooth="yes"/>
      <point x="128" y="282" type="line"/>
      <point x="125" y="290"/>
      <point x="123" y="300"/>
      <point x="123" y="310" type="curve"/>
      <point x="236" y="310" type="line" smooth="yes"/>
      <point x="344" y="310"/>
      <point x="379" y="366"/>
      <point x="379" y="441" type="curve" smooth="yes"/>
      <point x="379" y="516"/>
      <point x="344" y="575"/>
      <point x="236" y="575" type="curve" smooth="yes"/>
      <point x="137" y="575" type="line"/>
      <point x="148" y="581" type="line"/>
      <point x="148" y="20" type="line"/>
      <point x="139" y="45" type="line"/>
      <point x="169" y="31"/>
      <point x="193" y="24"/>
      <point x="228" y="21" type="curve"/>
      <point x="229" y="14"/>
      <point x="228" y="6"/>
      <point x="226" y="0" type="curve"/>
      <point x="34" y="0" type="line"/>
      <point x="33" y="7"/>
      <point x="34" y="16"/>
      <point x="37" y="21" type="curve"/>
      <point x="85" y="27"/>
      <point x="100" y="36"/>
      <point x="100" y="66" type="curve" smooth="yes"/>
      <point x="100" y="575" type="line"/>
      <point x="125" y="551" type="line"/>
      <point x="89" y="570"/>
      <point x="65" y="579"/>
      <point x="31" y="580" type="curve"/>
      <point x="31" y="587"/>
      <point x="32" y="597"/>
      <point x="34" y="601" type="curve"/>
      <point x="250" y="601" type="line" smooth="yes"/>
      <point x="377" y="601"/>
      <point x="435" y="531"/>
    </contour>
    <contour>
      <point x="310" y="228" type="line" smooth="yes"/>
      <point x="293" y="261"/>
      <point x="279" y="282"/>
      <point x="222" y="282" type="curve"/>
      <point x="282" y="296" type="line"/>
      <point x="326" y="292"/>
      <point x="343" y="271"/>
      <point x="361" y="237" type="curve" smooth="yes"/>
      <point x="448" y="73" type="line" smooth="yes"/>
      <point x="470" y="32"/>
      <point x="486" y="20"/>
      <point x="525" y="20" type="curve"/>
      <point x="525" y="14"/>
      <point x="525" y="7"/>
      <point x="523" y="0" type="curve"/>
      <point x="428" y="0" type="line"/>
    </contour>
    <contour>
      <point x="283" y="599" type="move" name="top"/>
    </contour>
    <contour>
      <point x="291" y="0" type="move" name="bottom"/>
    </contour>
  </outline>
</glyph>
<glyph name="T" format="1">
  <advance width="494"/>
  <unicode hex="0054"/>
  <outline>
    <contour>
      <point x="247" y="601" type="move" name="top"/>
    </contour>
    <contour>
      <point x="247" y="0" type="move" name="bottom"/>
    </contour>
    <contour>
      <point x="271" y="20" type="line"/>
      <point x="262" y="44" type="line"/>
      <point x="298" y="30"/>
      <point x="333" y="23"/>
      <point x="371" y="21" type="curve"/>
      <point x="371" y="14"/>
      <point x="371" y="6"/>
      <point x="369" y="0" type="curve"/>
      <point x="121" y="0" type="line"/>
      <point x="121" y="7"/>
      <point x="121" y="16"/>
      <point x="124" y="21" type="curve"/>
      <point x="205" y="27"/>
      <point x="223" y="36"/>
      <point x="223" y="66" type="curve" smooth="yes"/>
      <point x="223" y="587" type="line"/>
      <point x="271" y="587" type="line"/>
    </contour>
    <contour>
      <point x="472" y="601" type="line"/>
      <point x="475" y="562"/>
      <point x="474" y="520"/>
      <point x="470" y="483" type="curve"/>
      <point x="464" y="481"/>
      <point x="458" y="480"/>
      <point x="453" y="481" type="curve"/>
      <point x="446" y="550"/>
      <point x="428" y="575"/>
      <point x="362" y="575" type="curve" smooth="yes"/>
      <point x="132" y="575" type="line" smooth="yes"/>
      <point x="66" y="575"/>
      <point x="47" y="550"/>
      <point x="41" y="481" type="curve"/>
      <point x="37" y="480"/>
      <point x="29" y="481"/>
      <point x="24" y="483" type="curve"/>
      <point x="19" y="520"/>
      <point x="18" y="562"/>
      <point x="22" y="601" type="curve"/>
    </contour>
  </outline>
</glyph>
<glyph name="U" format="1">
  <advance width="633"/>
  <unicode hex="0055"/>
  <outline>
    <contour>
      <point x="526" y="208" type="line" smooth="yes"/>
      <point x="526" y="50"/>
      <point x="434" y="-12"/>
      <point x="319" y="-12" type="curve" smooth="yes"/>
      <point x="204" y="-12"/>
      <point x="111" y="50"/>
      <point x="111" y="208" type="curve" smooth="yes"/>
      <point x="111" y="582" type="line"/>
      <point x="137" y="551" type="line"/>
      <point x="99" y="571"/>
      <point x="76" y="578"/>
      <point x="43" y="580" type="curve"/>
      <point x="42" y="587"/>
      <point x="44" y="597"/>
      <point x="45" y="601" type="curve"/>
      <point x="223" y="601" type="line"/>
      <point x="223" y="596"/>
      <point x="223" y="586"/>
      <point x="221" y="580" type="curve"/>
      <point x="174" y="575"/>
      <point x="159" y="566"/>
      <point x="159" y="537" type="curve"/>
      <point x="159" y="200" type="line" smooth="yes"/>
      <point x="159" y="77"/>
      <point x="226" y="22"/>
      <point x="319" y="22" type="curve" smooth="yes"/>
      <point x="412" y="22"/>
      <point x="477" y="78"/>
      <point x="477" y="200" type="curve" smooth="yes"/>
      <point x="477" y="582" type="line"/>
      <point x="505" y="551" type="line"/>
      <point x="467" y="571"/>
      <point x="443" y="578"/>
      <point x="410" y="580" type="curve"/>
      <point x="410" y="587"/>
      <point x="411" y="597"/>
      <point x="413" y="601" type="curve"/>
      <point x="591" y="601" type="line"/>
      <point x="592" y="596"/>
      <point x="591" y="586"/>
      <point x="589" y="580" type="curve"/>
      <point x="540" y="575"/>
      <point x="526" y="566"/>
      <point x="526" y="537" type="curve"/>
    </contour>
    <contour>
      <point x="398" y="0" type="move" name="ogonek"/>
    </contour>
    <contour>
      <point x="319" y="601" type="move" name="top"/>
    </contour>
  </outline>
</glyph>
<glyph name="V" format="1">
  <advance width="562"/>
  <unicode hex="0056"/>
  <outline>
    <contour>
      <point x="170" y="579" type="curve"/>
      <point x="120" y="574"/>
      <point x="112" y="569"/>
      <point x="124" y="536" type="curve" smooth="yes"/>
      <point x="268" y="141" type="line" smooth="yes"/>
      <point x="274" y="124"/>
      <point x="282" y="102"/>
      <point x="286" y="80" type="curve"/>
      <point x="289" y="80" type="line"/>
      <point x="469" y="585" type="line"/>
      <point x="467" y="562" type="line"/>
      <point x="445" y="572"/>
      <point x="423" y="577"/>
      <point x="397" y="579" type="curve"/>
      <point x="397" y="587"/>
      <point x="398" y="595"/>
      <point x="400" y="601" type="curve"/>
      <point x="557" y="601" type="line"/>
      <point x="557" y="594"/>
      <point x="556" y="587"/>
      <point x="554" y="579" type="curve"/>
      <point x="520" y="574"/>
      <point x="497" y="568"/>
      <point x="483" y="531" type="curve" smooth="yes"/>
      <point x="290" y="-6" type="line"/>
      <point x="273" y="-6" type="line"/>
      <point x="54" y="587" type="line"/>
      <point x="93" y="554" type="line"/>
      <point x="69" y="566"/>
      <point x="32" y="576"/>
      <point x="7" y="579" type="curve"/>
      <point x="6" y="587"/>
      <point x="4" y="595"/>
      <point x="6" y="601" type="curve"/>
      <point x="167" y="601" type="line"/>
      <point x="169" y="594"/>
      <point x="170" y="587"/>
    </contour>
  </outline>
</glyph>
<glyph name="X" format="1">
  <advance width="587"/>
  <unicode hex="0058"/>
  <outline>
    <contour>
      <point x="289" y="327" type="line"/>
      <point x="487" y="594" type="line"/>
      <point x="486" y="554" type="line"/>
      <point x="458" y="568"/>
      <point x="430" y="578"/>
      <point x="396" y="580" type="curve"/>
      <point x="396" y="587"/>
      <point x="397" y="595"/>
      <point x="399" y="601" type="curve"/>
      <point x="552" y="601" type="line"/>
      <point x="553" y="594"/>
      <point x="552" y="587"/>
      <point x="550" y="580" type="curve"/>
      <point x="516" y="575"/>
      <point x="503" y="564"/>
      <point x="479" y="532" type="curve" smooth="yes"/>
      <point x="309" y="303" type="line"/>
    </contour>
    <contour>
      <point x="293" y="280" type="line"/>
      <point x="105" y="15" type="line"/>
      <point x="102" y="48" type="line"/>
      <point x="129" y="32"/>
      <point x="158" y="23"/>
      <point x="191" y="21" type="curve"/>
      <point x="191" y="14"/>
      <point x="190" y="7"/>
      <point x="188" y="0" type="curve"/>
      <point x="35" y="0" type="line"/>
      <point x="34" y="7"/>
      <point x="35" y="15"/>
      <point x="37" y="21" type="curve"/>
      <point x="71" y="27"/>
      <point x="83" y="38"/>
      <point x="109" y="70" type="curve"/>
      <point x="270" y="303" type="line"/>
    </contour>
    <contour>
      <point x="202" y="580" type="curve"/>
      <point x="143" y="574"/>
      <point x="135" y="565"/>
      <point x="155" y="538" type="curve" smooth="yes"/>
      <point x="524" y="14" type="line"/>
      <point x="467" y="46" type="line"/>
      <point x="489" y="36"/>
      <point x="525" y="26"/>
      <point x="549" y="21" type="curve"/>
      <point x="551" y="15"/>
      <point x="553" y="7"/>
      <point x="552" y="0" type="curve"/>
      <point x="390" y="0" type="line"/>
      <point x="386" y="7"/>
      <point x="386" y="15"/>
      <point x="386" y="21" type="curve"/>
      <point x="444" y="27"/>
      <point x="452" y="35"/>
      <point x="432" y="64" type="curve" smooth="yes"/>
      <point x="59" y="593" type="line"/>
      <point x="120" y="554" type="line"/>
      <point x="97" y="566"/>
      <point x="62" y="576"/>
      <point x="38" y="579" type="curve"/>
      <point x="35" y="587"/>
      <point x="33" y="595"/>
      <point x="35" y="601" type="curve"/>
      <point x="198" y="601" type="line"/>
      <point x="201" y="594"/>
      <point x="202" y="587"/>
    </contour>
  </outline>
</glyph>
<glyph name="Y" format="1">
  <advance width="536"/>
  <unicode hex="0059"/>
  <outline>
    <contour>
      <point x="168" y="579" type="curve"/>
      <point x="115" y="574"/>
      <point x="105" y="565"/>
      <point x="123" y="532" type="curve" smooth="yes"/>
      <point x="270" y="267" type="line"/>
      <point x="271" y="267" type="line"/>
      <point x="276" y="281"/>
      <point x="284" y="297"/>
      <point x="291" y="308" type="curve" smooth="yes"/>
      <point x="464" y="580" type="line"/>
      <point x="468" y="559" type="line"/>
      <point x="443" y="570"/>
      <point x="424" y="577"/>
      <point x="391" y="579" type="curve"/>
      <point x="391" y="587"/>
      <point x="392" y="595"/>
      <point x="393" y="601" type="curve"/>
      <point x="541" y="601" type="line"/>
      <point x="542" y="594"/>
      <point x="541" y="587"/>
      <point x="539" y="579" type="curve"/>
      <point x="504" y="574"/>
      <point x="491" y="566"/>
      <point x="469" y="531" type="curve" smooth="yes"/>
      <point x="288" y="245" type="line"/>
      <point x="288" y="38" type="line"/>
      <point x="312" y="28"/>
      <point x="331" y="23"/>
      <point x="356" y="21" type="curve"/>
      <point x="356" y="15"/>
      <point x="355" y="6"/>
      <point x="353" y="0" type="curve"/>
      <point x="174" y="0" type="line"/>
      <point x="173" y="7"/>
      <point x="174" y="16"/>
      <point x="176" y="21" type="curve"/>
      <point x="224" y="27"/>
      <point x="239" y="36"/>
      <point x="239" y="66" type="curve" smooth="yes"/>
      <point x="239" y="232" type="line"/>
      <point x="34" y="593" type="line"/>
      <point x="82" y="554" type="line"/>
      <point x="58" y="566"/>
      <point x="22" y="576"/>
      <point x="-3" y="579" type="curve"/>
      <point x="-4" y="587"/>
      <point x="-6" y="595"/>
      <point x="-6" y="601" type="curve"/>
      <point x="164" y="601" type="line"/>
      <point x="167" y="594"/>
      <point x="168" y="587"/>
    </contour>
    <contour>
      <point x="265" y="601" type="move" name="top"/>
    </contour>
  </outline>
</glyph>
<glyph name="Z" format="1">
  <advance width="530"/>
  <unicode hex="005A"/>
  <outline>
    <contour>
      <point x="466" y="601" type="line"/>
      <point x="469" y="594"/>
      <point x="470" y="585"/>
      <point x="470" y="576" type="curve"/>
      <point x="98" y="11" type="line"/>
      <point x="92" y="29" type="line"/>
      <point x="355" y="29" type="line" smooth="yes"/>
      <point x="422" y="29"/>
      <point x="442" y="54"/>
      <point x="452" y="121" type="curve"/>
      <point x="457" y="121"/>
      <point x="463" y="120"/>
      <point x="467" y="118" type="curve"/>
      <point x="467" y="80"/>
      <point x="465" y="40"/>
      <point x="458" y="0" type="curve"/>
      <point x="60" y="0" type="line"/>
      <point x="56" y="6"/>
      <point x="53" y="16"/>
      <point x="53" y="25" type="curve"/>
      <point x="424" y="588" type="line"/>
      <point x="433" y="574" type="line"/>
      <point x="188" y="574" type="line" smooth="yes"/>
      <point x="122" y="574"/>
      <point x="101" y="547"/>
      <point x="91" y="480" type="curve"/>
      <point x="87" y="480"/>
      <point x="81" y="481"/>
      <point x="75" y="484" type="curve"/>
      <point x="75" y="522"/>
      <point x="79" y="563"/>
      <point x="86" y="601" type="curve"/>
    </contour>
    <contour>
      <point x="301" y="601" type="move" name="top"/>
    </contour>
  </outline>
</glyph>
<glyph name="backslash" format="1">
  <advance width="465"/>
  <unicode hex="005C"/>
  <outline>
    <contour>
      <point x="171" y="675" type="line"/>
      <point x="342" y="-5" type="line"/>
      <point x="298" y="-5" type="line"/>
      <point x="126" y="675" type="line"/>
    </contour>
  </outline>
</glyph>
<glyph name="bracketright" format="1">
  <advance width="295"/>
  <unicode hex="005D"/>
  <outline>
    <contour>
      <point x="30" y="-101" type="line"/>
      <point x="30" y="-128" type="line"/>
      <point x="195" y="-128" type="line"/>
      <point x="195" y="770" type="line"/>
      <point x="30" y="770" type="line"/>
      <point x="30" y="743" type="line"/>
      <point x="145" y="743" type="line"/>
      <point x="145" y="-101" type="line"/>
    </contour>
  </outline>
</glyph>
<glyph name="asciicircum" format="1">
  <advance width="442"/>
  <unicode hex="005E"/>
  <outline>
    <contour>
      <point x="30" y="213" type="line"/>
      <point x="75" y="213" type="line"/>
      <point x="221" y="548" type="line"/>
      <point x="367" y="213" type="line"/>
      <point x="412" y="213" type="line"/>
      <point x="242" y="590" type="line"/>
      <point x="200" y="590" type="line"/>
    </contour>
  </outline>
</glyph>
<glyph name="grave" format="1">
  <advance width="186"/>
  <unicode hex="0060"/>
  <outline>
    <contour>
      <point x="176" y="504" type="line"/>
      <point x="160" y="494" type="line"/>
      <point x="10" y="629" type="line"/>
      <point x="10" y="638" type="line"/>
      <point x="22" y="649"/>
      <point x="45" y="660"/>
      <point x="63" y="665" type="curve"/>
    </contour>
    <contour>
      <point x="150" y="453" type="move" name="_top"/>
    </contour>
  </outline>
</glyph>
<glyph name="a" format="1">
  <advance width="453"/>
  <unicode hex="0061"/>
  <outline>
    <contour>
      <point x="300" y="253" type="line"/>
      <point x="212" y="231" type="line" smooth="yes"/>
      <point x="133" y="211"/>
      <point x="103" y="171"/>
      <point x="103" y="116" type="curve" smooth="yes"/>
      <point x="103" y="61"/>
      <point x="138" y="31"/>
      <point x="192" y="31" type="curve" smooth="yes"/>
      <point x="239" y="31"/>
      <point x="279" y="48"/>
      <point x="314" y="97" type="curve"/>
      <point x="317" y="70" type="line"/>
      <point x="291" y="29"/>
      <point x="240" y="-12"/>
      <point x="181" y="-12" type="curve" smooth="yes"/>
      <point x="102" y="-12"/>
      <point x="50" y="43"/>
      <point x="50" y="109" type="curve" smooth="yes"/>
      <point x="50" y="191"/>
      <point x="99" y="236"/>
      <point x="206" y="260" type="curve" smooth="yes"/>
      <point x="300" y="282" type="line"/>
    </contour>
    <contour>
      <point x="346" y="338" type="curve" smooth="yes"/>
      <point x="346" y="85" type="line" smooth="yes"/>
      <point x="346" y="45"/>
      <point x="354" y="30"/>
      <point x="378" y="30" type="curve" smooth="yes"/>
      <point x="388" y="30"/>
      <point x="401" y="32"/>
      <point x="415" y="35" type="curve"/>
      <point x="418" y="28" type="line"/>
      <point x="404" y="7"/>
      <point x="379" y="-12"/>
      <point x="354" y="-12" type="curve" smooth="yes"/>
      <point x="320" y="-12"/>
      <point x="295" y="14"/>
      <point x="295" y="63" type="curve" smooth="yes"/>
      <point x="295" y="329" type="line" smooth="yes"/>
      <point x="295" y="389"/>
      <point x="276" y="422"/>
      <point x="214" y="422" type="curve" smooth="yes"/>
      <point x="172" y="422"/>
      <point x="126" y="412"/>
      <point x="83" y="396" type="curve"/>
      <point x="74" y="409" type="line"/>
      <point x="118" y="444"/>
      <point x="175" y="465"/>
      <point x="229" y="465" type="curve" smooth="yes"/>
      <point x="301" y="465"/>
      <point x="346" y="417"/>
    </contour>
    <contour>
      <point x="388" y="0" type="move" name="ogonek"/>
    </contour>
    <contour>
      <point x="218" y="453" type="move" name="top"/>
    </contour>
  </outline>
</glyph>
<glyph name="b" format="1">
  <advance width="499"/>
  <unicode hex="0062"/>
  <outline>
    <contour>
      <point x="122" y="40" type="line"/>
      <point x="111" y="17"/>
      <point x="93" y="1"/>
      <point x="66" y="-11" type="curve"/>
      <point x="57" y="-3" type="line"/>
      <point x="73" y="30"/>
      <point x="80" y="69"/>
      <point x="80" y="107" type="curve"/>
      <point x="80" y="671" type="line"/>
      <point x="89" y="656" type="line"/>
      <point x="63" y="658"/>
      <point x="38" y="658"/>
      <point x="9" y="657" type="curve"/>
      <point x="9" y="665"/>
      <point x="10" y="671"/>
      <point x="13" y="677" type="curve"/>
      <point x="51" y="694"/>
      <point x="89" y="706"/>
      <point x="130" y="714" type="curve"/>
      <point x="130" y="40" type="line"/>
    </contour>
    <contour>
      <point x="451" y="236" type="curve" smooth="yes"/>
      <point x="451" y="76"/>
      <point x="346" y="-12"/>
      <point x="231" y="-12" type="curve" smooth="yes"/>
      <point x="188" y="-12"/>
      <point x="145" y="1"/>
      <point x="104" y="27" type="curve"/>
      <point x="116" y="62" type="line"/>
      <point x="156" y="36"/>
      <point x="196" y="27"/>
      <point x="241" y="27" type="curve" smooth="yes"/>
      <point x="326" y="27"/>
      <point x="393" y="96"/>
      <point x="393" y="236" type="curve" smooth="yes"/>
      <point x="393" y="375"/>
      <point x="328" y="427"/>
      <point x="265" y="427" type="curve" smooth="yes"/>
      <point x="203" y="427"/>
      <point x="142" y="384"/>
      <point x="130" y="276" type="curve"/>
      <point x="117" y="296" type="line"/>
      <point x="130" y="405"/>
      <point x="195" y="465"/>
      <point x="269" y="465" type="curve" smooth="yes"/>
      <point x="354" y="465"/>
      <point x="451" y="396"/>
    </contour>
  </outline>
</glyph>
<glyph name="c" format="1">
  <advance width="453"/>
  <unicode hex="0063"/>
  <outline>
    <contour>
      <point x="268" y="463" type="move" name="top"/>
    </contour>
    <contour>
      <point x="234" y="0" type="move" name="bottom"/>
    </contour>
    <contour>
      <point x="406" y="423" type="curve"/>
      <point x="406" y="400"/>
      <point x="403" y="354"/>
      <point x="398" y="325" type="curve"/>
      <point x="392" y="326"/>
      <point x="387" y="327"/>
      <point x="382" y="328" type="curve"/>
      <point x="384" y="394"/>
      <point x="331" y="433"/>
      <point x="263" y="433" type="curve" smooth="yes"/>
      <point x="165" y="433"/>
      <point x="100" y="349"/>
      <point x="100" y="221" type="curve" smooth="yes"/>
      <point x="100" y="109"/>
      <point x="160" y="23"/>
      <point x="254" y="23" type="curve" smooth="yes"/>
      <point x="314" y="23"/>
      <point x="353" y="38"/>
      <point x="400" y="68" type="curve"/>
      <point x="410" y="58" type="line"/>
      <point x="361" y="13"/>
      <point x="319" y="-12"/>
      <point x="246" y="-12" type="curve" smooth="yes"/>
      <point x="133" y="-12"/>
      <point x="46" y="81"/>
      <point x="46" y="219" type="curve" smooth="yes"/>
      <point x="46" y="366"/>
      <point x="136" y="465"/>
      <point x="269" y="465" type="curve" smooth="yes"/>
      <point x="320" y="465"/>
      <point x="373" y="450"/>
    </contour>
  </outline>
</glyph>
<glyph name="e" format="1">
  <advance width="466"/>
  <unicode hex="0065"/>
  <outline>
    <contour>
      <point x="312" y="0" type="move" name="ogonek"/>
    </contour>
    <contour>
      <point x="237" y="0" type="move" name="bottom"/>
    </contour>
    <contour>
      <point x="254" y="453" type="move" name="top"/>
    </contour>
    <contour>
      <point x="420" y="275" type="curve"/>
      <point x="418" y="272"/>
      <point x="415" y="267"/>
      <point x="412" y="264" type="curve"/>
      <point x="94" y="264" type="line"/>
      <point x="94" y="290" type="line"/>
      <point x="232" y="299" type="line"/>
      <point x="382" y="299" type="line"/>
      <point x="364" y="293" type="line"/>
      <point x="366" y="396"/>
      <point x="307" y="434"/>
      <point x="246" y="434" type="curve" smooth="yes"/>
      <point x="183" y="434"/>
      <point x="100" y="379"/>
      <point x="100" y="235" type="curve" smooth="yes"/>
      <point x="100" y="110"/>
      <point x="155" y="31"/>
      <point x="257" y="31" type="curve" smooth="yes"/>
      <point x="311" y="31"/>
      <point x="360" y="48"/>
      <point x="409" y="83" type="curve"/>
      <point x="414" y="70" type="line"/>
      <point x="372" y="22"/>
      <point x="316" y="-12"/>
      <point x="242" y="-12" type="curve" smooth="yes"/>
      <point x="150" y="-12"/>
      <point x="47" y="60"/>
      <point x="47" y="219" type="curve" smooth="yes"/>
      <point x="47" y="391"/>
      <point x="170" y="465"/>
      <point x="254" y="465" type="curve" smooth="yes"/>
      <point x="350" y="465"/>
      <point x="420" y="397"/>
    </contour>
  </outline>
</glyph>
<glyph name="g" format="1">
  <advance width="494"/>
  <unicode hex="0067"/>
  <outline>
    <contour>
      <point x="238" y="168" type="curve" smooth="yes"/>
      <point x="305" y="168"/>
      <point x="360" y="216"/>
      <point x="355" y="305" type="curve" smooth="yes"/>
      <point x="349" y="393"/>
      <point x="296" y="441"/>
      <point x="228" y="441" type="curve" smooth="yes"/>
      <point x="160" y="441"/>
      <point x="108" y="391"/>
      <point x="111" y="305" type="curve" smooth="yes"/>
      <point x="114" y="218"/>
      <point x="170" y="168"/>
    </contour>
    <contour>
      <point x="408" y="305" type="curve" smooth="yes"/>
      <point x="408" y="205"/>
      <point x="329" y="144"/>
      <point x="233" y="144" type="curve" smooth="yes"/>
      <point x="137" y="144"/>
      <point x="57" y="205"/>
      <point x="57" y="305" type="curve" smooth="yes"/>
      <point x="57" y="405"/>
      <point x="137" y="465"/>
      <point x="233" y="465" type="curve" smooth="yes"/>
      <point x="329" y="465"/>
      <point x="408" y="405"/>
    </contour>
    <contour>
      <point x="334" y="422" type="line"/>
      <point x="375" y="455"/>
      <point x="439" y="471"/>
      <point x="483" y="471" type="curve"/>
      <point x="484" y="459"/>
      <point x="482" y="441"/>
      <point x="479" y="425" type="curve"/>
      <point x="352" y="412" type="line"/>
    </contour>
    <contour>
      <point x="148" y="16" type="line"/>
      <point x="98" y="-7"/>
      <point x="67" y="-45"/>
      <point x="67" y="-92" type="curve" smooth="yes"/>
      <point x="67" y="-152"/>
      <point x="125" y="-195"/>
      <point x="226" y="-195" type="curve" smooth="yes"/>
      <point x="347" y="-195"/>
      <point x="433" y="-118"/>
      <point x="432" y="-58" type="curve" smooth="yes"/>
      <point x="432" y="-23"/>
      <point x="412" y="0"/>
      <point x="367" y="0" type="curve" smooth="yes"/>
      <point x="160" y="-1" type="line" smooth="yes"/>
      <point x="93" y="-2"/>
      <point x="54" y="32"/>
      <point x="54" y="82" type="curve" smooth="yes"/>
      <point x="54" y="130"/>
      <point x="105" y="165"/>
      <point x="155" y="181" type="curve"/>
      <point x="167" y="164" type="line"/>
      <point x="120" y="144"/>
      <point x="99" y="124"/>
      <point x="99" y="95" type="curve" smooth="yes"/>
      <point x="99" y="67"/>
      <point x="119" y="42"/>
      <point x="174" y="42" type="curve" smooth="yes"/>
      <point x="367" y="44" type="line" smooth="yes"/>
      <point x="445" y="45"/>
      <point x="484" y="7"/>
      <point x="484" y="-45" type="curve" smooth="yes"/>
      <point x="483" y="-133"/>
      <point x="359" y="-233"/>
      <point x="218" y="-233" type="curve" smooth="yes"/>
      <point x="107" y="-233"/>
      <point x="36" y="-180"/>
      <point x="36" y="-100" type="curve" smooth="yes"/>
      <point x="36" y="-42"/>
      <point x="71" y="1"/>
      <point x="132" y="25" type="curve"/>
    </contour>
    <contour>
      <point x="247" y="453" type="move" name="top"/>
    </contour>
  </outline>
</glyph>
<glyph name="j" format="1">
  <advance width="242"/>
  <unicode hex="006A"/>
  <outline>
    <contour>
      <point x="124" y="562" type="curve" smooth="yes"/>
      <point x="100" y="562"/>
      <point x="80" y="583"/>
      <point x="80" y="607" type="curve" smooth="yes"/>
      <point x="80" y="632"/>
      <point x="100" y="652"/>
      <point x="124" y="652" type="curve" smooth="yes"/>
      <point x="149" y="652"/>
      <point x="169" y="632"/>
      <point x="169" y="607" type="curve" smooth="yes"/>
      <point x="169" y="583"/>
      <point x="149" y="562"/>
    </contour>
    <contour>
      <point x="151" y="2" type="line" smooth="yes"/>
      <point x="151" y="-112"/>
      <point x="103" y="-182"/>
      <point x="-17" y="-216" type="curve"/>
      <point x="-21" y="-202" type="line"/>
      <point x="89" y="-146"/>
      <point x="100" y="-79"/>
      <point x="100" y="-1" type="curve" smooth="yes"/>
      <point x="100" y="415" type="line"/>
      <point x="109" y="401" type="line"/>
      <point x="84" y="402"/>
      <point x="59" y="403"/>
      <point x="30" y="402" type="curve"/>
      <point x="30" y="409"/>
      <point x="31" y="415"/>
      <point x="33" y="422" type="curve"/>
      <point x="70" y="436"/>
      <point x="110" y="449"/>
      <point x="151" y="459" type="curve"/>
    </contour>
  </outline>
</glyph>
<glyph name="k" format="1">
  <advance width="506"/>
  <unicode hex="006B"/>
  <outline>
    <contour>
      <point x="151" y="21" type="line"/>
      <point x="143" y="43" type="line"/>
      <point x="172" y="30"/>
      <point x="194" y="25"/>
      <point x="222" y="23" type="curve"/>
      <point x="222" y="15"/>
      <point x="221" y="6"/>
      <point x="219" y="0" type="curve"/>
      <point x="33" y="0" type="line"/>
      <point x="32" y="7"/>
      <point x="33" y="17"/>
      <point x="34" y="23" type="curve"/>
      <point x="85" y="28"/>
      <point x="101" y="38"/>
      <point x="101" y="69" type="curve" smooth="yes"/>
      <point x="101" y="671" type="line"/>
      <point x="109" y="656" type="line"/>
      <point x="84" y="658"/>
      <point x="59" y="658"/>
      <point x="30" y="657" type="curve"/>
      <point x="30" y="665"/>
      <point x="31" y="671"/>
      <point x="33" y="677" type="curve"/>
      <point x="71" y="694"/>
      <point x="110" y="706"/>
      <point x="151" y="714" type="curve"/>
    </contour>
    <contour>
      <point x="481" y="429" type="curve"/>
      <point x="438" y="429"/>
      <point x="410" y="417"/>
      <point x="385" y="393" type="curve" smooth="yes"/>
      <point x="140" y="164" type="line"/>
      <point x="110" y="177" type="line"/>
      <point x="362" y="418" type="line"/>
      <point x="370" y="408" type="line"/>
      <point x="343" y="414"/>
      <point x="317" y="423"/>
      <point x="293" y="435" type="curve"/>
      <point x="293" y="441"/>
      <point x="294" y="449"/>
      <point x="296" y="453" type="curve"/>
      <point x="484" y="453" type="line"/>
      <point x="484" y="445"/>
      <point x="483" y="436"/>
    </contour>
    <contour>
      <point x="500" y="23" type="curve"/>
      <point x="500" y="16"/>
      <point x="499" y="7"/>
      <point x="496" y="0" type="curve"/>
      <point x="398" y="0" type="line"/>
      <point x="231" y="217" type="line" smooth="yes"/>
      <point x="219" y="233"/>
      <point x="211" y="237"/>
      <point x="193" y="236" type="curve"/>
      <point x="225" y="268" type="line"/>
      <point x="248" y="267"/>
      <point x="261" y="259"/>
      <point x="277" y="238" type="curve" smooth="yes"/>
      <point x="399" y="81" type="line" smooth="yes"/>
      <point x="433" y="38"/>
      <point x="456" y="26"/>
    </contour>
    <contour>
      <point x="281" y="0" type="move" name="bottom"/>
    </contour>
  </outline>
</glyph>
<glyph name="l" format="1">
  <advance width="259"/>
  <unicode hex="006C"/>
  <outline>
    <contour>
      <point x="131" y="687" type="move" name="top"/>
    </contour>
    <contour>
      <point x="198" y="700" type="move" name="commaaccent"/>
    </contour>
    <contour>
      <point x="131" y="0" type="move" name="bottom"/>
    </contour>
    <contour>
      <point x="151" y="21" type="line"/>
      <point x="143" y="43" type="line"/>
      <point x="172" y="30"/>
      <point x="194" y="25"/>
      <point x="222" y="23" type="curve"/>
      <point x="222" y="15"/>
      <point x="221" y="6"/>
      <point x="219" y="0" type="curve"/>
      <point x="33" y="0" type="line"/>
      <point x="32" y="7"/>
      <point x="33" y="17"/>
      <point x="34" y="23" type="curve"/>
      <point x="85" y="28"/>
      <point x="101" y="38"/>
      <point x="101" y="69" type="curve" smooth="yes"/>
      <point x="101" y="671" type="line"/>
      <point x="109" y="656" type="line"/>
      <point x="84" y="658"/>
      <point x="59" y="658"/>
      <point x="30" y="657" type="curve"/>
      <point x="30" y="665"/>
      <point x="31" y="671"/>
      <point x="33" y="677" type="curve"/>
      <point x="71" y="694"/>
      <point x="110" y="706"/>
      <point x="151" y="714" type="curve"/>
    </contour>
  </outline>
</glyph>
<glyph name="m" format="1">
  <advance width="813"/>
  <unicode hex="006D"/>
  <outline>
    <contour>
      <point x="151" y="344" type="curve" smooth="yes"/>
      <point x="151" y="21" type="line"/>
      <point x="143" y="43" type="line"/>
      <point x="172" y="30"/>
      <point x="194" y="25"/>
      <point x="222" y="23" type="curve"/>
      <point x="222" y="15"/>
      <point x="221" y="6"/>
      <point x="219" y="0" type="curve"/>
      <point x="33" y="0" type="line"/>
      <point x="32" y="7"/>
      <point x="33" y="17"/>
      <point x="34" y="23" type="curve"/>
      <point x="85" y="28"/>
      <point x="101" y="38"/>
      <point x="101" y="69" type="curve" smooth="yes"/>
      <point x="101" y="417" type="line"/>
      <point x="109" y="403" type="line"/>
      <point x="84" y="404"/>
      <point x="59" y="405"/>
      <point x="30" y="404" type="curve"/>
      <point x="30" y="411"/>
      <point x="31" y="417"/>
      <point x="33" y="423" type="curve"/>
      <point x="71" y="438"/>
      <point x="103" y="450"/>
      <point x="144" y="459" type="curve"/>
      <point x="149" y="426"/>
      <point x="151" y="387"/>
    </contour>
    <contour>
      <point x="434" y="318" type="curve" smooth="yes"/>
      <point x="434" y="21" type="line"/>
      <point x="426" y="43" type="line"/>
      <point x="456" y="30"/>
      <point x="477" y="25"/>
      <point x="505" y="23" type="curve"/>
      <point x="505" y="15"/>
      <point x="504" y="6"/>
      <point x="503" y="0" type="curve"/>
      <point x="317" y="0" type="line"/>
      <point x="316" y="7"/>
      <point x="317" y="17"/>
      <point x="318" y="23" type="curve"/>
      <point x="369" y="28"/>
      <point x="384" y="38"/>
      <point x="384" y="69" type="curve" smooth="yes"/>
      <point x="384" y="316" type="line" smooth="yes"/>
      <point x="384" y="387"/>
      <point x="348" y="423"/>
      <point x="291" y="423" type="curve" smooth="yes"/>
      <point x="224" y="423"/>
      <point x="177" y="382"/>
      <point x="149" y="313" type="curve"/>
      <point x="138" y="329" type="line"/>
      <point x="165" y="406"/>
      <point x="223" y="465"/>
      <point x="305" y="465" type="curve" smooth="yes"/>
      <point x="375" y="465"/>
      <point x="434" y="419"/>
    </contour>
    <contour>
      <point x="718" y="318" type="curve" smooth="yes"/>
      <point x="718" y="21" type="line"/>
      <point x="710" y="43" type="line"/>
      <point x="740" y="30"/>
      <point x="761" y="25"/>
      <point x="789" y="23" type="curve"/>
      <point x="789" y="15"/>
      <point x="788" y="6"/>
      <point x="787" y="0" type="curve"/>
      <point x="601" y="0" type="line"/>
      <point x="600" y="7"/>
      <point x="601" y="17"/>
      <point x="602" y="23" type="curve"/>
      <point x="653" y="28"/>
      <point x="668" y="38"/>
      <point x="668" y="69" type="curve" smooth="yes"/>
      <point x="668" y="316" type="line" smooth="yes"/>
      <point x="668" y="387"/>
      <point x="632" y="423"/>
      <point x="575" y="423" type="curve" smooth="yes"/>
      <point x="508" y="423"/>
      <point x="461" y="382"/>
      <point x="433" y="313" type="curve"/>
      <point x="422" y="329" type="line"/>
      <point x="449" y="406"/>
      <point x="507" y="465"/>
      <point x="589" y="465" type="curve" smooth="yes"/>
      <point x="659" y="465"/>
      <point x="718" y="419"/>
    </contour>
  </outline>
</glyph>
<glyph name="n" format="1">
  <advance width="530"/>
  <unicode hex="006E"/>
  <outline>
    <contour>
      <point x="151" y="344" type="curve" smooth="yes"/>
      <point x="151" y="21" type="line"/>
      <point x="143" y="43" type="line"/>
      <point x="172" y="30"/>
      <point x="194" y="25"/>
      <point x="222" y="23" type="curve"/>
      <point x="222" y="15"/>
      <point x="221" y="6"/>
      <point x="219" y="0" type="curve"/>
      <point x="33" y="0" type="line"/>
      <point x="32" y="7"/>
      <point x="33" y="17"/>
      <point x="34" y="23" type="curve"/>
      <point x="85" y="28"/>
      <point x="101" y="38"/>
      <point x="101" y="69" type="curve" smooth="yes"/>
      <point x="101" y="417" type="line"/>
      <point x="109" y="403" type="line"/>
      <point x="84" y="404"/>
      <point x="59" y="405"/>
      <point x="30" y="404" type="curve"/>
      <point x="30" y="411"/>
      <point x="31" y="417"/>
      <point x="33" y="423" type="curve"/>
      <point x="71" y="438"/>
      <point x="103" y="450"/>
      <point x="144" y="459" type="curve"/>
      <point x="149" y="426"/>
      <point x="151" y="387"/>
    </contour>
    <contour>
      <point x="434" y="318" type="curve" smooth="yes"/>
      <point x="434" y="21" type="line"/>
      <point x="426" y="43" type="line"/>
      <point x="456" y="30"/>
      <point x="477" y="25"/>
      <point x="505" y="23" type="curve"/>
      <point x="505" y="15"/>
      <point x="504" y="6"/>
      <point x="503" y="0" type="curve"/>
      <point x="317" y="0" type="line"/>
      <point x="316" y="7"/>
      <point x="317" y="17"/>
      <point x="318" y="23" type="curve"/>
      <point x="369" y="28"/>
      <point x="384" y="38"/>
      <point x="384" y="69" type="curve" smooth="yes"/>
      <point x="384" y="316" type="line" smooth="yes"/>
      <point x="384" y="387"/>
      <point x="348" y="423"/>
      <point x="291" y="423" type="curve" smooth="yes"/>
      <point x="224" y="423"/>
      <point x="177" y="382"/>
      <point x="149" y="313" type="curve"/>
      <point x="138" y="329" type="line"/>
      <point x="165" y="406"/>
      <point x="223" y="465"/>
      <point x="305" y="465" type="curve" smooth="yes"/>
      <point x="375" y="465"/>
      <point x="434" y="419"/>
    </contour>
    <contour>
      <point x="277" y="454" type="move" name="top"/>
    </contour>
    <contour>
      <point x="260" y="0" type="move" name="bottom"/>
    </contour>
  </outline>
</glyph>
<glyph name="o" format="1">
  <advance width="499"/>
  <unicode hex="006F"/>
  <outline>
    <contour>
      <point x="259" y="453" type="move" name="top"/>
    </contour>
    <contour>
      <point x="451" y="226" type="curve" smooth="yes"/>
      <point x="451" y="90"/>
      <point x="372" y="-12"/>
      <point x="249" y="-12" type="curve" smooth="yes"/>
      <point x="115" y="-12"/>
      <point x="47" y="90"/>
      <point x="47" y="226" type="curve" smooth="yes"/>
      <point x="47" y="364"/>
      <point x="126" y="465"/>
      <point x="249" y="465" type="curve" smooth="yes"/>
      <point x="377" y="465"/>
      <point x="451" y="365"/>
    </contour>
    <contour>
      <point x="100" y="226" type="curve" smooth="yes"/>
      <point x="103" y="105"/>
      <point x="153" y="22"/>
      <point x="253" y="22" type="curve" smooth="yes"/>
      <point x="353" y="22"/>
      <point x="399" y="105"/>
      <point x="397" y="226" type="curve" smooth="yes"/>
      <point x="395" y="348"/>
      <point x="345" y="435"/>
      <point x="245" y="435" type="curve" smooth="yes"/>
      <point x="145" y="435"/>
      <point x="99" y="348"/>
    </contour>
  </outline>
</glyph>
<glyph name="p" format="1">
  <advance width="514"/>
  <unicode hex="0070"/>
  <outline>
    <contour>
      <point x="151" y="344" type="curve" smooth="yes"/>
      <point x="151" y="-202" type="line"/>
      <point x="144" y="-172" type="line"/>
      <point x="182" y="-189"/>
      <point x="210" y="-195"/>
      <point x="247" y="-198" type="curve"/>
      <point x="247" y="-206"/>
      <point x="247" y="-215"/>
      <point x="245" y="-221" type="curve"/>
      <point x="31" y="-221" type="line"/>
      <point x="30" y="-214"/>
      <point x="31" y="-204"/>
      <point x="34" y="-198" type="curve"/>
      <point x="85" y="-192"/>
      <point x="100" y="-182"/>
      <point x="100" y="-151" type="curve" smooth="yes"/>
      <point x="100" y="417" type="line"/>
      <point x="109" y="403" type="line"/>
      <point x="83" y="404"/>
      <point x="58" y="405"/>
      <point x="30" y="404" type="curve"/>
      <point x="30" y="411"/>
      <point x="31" y="417"/>
      <point x="33" y="423" type="curve"/>
      <point x="71" y="438"/>
      <point x="103" y="450"/>
      <point x="143" y="458" type="curve"/>
      <point x="149" y="426"/>
      <point x="151" y="387"/>
    </contour>
    <contour>
      <point x="464" y="236" type="curve" smooth="yes"/>
      <point x="464" y="73"/>
      <point x="346" y="-12"/>
      <point x="228" y="-12" type="curve" smooth="yes"/>
      <point x="187" y="-12"/>
      <point x="150" y="-4"/>
      <point x="109" y="19" type="curve"/>
      <point x="114" y="63" type="line"/>
      <point x="153" y="39"/>
      <point x="193" y="27"/>
      <point x="238" y="27" type="curve" smooth="yes"/>
      <point x="323" y="27"/>
      <point x="407" y="96"/>
      <point x="407" y="236" type="curve" smooth="yes"/>
      <point x="407" y="375"/>
      <point x="342" y="427"/>
      <point x="279" y="427" type="curve" smooth="yes"/>
      <point x="216" y="427"/>
      <point x="156" y="383"/>
      <point x="144" y="275" type="curve"/>
      <point x="134" y="296" type="line"/>
      <point x="143" y="412"/>
      <point x="206" y="465"/>
      <point x="282" y="465" type="curve" smooth="yes"/>
      <point x="367" y="465"/>
      <point x="464" y="396"/>
    </contour>
  </outline>
</glyph>
<glyph name="q" format="1">
  <advance width="497"/>
  <unicode hex="0071"/>
  <outline>
    <contour>
      <point x="384" y="402" type="line"/>
      <point x="357" y="414"/>
      <point x="324" y="426"/>
      <point x="283" y="426" type="curve" smooth="yes"/>
      <point x="173" y="426"/>
      <point x="99" y="368"/>
      <point x="99" y="230" type="curve" smooth="yes"/>
      <point x="99" y="91"/>
      <point x="156" y="29"/>
      <point x="245" y="29" type="curve" smooth="yes"/>
      <point x="299" y="29"/>
      <point x="338" y="48"/>
      <point x="372" y="88" type="curve"/>
      <point x="375" y="63" type="line"/>
      <point x="347" y="23"/>
      <point x="301" y="-12"/>
      <point x="229" y="-12" type="curve" smooth="yes"/>
      <point x="129" y="-12"/>
      <point x="47" y="67"/>
      <point x="47" y="216" type="curve" smooth="yes"/>
      <point x="47" y="382"/>
      <point x="170" y="465"/>
      <point x="303" y="465" type="curve" smooth="yes"/>
      <point x="341" y="465"/>
      <point x="370" y="456"/>
      <point x="399" y="441" type="curve"/>
    </contour>
    <contour>
      <point x="357" y="418" type="line"/>
      <point x="363" y="418" type="line"/>
      <point x="371" y="442"/>
      <point x="386" y="461"/>
      <point x="401" y="472" type="curve"/>
      <point x="407" y="472" type="line"/>
      <point x="407" y="-200" type="line"/>
      <point x="398" y="-177" type="line"/>
      <point x="428" y="-191"/>
      <point x="448" y="-196"/>
      <point x="478" y="-198" type="curve"/>
      <point x="478" y="-206"/>
      <point x="477" y="-216"/>
      <point x="475" y="-221" type="curve"/>
      <point x="261" y="-221" type="line"/>
      <point x="260" y="-215"/>
      <point x="259" y="-205"/>
      <point x="261" y="-198" type="curve"/>
      <point x="336" y="-192"/>
      <point x="357" y="-176"/>
      <point x="357" y="-142" type="curve" smooth="yes"/>
    </contour>
  </outline>
</glyph>
<glyph name="s" format="1">
  <advance width="416"/>
  <unicode hex="0073"/>
  <outline>
    <contour>
      <point x="231" y="453" type="move" name="top"/>
    </contour>
    <contour>
      <point x="202" y="0" type="move" name="bottom"/>
    </contour>
    <contour>
      <point x="319" y="103" type="curve" smooth="yes"/>
      <point x="319" y="207"/>
      <point x="74" y="196"/>
      <point x="74" y="341" type="curve" smooth="yes"/>
      <point x="74" y="428"/>
      <point x="148" y="465"/>
      <point x="225" y="465" type="curve" smooth="yes"/>
      <point x="276" y="465"/>
      <point x="305" y="457"/>
      <point x="339" y="446" type="curve"/>
      <point x="341" y="408"/>
      <point x="339" y="371"/>
      <point x="334" y="338" type="curve"/>
      <point x="330" y="338"/>
      <point x="321" y="339"/>
      <point x="318" y="340" type="curve"/>
      <point x="326" y="422"/>
      <point x="274" y="436"/>
      <point x="221" y="436" type="curve" smooth="yes"/>
      <point x="161" y="436"/>
      <point x="120" y="402"/>
      <point x="120" y="351" type="curve" smooth="yes"/>
      <point x="120" y="240"/>
      <point x="369" y="252"/>
      <point x="369" y="117" type="curve" smooth="yes"/>
      <point x="369" y="30"/>
      <point x="285" y="-12"/>
      <point x="200" y="-12" type="curve" smooth="yes"/>
      <point x="142" y="-12"/>
      <point x="100" y="-3"/>
      <point x="61" y="10" type="curve"/>
      <point x="57" y="52"/>
      <point x="60" y="100"/>
      <point x="66" y="125" type="curve"/>
      <point x="70" y="125"/>
      <point x="76" y="125"/>
      <point x="81" y="124" type="curve"/>
      <point x="74" y="39"/>
      <point x="140" y="18"/>
      <point x="202" y="18" type="curve" smooth="yes"/>
      <point x="274" y="18"/>
      <point x="319" y="52"/>
    </contour>
  </outline>
</glyph>
<glyph name="t" format="1">
  <advance width="334"/>
  <unicode hex="0074"/>
  <outline>
    <contour>
      <point x="192" y="0" type="move" name="bottom"/>
    </contour>
    <contour>
      <point x="198" y="601" type="move" name="commaaccent"/>
    </contour>
    <contour>
      <point x="147" y="558" type="line"/>
      <point x="146" y="110" type="line"/>
      <point x="146" y="53"/>
      <point x="174" y="33"/>
      <point x="211" y="33" type="curve" smooth="yes"/>
      <point x="249" y="33"/>
      <point x="283" y="49"/>
      <point x="311" y="74" type="curve"/>
      <point x="318" y="66" type="line"/>
      <point x="290" y="20"/>
      <point x="247" y="-12"/>
      <point x="200" y="-12" type="curve" smooth="yes"/>
      <point x="147" y="-12"/>
      <point x="96" y="18"/>
      <point x="96" y="98" type="curve" smooth="yes"/>
      <point x="96" y="427" type="line"/>
      <point x="121" y="410" type="line"/>
      <point x="92" y="417"/>
      <point x="60" y="419"/>
      <point x="30" y="419" type="curve"/>
      <point x="30" y="425"/>
      <point x="31" y="429"/>
      <point x="31" y="432" type="curve"/>
      <point x="52" y="439"/>
      <point x="73" y="444"/>
      <point x="96" y="446" type="curve"/>
      <point x="136" y="561" type="line"/>
    </contour>
    <contour>
      <point x="133" y="447" type="line"/>
      <point x="191" y="447"/>
      <point x="243" y="448"/>
      <point x="293" y="452" type="curve"/>
      <point x="293" y="434"/>
      <point x="292" y="428"/>
      <point x="286" y="415" type="curve"/>
      <point x="133" y="415" type="line"/>
    </contour>
  </outline>
</glyph>
<glyph name="u" format="1">
  <advance width="519"/>
  <unicode hex="0075"/>
  <outline>
    <contour>
      <point x="434" y="11" type="move" name="ogonek"/>
    </contour>
    <contour>
      <point x="246" y="453" type="move" name="top"/>
    </contour>
    <contour>
      <point x="413" y="377" type="curve" smooth="yes"/>
      <point x="413" y="37" type="line"/>
      <point x="405" y="51" type="line"/>
      <point x="430" y="50"/>
      <point x="451" y="49"/>
      <point x="480" y="50" type="curve"/>
      <point x="481" y="44"/>
      <point x="482" y="37"/>
      <point x="481" y="30" type="curve"/>
      <point x="456" y="17"/>
      <point x="411" y="1"/>
      <point x="371" y="-5" type="curve"/>
      <point x="365" y="27"/>
      <point x="363" y="67"/>
      <point x="363" y="109" type="curve"/>
      <point x="363" y="375" type="line" smooth="yes"/>
      <point x="363" y="399"/>
      <point x="356" y="422"/>
      <point x="341" y="435" type="curve"/>
      <point x="342" y="439"/>
      <point x="343" y="443"/>
      <point x="344" y="445" type="curve"/>
      <point x="366" y="455"/>
      <point x="391" y="459"/>
      <point x="417" y="459" type="curve"/>
      <point x="414" y="432"/>
      <point x="413" y="407"/>
    </contour>
    <contour>
      <point x="130" y="144" type="line" smooth="yes"/>
      <point x="130" y="74"/>
      <point x="166" y="31"/>
      <point x="223" y="31" type="curve" smooth="yes"/>
      <point x="275" y="31"/>
      <point x="329" y="71"/>
      <point x="365" y="141" type="curve"/>
      <point x="377" y="124" type="line"/>
      <point x="327" y="31"/>
      <point x="276" y="-12"/>
      <point x="209" y="-12" type="curve" smooth="yes"/>
      <point x="142" y="-12"/>
      <point x="80" y="38"/>
      <point x="80" y="142" type="curve" smooth="yes"/>
      <point x="80" y="415" type="line"/>
      <point x="89" y="402" type="line"/>
      <point x="68" y="404"/>
      <point x="49" y="404"/>
      <point x="20" y="403" type="curve"/>
      <point x="20" y="410"/>
      <point x="21" y="416"/>
      <point x="23" y="422" type="curve"/>
      <point x="60" y="439"/>
      <point x="89" y="452"/>
      <point x="130" y="459" type="curve"/>
    </contour>
  </outline>
</glyph>
<glyph name="x" format="1">
  <advance width="504"/>
  <unicode hex="0078"/>
  <outline>
    <contour>
      <point x="199" y="430" type="curve"/>
      <point x="170" y="428"/>
      <point x="151" y="427"/>
      <point x="122" y="409" type="curve"/>
      <point x="137" y="424" type="line"/>
      <point x="391" y="86" type="line" smooth="yes"/>
      <point x="425" y="40"/>
      <point x="446" y="28"/>
      <point x="487" y="23" type="curve"/>
      <point x="489" y="16"/>
      <point x="490" y="8"/>
      <point x="489" y="0" type="curve"/>
      <point x="315" y="0" type="line"/>
      <point x="313" y="7"/>
      <point x="312" y="15"/>
      <point x="312" y="23" type="curve"/>
      <point x="347" y="25"/>
      <point x="364" y="30"/>
      <point x="387" y="43" type="curve"/>
      <point x="383" y="20" type="line"/>
      <point x="120" y="368" type="line" smooth="yes"/>
      <point x="94" y="403"/>
      <point x="65" y="423"/>
      <point x="17" y="430" type="curve"/>
      <point x="15" y="437"/>
      <point x="14" y="445"/>
      <point x="15" y="453" type="curve"/>
      <point x="196" y="453" type="line"/>
      <point x="198" y="446"/>
      <point x="199" y="438"/>
    </contour>
    <contour>
      <point x="486" y="430" type="curve"/>
      <point x="442" y="426"/>
      <point x="424" y="410"/>
      <point x="398" y="379" type="curve" smooth="yes"/>
      <point x="273" y="227" type="line"/>
      <point x="256" y="250" type="line"/>
      <point x="396" y="429" type="line"/>
      <point x="396" y="413" type="line"/>
      <point x="381" y="424"/>
      <point x="360" y="428"/>
      <point x="328" y="430" type="curve"/>
      <point x="328" y="438"/>
      <point x="329" y="446"/>
      <point x="331" y="453" type="curve"/>
      <point x="489" y="453" type="line"/>
      <point x="490" y="445"/>
      <point x="489" y="437"/>
    </contour>
    <contour>
      <point x="253" y="209" type="line"/>
      <point x="109" y="25" type="line"/>
      <point x="112" y="37" type="line"/>
      <point x="133" y="27"/>
      <point x="150" y="25"/>
      <point x="176" y="23" type="curve"/>
      <point x="176" y="15"/>
      <point x="175" y="7"/>
      <point x="174" y="0" type="curve"/>
      <point x="15" y="0" type="line"/>
      <point x="15" y="8"/>
      <point x="16" y="16"/>
      <point x="17" y="23" type="curve"/>
      <point x="62" y="27"/>
      <point x="80" y="43"/>
      <point x="106" y="73" type="curve" smooth="yes"/>
      <point x="235" y="229" type="line"/>
    </contour>
  </outline>
</glyph>
<glyph name="z" format="1">
  <advance width="442"/>
  <unicode hex="007A"/>
  <outline>
    <contour>
      <point x="230" y="453" type="move" name="top"/>
    </contour>
    <contour>
      <point x="101" y="11" type="line"/>
      <point x="99" y="30" type="line"/>
      <point x="278" y="30" type="line" smooth="yes"/>
      <point x="350" y="30"/>
      <point x="372" y="57"/>
      <point x="383" y="130" type="curve"/>
      <point x="388" y="130"/>
      <point x="394" y="129"/>
      <point x="400" y="126" type="curve"/>
      <point x="400" y="85"/>
      <point x="396" y="43"/>
      <point x="389" y="0" type="curve"/>
      <point x="46" y="0" type="line"/>
      <point x="45" y="9"/>
      <point x="47" y="19"/>
      <point x="50" y="28" type="curve"/>
      <point x="346" y="437" type="line"/>
      <point x="357" y="424" type="line"/>
      <point x="184" y="424" type="line" smooth="yes"/>
      <point x="112" y="424"/>
      <point x="90" y="395"/>
      <point x="79" y="323" type="curve"/>
      <point x="74" y="323"/>
      <point x="68" y="324"/>
      <point x="62" y="328" type="curve"/>
      <point x="62" y="368"/>
      <point x="66" y="411"/>
      <point x="73" y="453" type="curve"/>
      <point x="398" y="453" type="line"/>
      <point x="400" y="445"/>
      <point x="401" y="432"/>
      <point x="395" y="423" type="curve" smooth="yes"/>
    </contour>
  </outline>
</glyph>
<glyph name="braceleft" format="1">
  <advance width="371"/>
  <unicode hex="007B"/>
  <outline>
    <contour>
      <point x="95" y="308" type="line"/>
      <point x="154" y="303"/>
      <point x="165" y="272"/>
      <point x="165" y="231" type="curve" smooth="yes"/>
      <point x="165" y="176"/>
      <point x="125" y="114"/>
      <point x="125" y="31" type="curve" smooth="yes"/>
      <point x="125" y="-73"/>
      <point x="202" y="-128"/>
      <point x="341" y="-128" type="curve"/>
      <point x="341" y="-108" type="line"/>
      <point x="199" y="-107"/>
      <point x="173" y="-37"/>
      <point x="173" y="25" type="curve" smooth="yes"/>
      <point x="173" y="108"/>
      <point x="212" y="155"/>
      <point x="212" y="228" type="curve" smooth="yes"/>
      <point x="212" y="279"/>
      <point x="184" y="315"/>
      <point x="138" y="327" type="curve"/>
      <point x="184" y="339"/>
      <point x="212" y="375"/>
      <point x="212" y="426" type="curve" smooth="yes"/>
      <point x="212" y="499"/>
      <point x="173" y="546"/>
      <point x="173" y="629" type="curve" smooth="yes"/>
      <point x="173" y="691"/>
      <point x="199" y="761"/>
      <point x="341" y="762" type="curve"/>
      <point x="341" y="782" type="line"/>
      <point x="202" y="782"/>
      <point x="125" y="727"/>
      <point x="125" y="623" type="curve" smooth="yes"/>
      <point x="125" y="540"/>
      <point x="165" y="478"/>
      <point x="165" y="423" type="curve" smooth="yes"/>
      <point x="165" y="382"/>
      <point x="154" y="351"/>
      <point x="95" y="346" type="curve"/>
    </contour>
  </outline>
</glyph>
<glyph name="bar" format="1">
  <advance width="328"/>
  <unicode hex="007C"/>
  <outline>
    <contour>
      <point x="145" y="675" type="line"/>
      <point x="145" y="-5" type="line"/>
      <point x="189" y="-5" type="line"/>
      <point x="189" y="675" type="line"/>
    </contour>
  </outline>
</glyph>
<glyph name="braceright" format="1">
  <advance width="371"/>
  <unicode hex="007D"/>
  <outline>
    <contour>
      <point x="206" y="423" type="curve" smooth="yes"/>
      <point x="206" y="478"/>
      <point x="246" y="540"/>
      <point x="246" y="623" type="curve" smooth="yes"/>
      <point x="246" y="727"/>
      <point x="169" y="782"/>
      <point x="30" y="782" type="curve"/>
      <point x="30" y="762" type="line"/>
      <point x="172" y="761"/>
      <point x="198" y="691"/>
      <point x="198" y="629" type="curve" smooth="yes"/>
      <point x="198" y="546"/>
      <point x="159" y="499"/>
      <point x="159" y="426" type="curve" smooth="yes"/>
      <point x="159" y="375"/>
      <point x="187" y="339"/>
      <point x="233" y="327" type="curve"/>
      <point x="187" y="315"/>
      <point x="159" y="279"/>
      <point x="159" y="228" type="curve" smooth="yes"/>
      <point x="159" y="155"/>
      <point x="198" y="108"/>
      <point x="198" y="25" type="curve" smooth="yes"/>
      <point x="198" y="-37"/>
      <point x="172" y="-107"/>
      <point x="30" y="-108" type="curve"/>
      <point x="30" y="-128" type="line"/>
      <point x="169" y="-128"/>
      <point x="246" y="-73"/>
      <point x="246" y="31" type="curve" smooth="yes"/>
      <point x="246" y="114"/>
      <point x="206" y="176"/>
      <point x="206" y="231" type="curve" smooth="yes"/>
      <point x="206" y="272"/>
      <point x="217" y="303"/>
      <point x="276" y="308" type="curve"/>
      <point x="276" y="346" type="line"/>
      <point x="217" y="351"/>
      <point x="206" y="382"/>
    </contour>
  </outline>
</glyph>
<glyph name="asciitilde" format="1">
  <advance width="600"/>
  <unicode hex="007E"/>
  <outline>
    <contour>
      <point x="433" y="305" type="curve" smooth="yes"/>
      <point x="478" y="305"/>
      <point x="513" y="336"/>
      <point x="521" y="383" type="curve"/>
      <point x="550" y="383" type="line"/>
      <point x="539" y="309"/>
      <point x="489" y="261"/>
      <point x="417" y="261" type="curve" smooth="yes"/>
      <point x="321" y="261"/>
      <point x="237" y="344"/>
      <point x="167" y="344" type="curve" smooth="yes"/>
      <point x="122" y="344"/>
      <point x="87" y="313"/>
      <point x="79" y="266" type="curve"/>
      <point x="50" y="266" type="line"/>
      <point x="61" y="340"/>
      <point x="111" y="388"/>
      <point x="183" y="388" type="curve" smooth="yes"/>
      <point x="263" y="388"/>
      <point x="360" y="305"/>
    </contour>
  </outline>
</glyph>
<glyph name="cent" format="1">
  <advance width="423"/>
  <unicode hex="00A2"/>
  <outline>
    <contour>
      <point x="233" y="530" type="line"/>
      <point x="273" y="530" type="line"/>
      <point x="273" y="457" type="line"/>
      <point x="233" y="457" type="line"/>
    </contour>
    <contour>
      <point x="229" y="2" type="line"/>
      <point x="269" y="2" type="line"/>
      <point x="269" y="-77" type="line"/>
      <point x="229" y="-77" type="line"/>
    </contour>
    <contour>
      <point x="406" y="423" type="curve"/>
      <point x="406" y="400"/>
      <point x="403" y="354"/>
      <point x="398" y="325" type="curve"/>
      <point x="392" y="326"/>
      <point x="387" y="327"/>
      <point x="382" y="328" type="curve"/>
      <point x="384" y="394"/>
      <point x="331" y="433"/>
      <point x="263" y="433" type="curve" smooth="yes"/>
      <point x="165" y="433"/>
      <point x="100" y="349"/>
      <point x="100" y="221" type="curve" smooth="yes"/>
      <point x="100" y="109"/>
      <point x="160" y="23"/>
      <point x="254" y="23" type="curve" smooth="yes"/>
      <point x="314" y="23"/>
      <point x="353" y="38"/>
      <point x="400" y="68" type="curve"/>
      <point x="410" y="58" type="line"/>
      <point x="361" y="13"/>
      <point x="319" y="-12"/>
      <point x="246" y="-12" type="curve" smooth="yes"/>
      <point x="133" y="-12"/>
      <point x="46" y="81"/>
      <point x="46" y="219" type="curve" smooth="yes"/>
      <point x="46" y="366"/>
      <point x="136" y="465"/>
      <point x="269" y="465" type="curve" smooth="yes"/>
      <point x="320" y="465"/>
      <point x="373" y="450"/>
    </contour>
  </outline>
</glyph>
<glyph name="brokenbar" format="1">
  <advance width="334"/>
  <unicode hex="00A6"/>
  <outline>
    <contour>
      <point x="145" y="265" type="line"/>
      <point x="145" y="-5" type="line"/>
      <point x="189" y="-5" type="line"/>
      <point x="189" y="265" type="line"/>
    </contour>
    <contour>
      <point x="189" y="405" type="line"/>
      <point x="189" y="675" type="line"/>
      <point x="145" y="675" type="line"/>
      <point x="145" y="405" type="line"/>
    </contour>
  </outline>
</glyph>
<glyph name="section" format="1">
  <advance width="422"/>
  <unicode hex="00A7"/>
  <outline>
    <contour>
      <point x="224" y="374" type="line"/>
      <point x="144" y="356"/>
      <point x="88" y="318"/>
      <point x="88" y="247" type="curve" smooth="yes"/>
      <point x="88" y="197"/>
      <point x="109" y="175"/>
      <point x="202" y="109" type="curve" smooth="yes"/>
      <point x="300" y="39"/>
      <point x="328" y="7"/>
      <point x="328" y="-41" type="curve" smooth="yes"/>
      <point x="328" y="-103"/>
      <point x="270" y="-145"/>
      <point x="204" y="-145" type="curve" smooth="yes"/>
      <point x="164" y="-145"/>
      <point x="129" y="-134"/>
      <point x="94" y="-115" type="curve"/>
      <point x="92" y="-88"/>
      <point x="94" y="-53"/>
      <point x="99" y="-28" type="curve"/>
      <point x="103" y="-28"/>
      <point x="109" y="-28"/>
      <point x="114" y="-29" type="curve"/>
      <point x="114" y="-79"/>
      <point x="157" y="-112"/>
      <point x="206" y="-113" type="curve" smooth="yes"/>
      <point x="256" y="-114"/>
      <point x="279" y="-87"/>
      <point x="279" y="-51" type="curve" smooth="yes"/>
      <point x="279" y="4"/>
      <point x="219" y="33"/>
      <point x="140" y="94" type="curve" smooth="yes"/>
      <point x="79" y="141"/>
      <point x="40" y="172"/>
      <point x="40" y="240" type="curve" smooth="yes"/>
      <point x="40" y="326"/>
      <point x="120" y="372"/>
      <point x="201" y="389" type="curve"/>
    </contour>
    <contour>
      <point x="323" y="583" type="curve"/>
      <point x="325" y="556"/>
      <point x="323" y="521"/>
      <point x="318" y="496" type="curve"/>
      <point x="314" y="496"/>
      <point x="308" y="496"/>
      <point x="303" y="497" type="curve"/>
      <point x="303" y="547"/>
      <point x="262" y="580"/>
      <point x="216" y="581" type="curve" smooth="yes"/>
      <point x="166" y="582"/>
      <point x="143" y="555"/>
      <point x="143" y="519" type="curve" smooth="yes"/>
      <point x="143" y="464"/>
      <point x="203" y="435"/>
      <point x="282" y="374" type="curve" smooth="yes"/>
      <point x="343" y="327"/>
      <point x="382" y="296"/>
      <point x="382" y="228" type="curve" smooth="yes"/>
      <point x="382" y="142"/>
      <point x="302" y="96"/>
      <point x="221" y="79" type="curve"/>
      <point x="198" y="94" type="line"/>
      <point x="278" y="112"/>
      <point x="334" y="150"/>
      <point x="334" y="221" type="curve" smooth="yes"/>
      <point x="334" y="271"/>
      <point x="313" y="293"/>
      <point x="220" y="359" type="curve" smooth="yes"/>
      <point x="122" y="429"/>
      <point x="94" y="461"/>
      <point x="94" y="509" type="curve" smooth="yes"/>
      <point x="94" y="571"/>
      <point x="152" y="613"/>
      <point x="218" y="613" type="curve" smooth="yes"/>
      <point x="258" y="613"/>
      <point x="288" y="602"/>
    </contour>
  </outline>
</glyph>
<glyph name="copyright" format="1">
  <advance width="758"/>
  <unicode hex="00A9"/>
  <outline>
    <contour>
      <point x="89" y="315" type="curve" smooth="yes"/>
      <point x="89" y="126"/>
      <point x="220" y="18"/>
      <point x="379" y="18" type="curve" smooth="yes"/>
      <point x="538" y="18"/>
      <point x="669" y="126"/>
      <point x="669" y="315" type="curve" smooth="yes"/>
      <point x="669" y="504"/>
      <point x="538" y="612"/>
      <point x="379" y="612" type="curve" smooth="yes"/>
      <point x="220" y="612"/>
      <point x="89" y="504"/>
    </contour>
    <contour>
      <point x="708" y="315" type="curve" smooth="yes"/>
      <point x="708" y="113"/>
      <point x="566" y="-12"/>
      <point x="379" y="-12" type="curve" smooth="yes"/>
      <point x="192" y="-12"/>
      <point x="50" y="113"/>
      <point x="50" y="315" type="curve" smooth="yes"/>
      <point x="50" y="517"/>
      <point x="192" y="642"/>
      <point x="379" y="642" type="curve" smooth="yes"/>
      <point x="566" y="642"/>
      <point x="708" y="517"/>
    </contour>
    <contour>
      <point x="501" y="512" type="curve"/>
      <point x="501" y="492"/>
      <point x="497" y="458"/>
      <point x="491" y="437" type="curve"/>
      <point x="487" y="435"/>
      <point x="481" y="435"/>
      <point x="476" y="435" type="curve"/>
      <point x="476" y="482"/>
      <point x="441" y="503"/>
      <point x="400" y="503" type="curve" smooth="yes"/>
      <point x="301" y="503"/>
      <point x="251" y="430"/>
      <point x="251" y="317" type="curve" smooth="yes"/>
      <point x="251" y="209"/>
      <point x="304" y="142"/>
      <point x="387" y="142" type="curve" smooth="yes"/>
      <point x="428" y="142"/>
      <point x="460" y="152"/>
      <point x="498" y="177" type="curve"/>
      <point x="512" y="165" type="line"/>
      <point x="479" y="131"/>
      <point x="438" y="109"/>
      <point x="381" y="109" type="curve" smooth="yes"/>
      <point x="280" y="109"/>
      <point x="205" y="189"/>
      <point x="205" y="317" type="curve" smooth="yes"/>
      <point x="205" y="443"/>
      <point x="285" y="533"/>
      <point x="399" y="533" type="curve" smooth="yes"/>
      <point x="438" y="533"/>
      <point x="476" y="523"/>
    </contour>
    <contour>
      <point x="313" y="599" type="move" name="top"/>
    </contour>
    <contour>
      <point x="266" y="0" type="move" name="bottom"/>
    </contour>
  </outline>
</glyph>
<glyph name="ordfeminine" format="1">
  <advance width="326"/>
  <unicode hex="00AA"/>
  <outline>
    <contour>
      <point x="218" y="428" type="line"/>
      <point x="144" y="431"/>
      <point x="72" y="417"/>
      <point x="72" y="351" type="curve" smooth="yes"/>
      <point x="72" y="326"/>
      <point x="89" y="302"/>
      <point x="130" y="302" type="curve" smooth="yes"/>
      <point x="167" y="302"/>
      <point x="198" y="314"/>
      <point x="229" y="348" type="curve"/>
      <point x="231" y="329" type="line"/>
      <point x="201" y="297"/>
      <point x="167" y="272"/>
      <point x="122" y="272" type="curve" smooth="yes"/>
      <point x="75" y="272"/>
      <point x="35" y="301"/>
      <point x="35" y="351" type="curve" smooth="yes"/>
      <point x="35" y="435"/>
      <point x="134" y="454"/>
      <point x="219" y="445" type="curve"/>
    </contour>
    <contour>
      <point x="251" y="517" type="curve" smooth="yes"/>
      <point x="251" y="340" type="line" smooth="yes"/>
      <point x="251" y="312"/>
      <point x="257" y="301"/>
      <point x="274" y="301" type="curve" smooth="yes"/>
      <point x="281" y="301"/>
      <point x="290" y="302"/>
      <point x="300" y="305" type="curve"/>
      <point x="302" y="300" type="line"/>
      <point x="292" y="285"/>
      <point x="274" y="272"/>
      <point x="257" y="272" type="curve" smooth="yes"/>
      <point x="233" y="272"/>
      <point x="216" y="290"/>
      <point x="216" y="324" type="curve"/>
      <point x="216" y="510" type="line" smooth="yes"/>
      <point x="216" y="552"/>
      <point x="201" y="575"/>
      <point x="151" y="575" type="curve" smooth="yes"/>
      <point x="121" y="575"/>
      <point x="90" y="568"/>
      <point x="60" y="551" type="curve"/>
      <point x="56" y="561" type="line"/>
      <point x="86" y="592"/>
      <point x="123" y="606"/>
      <point x="161" y="606" type="curve" smooth="yes"/>
      <point x="219" y="606"/>
      <point x="251" y="573"/>
    </contour>
  </outline>
</glyph>
<glyph name="guillemotleft" format="1">
  <advance width="574"/>
  <unicode hex="00AB"/>
  <outline>
    <contour>
      <point x="124" y="331" type="line"/>
      <point x="278" y="155" type="line"/>
      <point x="306" y="170" type="line"/>
      <point x="178" y="331" type="line"/>
      <point x="306" y="492" type="line"/>
      <point x="278" y="506" type="line"/>
    </contour>
    <contour>
      <point x="263" y="331" type="line"/>
      <point x="417" y="155" type="line"/>
      <point x="444" y="170" type="line"/>
      <point x="317" y="331" type="line"/>
      <point x="444" y="492" type="line"/>
      <point x="417" y="506" type="line"/>
    </contour>
  </outline>
</glyph>
<glyph name="logicalnot" format="1">
  <advance width="562"/>
  <unicode hex="00AC"/>
  <outline>
    <contour>
      <point x="482" y="236" type="line"/>
      <point x="445" y="236" type="line"/>
      <point x="445" y="351" type="line"/>
      <point x="73" y="351" type="line"/>
      <point x="73" y="395" type="line"/>
      <point x="482" y="395" type="line"/>
    </contour>
  </outline>
</glyph>
<glyph name="registered" format="1">
  <advance width="746"/>
  <unicode hex="00AE"/>
  <outline>
    <contour>
      <point x="97" y="315" type="curve" smooth="yes"/>
      <point x="97" y="126"/>
      <point x="222" y="18"/>
      <point x="373" y="18" type="curve" smooth="yes"/>
      <point x="524" y="18"/>
      <point x="649" y="126"/>
      <point x="649" y="315" type="curve" smooth="yes"/>
      <point x="649" y="504"/>
      <point x="524" y="612"/>
      <point x="373" y="612" type="curve" smooth="yes"/>
      <point x="222" y="612"/>
      <point x="97" y="504"/>
    </contour>
    <contour>
      <point x="686" y="315" type="curve" smooth="yes"/>
      <point x="686" y="113"/>
      <point x="551" y="-12"/>
      <point x="373" y="-12" type="curve" smooth="yes"/>
      <point x="195" y="-12"/>
      <point x="60" y="113"/>
      <point x="60" y="315" type="curve" smooth="yes"/>
      <point x="60" y="517"/>
      <point x="195" y="642"/>
      <point x="373" y="642" type="curve" smooth="yes"/>
      <point x="551" y="642"/>
      <point x="686" y="517"/>
    </contour>
    <contour>
      <point x="504" y="410" type="curve" smooth="yes"/>
      <point x="504" y="353"/>
      <point x="456" y="296"/>
      <point x="371" y="296" type="curve" smooth="yes"/>
      <point x="292" y="296" type="line"/>
      <point x="290" y="301"/>
      <point x="289" y="316"/>
      <point x="289" y="323" type="curve"/>
      <point x="362" y="323" type="line" smooth="yes"/>
      <point x="434" y="323"/>
      <point x="466" y="359"/>
      <point x="466" y="410" type="curve" smooth="yes"/>
      <point x="466" y="463"/>
      <point x="436" y="498"/>
      <point x="362" y="498" type="curve" smooth="yes"/>
      <point x="298" y="498" type="line"/>
      <point x="306" y="511" type="line"/>
      <point x="306" y="143" type="line"/>
      <point x="300" y="160" type="line"/>
      <point x="324" y="150"/>
      <point x="347" y="145"/>
      <point x="372" y="144" type="curve"/>
      <point x="373" y="139"/>
      <point x="372" y="128"/>
      <point x="371" y="124" type="curve"/>
      <point x="230" y="124" type="line"/>
      <point x="229" y="129"/>
      <point x="230" y="141"/>
      <point x="232" y="144" type="curve"/>
      <point x="264" y="148"/>
      <point x="274" y="154"/>
      <point x="274" y="174" type="curve" smooth="yes"/>
      <point x="274" y="507" type="line"/>
      <point x="290" y="491" type="line"/>
      <point x="266" y="504"/>
      <point x="250" y="510"/>
      <point x="228" y="511" type="curve"/>
      <point x="228" y="515"/>
      <point x="228" y="522"/>
      <point x="230" y="525" type="curve"/>
      <point x="371" y="525" type="line" smooth="yes"/>
      <point x="456" y="525"/>
      <point x="504" y="469"/>
    </contour>
    <contour>
      <point x="382" y="270" type="line"/>
      <point x="374" y="283"/>
      <point x="366" y="296"/>
      <point x="341" y="296" type="curve"/>
      <point x="368" y="305" type="line"/>
      <point x="398" y="303"/>
      <point x="404" y="290"/>
      <point x="416" y="273" type="curve" smooth="yes"/>
      <point x="481" y="179" type="line" smooth="yes"/>
      <point x="502" y="149"/>
      <point x="519" y="143"/>
      <point x="545" y="143" type="curve"/>
      <point x="545" y="139"/>
      <point x="545" y="129"/>
      <point x="544" y="124" type="curve"/>
      <point x="479" y="124" type="line"/>
    </contour>
    <contour>
      <point x="396" y="523" type="move" name="top"/>
    </contour>
    <contour>
      <point x="401" y="124" type="move" name="bottom"/>
    </contour>
  </outline>
</glyph>
<glyph name="degree" format="1">
  <advance width="299"/>
  <unicode hex="00B0"/>
  <outline>
    <contour>
      <point x="149" y="393" type="curve" smooth="yes"/>
      <point x="216" y="393"/>
      <point x="269" y="435"/>
      <point x="269" y="515" type="curve" smooth="yes"/>
      <point x="269" y="595"/>
      <point x="216" y="638"/>
      <point x="149" y="638" type="curve" smooth="yes"/>
      <point x="82" y="638"/>
      <point x="30" y="595"/>
      <point x="30" y="515" type="curve" smooth="yes"/>
      <point x="30" y="435"/>
      <point x="82" y="393"/>
    </contour>
    <contour>
      <point x="149" y="612" type="curve" smooth="yes"/>
      <point x="187" y="612"/>
      <point x="220" y="586"/>
      <point x="220" y="516" type="curve" smooth="yes"/>
      <point x="220" y="446"/>
      <point x="187" y="419"/>
      <point x="149" y="419" type="curve" smooth="yes"/>
      <point x="111" y="419"/>
      <point x="79" y="446"/>
      <point x="79" y="516" type="curve" smooth="yes"/>
      <point x="79" y="586"/>
      <point x="111" y="612"/>
    </contour>
  </outline>
</glyph>
<glyph name="plusminus" format="1">
  <advance width="574"/>
  <unicode hex="00B1"/>
  <outline>
    <contour>
      <point x="485" y="127" type="line"/>
      <point x="485" y="87" type="line"/>
      <point x="45" y="87" type="line"/>
      <point x="45" y="127" type="line"/>
    </contour>
    <contour>
      <point x="485" y="392" type="line"/>
      <point x="285" y="392" type="line"/>
      <point x="285" y="552" type="line"/>
      <point x="245" y="552" type="line"/>
      <point x="245" y="392" type="line"/>
      <point x="45" y="392" type="line"/>
      <point x="45" y="352" type="line"/>
      <point x="245" y="352" type="line"/>
      <point x="245" y="192" type="line"/>
      <point x="285" y="192" type="line"/>
      <point x="285" y="352" type="line"/>
      <point x="485" y="352" type="line"/>
    </contour>
  </outline>
</glyph>
<glyph name="twosuperior" format="1">
  <advance width="266"/>
  <unicode hex="00B2"/>
  <outline>
    <contour>
      <point x="56" y="580" type="curve"/>
      <point x="53" y="565"/>
      <point x="51" y="540"/>
      <point x="51" y="524" type="curve"/>
      <point x="56" y="523"/>
      <point x="60" y="522"/>
      <point x="64" y="522" type="curve"/>
      <point x="74" y="558"/>
      <point x="103" y="573"/>
      <point x="131" y="573" type="curve" smooth="yes"/>
      <point x="164" y="573"/>
      <point x="187" y="549"/>
      <point x="187" y="513" type="curve" smooth="yes"/>
      <point x="187" y="472"/>
      <point x="169" y="443"/>
      <point x="40" y="309" type="curve"/>
      <point x="40" y="303"/>
      <point x="42" y="287"/>
      <point x="44" y="281" type="curve"/>
      <point x="218" y="281" type="line"/>
      <point x="222" y="304"/>
      <point x="223" y="342"/>
      <point x="223" y="364" type="curve"/>
      <point x="219" y="366"/>
      <point x="212" y="366"/>
      <point x="209" y="366" type="curve"/>
      <point x="203" y="328"/>
      <point x="193" y="313"/>
      <point x="155" y="313" type="curve" smooth="yes"/>
      <point x="56" y="313" type="line"/>
      <point x="65" y="307" type="line"/>
      <point x="195" y="431"/>
      <point x="226" y="462"/>
      <point x="226" y="517" type="curve" smooth="yes"/>
      <point x="226" y="572"/>
      <point x="182" y="605"/>
      <point x="132" y="605" type="curve" smooth="yes"/>
      <point x="106" y="605"/>
      <point x="78" y="597"/>
    </contour>
  </outline>
</glyph>
<glyph name="acute" format="1">
  <advance width="186"/>
  <unicode hex="00B4"/>
  <outline>
    <contour>
      <point x="16" y="454" type="move" name="_top"/>
    </contour>
    <contour>
      <point x="176" y="637" type="curve"/>
      <point x="176" y="629" type="line"/>
      <point x="26" y="493" type="line"/>
      <point x="10" y="503" type="line"/>
      <point x="123" y="664" type="line"/>
      <point x="141" y="660"/>
      <point x="163" y="649"/>
    </contour>
  </outline>
</glyph>
<glyph name="paragraph" format="1">
  <advance width="483"/>
  <unicode hex="00B6"/>
  <outline>
    <contour>
      <point x="453" y="601" type="line"/>
      <point x="453" y="596"/>
      <point x="453" y="586"/>
      <point x="451" y="580" type="curve"/>
      <point x="402" y="575"/>
      <point x="380" y="557"/>
      <point x="380" y="508" type="curve" smooth="yes"/>
      <point x="380" y="9" type="line" smooth="yes"/>
      <point x="380" y="-113"/>
      <point x="320" y="-170"/>
      <point x="216" y="-221" type="curve"/>
      <point x="202" y="-208" type="line"/>
      <point x="253" y="-146"/>
      <point x="255" y="-85"/>
      <point x="255" y="9" type="curve" smooth="yes"/>
      <point x="255" y="218" type="line"/>
      <point x="233" y="218" type="line" smooth="yes"/>
      <point x="111" y="218"/>
      <point x="25" y="284"/>
      <point x="25" y="409" type="curve" smooth="yes"/>
      <point x="25" y="534"/>
      <point x="111" y="601"/>
      <point x="233" y="601" type="curve" smooth="yes"/>
    </contour>
    <contour>
      <point x="301" y="9" type="line" smooth="yes"/>
      <point x="301" y="-68"/>
      <point x="294" y="-113"/>
      <point x="270" y="-157" type="curve"/>
      <point x="319" y="-110"/>
      <point x="334" y="-69"/>
      <point x="334" y="9" type="curve" smooth="yes"/>
      <point x="334" y="498" type="line" smooth="yes"/>
      <point x="334" y="529"/>
      <point x="343" y="551"/>
      <point x="359" y="568" type="curve"/>
      <point x="301" y="568" type="line"/>
    </contour>
  </outline>
</glyph>
<glyph name="onesuperior" format="1">
  <advance width="209"/>
  <unicode hex="00B9"/>
  <outline>
    <contour>
      <point x="124" y="301" type="line"/>
      <point x="98" y="320" type="line"/>
      <point x="128" y="310"/>
      <point x="142" y="303"/>
      <point x="169" y="302" type="curve"/>
      <point x="169" y="297"/>
      <point x="169" y="284"/>
      <point x="167" y="281" type="curve"/>
      <point x="40" y="281" type="line"/>
      <point x="40" y="285"/>
      <point x="40" y="298"/>
      <point x="42" y="302" type="curve"/>
      <point x="75" y="305"/>
      <point x="86" y="309"/>
      <point x="86" y="324" type="curve" smooth="yes"/>
      <point x="86" y="580" type="line"/>
      <point x="103" y="564" type="line"/>
      <point x="42" y="556" type="line"/>
      <point x="41" y="560"/>
      <point x="41" y="569"/>
      <point x="41" y="572" type="curve"/>
      <point x="62" y="584"/>
      <point x="87" y="596"/>
      <point x="110" y="605" type="curve"/>
      <point x="124" y="602" type="line"/>
    </contour>
  </outline>
</glyph>
<glyph name="ordmasculine" format="1">
  <advance width="363"/>
  <unicode hex="00BA"/>
  <outline>
    <contour>
      <point x="330" y="438" type="curve" smooth="yes"/>
      <point x="330" y="343"/>
      <point x="267" y="272"/>
      <point x="181" y="272" type="curve" smooth="yes"/>
      <point x="88" y="272"/>
      <point x="33" y="343"/>
      <point x="33" y="438" type="curve" smooth="yes"/>
      <point x="33" y="535"/>
      <point x="95" y="606"/>
      <point x="181" y="606" type="curve" smooth="yes"/>
      <point x="271" y="606"/>
      <point x="330" y="536"/>
    </contour>
    <contour>
      <point x="70" y="438" type="curve" smooth="yes"/>
      <point x="72" y="354"/>
      <point x="110" y="295"/>
      <point x="184" y="295" type="curve" smooth="yes"/>
      <point x="257" y="295"/>
      <point x="294" y="354"/>
      <point x="292" y="438" type="curve" smooth="yes"/>
      <point x="291" y="524"/>
      <point x="252" y="584"/>
      <point x="178" y="584" type="curve" smooth="yes"/>
      <point x="106" y="585"/>
      <point x="69" y="524"/>
    </contour>
  </outline>
</glyph>
<glyph name="guillemotright" format="1">
  <advance width="575"/>
  <unicode hex="00BB"/>
  <outline>
    <contour>
      <point x="131" y="492" type="line"/>
      <point x="258" y="331" type="line"/>
      <point x="131" y="170" type="line"/>
      <point x="158" y="155" type="line"/>
      <point x="312" y="331" type="line"/>
      <point x="158" y="506" type="line"/>
    </contour>
    <contour>
      <point x="269" y="492" type="line"/>
      <point x="396" y="331" type="line"/>
      <point x="269" y="170" type="line"/>
      <point x="296" y="155" type="line"/>
      <point x="450" y="331" type="line"/>
      <point x="296" y="506" type="line"/>
    </contour>
  </outline>
</glyph>
<glyph name="onequarter" format="1">
  <advance width="685"/>
  <unicode hex="00BC"/>
  <outline>
    <contour>
      <point x="168" y="242" type="line"/>
      <point x="149" y="266" type="line"/>
      <point x="173" y="253"/>
      <point x="191" y="245"/>
      <point x="224" y="244" type="curve"/>
      <point x="224" y="238"/>
      <point x="223" y="229"/>
      <point x="221" y="224" type="curve"/>
      <point x="68" y="224" type="line"/>
      <point x="67" y="230"/>
      <point x="68" y="239"/>
      <point x="71" y="244" type="curve"/>
      <point x="111" y="248"/>
      <point x="124" y="252"/>
      <point x="124" y="271" type="curve" smooth="yes"/>
      <point x="124" y="594" type="line"/>
      <point x="145" y="579" type="line"/>
      <point x="70" y="568" type="line"/>
      <point x="69" y="572"/>
      <point x="69" y="578"/>
      <point x="70" y="582" type="curve"/>
      <point x="96" y="596"/>
      <point x="126" y="612"/>
      <point x="156" y="625" type="curve"/>
      <point x="168" y="621" type="line"/>
    </contour>
    <contour>
      <point x="478" y="642" type="line"/>
      <point x="157" y="-38" type="line"/>
      <point x="187" y="-38" type="line"/>
      <point x="509" y="642" type="line"/>
    </contour>
    <contour>
      <point x="556" y="351" type="line"/>
      <point x="397" y="125" type="line"/>
      <point x="381" y="132" type="line"/>
      <point x="532" y="132" type="line"/>
      <point x="532" y="352" type="line"/>
    </contour>
    <contour>
      <point x="576" y="132" type="line"/>
      <point x="634" y="132" type="line"/>
      <point x="636" y="124"/>
      <point x="638" y="113"/>
      <point x="636" y="102" type="curve"/>
      <point x="576" y="102" type="line"/>
      <point x="576" y="12" type="line"/>
      <point x="558" y="41" type="line"/>
      <point x="582" y="27"/>
      <point x="597" y="23"/>
      <point x="620" y="22" type="curve"/>
      <point x="620" y="17"/>
      <point x="619" y="4"/>
      <point x="618" y="0" type="curve"/>
      <point x="490" y="0" type="line"/>
      <point x="489" y="5"/>
      <point x="490" y="18"/>
      <point x="491" y="22" type="curve"/>
      <point x="522" y="26"/>
      <point x="532" y="31"/>
      <point x="532" y="51" type="curve"/>
      <point x="532" y="102" type="line"/>
      <point x="375" y="102" type="line"/>
      <point x="370" y="107"/>
      <point x="365" y="118"/>
      <point x="362" y="127" type="curve"/>
      <point x="546" y="396" type="line"/>
      <point x="576" y="396" type="line"/>
    </contour>
  </outline>
</glyph>
<glyph name="threequarters" format="1">
  <advance width="738"/>
  <unicode hex="00BE"/>
  <outline>
    <contour>
      <point x="528" y="642" type="line"/>
      <point x="217" y="-38" type="line"/>
      <point x="247" y="-38" type="line"/>
      <point x="559" y="642" type="line"/>
    </contour>
    <contour>
      <point x="626" y="132" type="line"/>
      <point x="684" y="132" type="line"/>
      <point x="686" y="124"/>
      <point x="688" y="113"/>
      <point x="686" y="102" type="curve"/>
      <point x="626" y="102" type="line"/>
      <point x="626" y="12" type="line"/>
      <point x="608" y="41" type="line"/>
      <point x="632" y="27"/>
      <point x="647" y="23"/>
      <point x="670" y="22" type="curve"/>
      <point x="670" y="17"/>
      <point x="669" y="4"/>
      <point x="668" y="0" type="curve"/>
      <point x="540" y="0" type="line"/>
      <point x="539" y="5"/>
      <point x="540" y="18"/>
      <point x="541" y="22" type="curve"/>
      <point x="572" y="26"/>
      <point x="582" y="31"/>
      <point x="582" y="51" type="curve"/>
      <point x="582" y="102" type="line"/>
      <point x="425" y="102" type="line"/>
      <point x="420" y="107"/>
      <point x="415" y="118"/>
      <point x="412" y="127" type="curve"/>
      <point x="596" y="396" type="line"/>
      <point x="626" y="396" type="line"/>
    </contour>
    <contour>
      <point x="606" y="351" type="line"/>
      <point x="447" y="125" type="line"/>
      <point x="431" y="132" type="line"/>
      <point x="582" y="132" type="line"/>
      <point x="582" y="352" type="line"/>
    </contour>
    <contour>
      <point x="292" y="539" type="curve" smooth="yes"/>
      <point x="292" y="485"/>
      <point x="239" y="439"/>
      <point x="185" y="431" type="curve"/>
      <point x="185" y="436" type="line"/>
      <point x="266" y="425"/>
      <point x="306" y="382"/>
      <point x="306" y="326" type="curve" smooth="yes"/>
      <point x="306" y="263"/>
      <point x="236" y="224"/>
      <point x="182" y="224" type="curve" smooth="yes"/>
      <point x="137" y="224"/>
      <point x="104" y="234"/>
      <point x="72" y="261" type="curve"/>
      <point x="74" y="270"/>
      <point x="78" y="281"/>
      <point x="83" y="288" type="curve"/>
      <point x="105" y="269"/>
      <point x="134" y="256"/>
      <point x="170" y="256" type="curve" smooth="yes"/>
      <point x="219" y="256"/>
      <point x="258" y="284"/>
      <point x="258" y="331" type="curve" smooth="yes"/>
      <point x="258" y="389"/>
      <point x="218" y="411"/>
      <point x="143" y="418" type="curve"/>
      <point x="143" y="446" type="line"/>
      <point x="199" y="446"/>
      <point x="244" y="486"/>
      <point x="244" y="532" type="curve" smooth="yes"/>
      <point x="244" y="575"/>
      <point x="213" y="597"/>
      <point x="179" y="597" type="curve" smooth="yes"/>
      <point x="142" y="597"/>
      <point x="113" y="577"/>
      <point x="102" y="537" type="curve"/>
      <point x="98" y="537"/>
      <point x="91" y="537"/>
      <point x="88" y="539" type="curve"/>
      <point x="88" y="559"/>
      <point x="89" y="585"/>
      <point x="91" y="604" type="curve"/>
      <point x="121" y="621"/>
      <point x="154" y="631"/>
      <point x="190" y="631" type="curve" smooth="yes"/>
      <point x="240" y="631"/>
      <point x="292" y="598"/>
    </contour>
  </outline>
</glyph>
<glyph name="AE" format="1">
  <advance width="790"/>
  <unicode hex="00C6"/>
  <outline>
    <contour>
      <point x="416" y="576" type="line"/>
      <point x="368" y="486" type="line"/>
      <point x="86" y="13" type="line"/>
      <point x="90" y="50" type="line"/>
      <point x="118" y="32"/>
      <point x="136" y="25"/>
      <point x="166" y="21" type="curve"/>
      <point x="166" y="14"/>
      <point x="164" y="6"/>
      <point x="162" y="0" type="curve"/>
      <point x="6" y="0" type="line"/>
      <point x="6" y="7"/>
      <point x="8" y="16"/>
      <point x="10" y="21" type="curve"/>
      <point x="59" y="27"/>
      <point x="71" y="49"/>
      <point x="86" y="74" type="curve" smooth="yes"/>
      <point x="396" y="596" type="line"/>
    </contour>
    <contour>
      <point x="417" y="201" type="line"/>
      <point x="175" y="201" type="line"/>
      <point x="195" y="228" type="line"/>
      <point x="417" y="228" type="line"/>
    </contour>
    <contour>
      <point x="610" y="289" type="line"/>
      <point x="584" y="289" type="line"/>
      <point x="418" y="293" type="line"/>
      <point x="418" y="321" type="line"/>
      <point x="584" y="327" type="line"/>
      <point x="610" y="327" type="line"/>
    </contour>
    <contour>
      <point x="715" y="482" type="curve"/>
      <point x="711" y="480"/>
      <point x="703" y="480"/>
      <point x="698" y="480" type="curve"/>
      <point x="692" y="548"/>
      <point x="675" y="575"/>
      <point x="608" y="575" type="curve" smooth="yes"/>
      <point x="429" y="575" type="line"/>
      <point x="441" y="583" type="line"/>
      <point x="441" y="19" type="line"/>
      <point x="427" y="28" type="line"/>
      <point x="624" y="28" type="line" smooth="yes"/>
      <point x="692" y="28"/>
      <point x="708" y="54"/>
      <point x="715" y="122" type="curve"/>
      <point x="721" y="122"/>
      <point x="728" y="122"/>
      <point x="734" y="121" type="curve"/>
      <point x="737" y="81"/>
      <point x="738" y="41"/>
      <point x="736" y="0" type="curve"/>
      <point x="327" y="0" type="line"/>
      <point x="326" y="7"/>
      <point x="327" y="16"/>
      <point x="330" y="21" type="curve"/>
      <point x="378" y="27"/>
      <point x="393" y="36"/>
      <point x="393" y="66" type="curve" smooth="yes"/>
      <point x="393" y="580" type="line"/>
      <point x="398" y="562" type="line"/>
      <point x="373" y="574"/>
      <point x="351" y="579"/>
      <point x="324" y="580" type="curve"/>
      <point x="324" y="587"/>
      <point x="325" y="597"/>
      <point x="327" y="601" type="curve"/>
      <point x="719" y="601" type="line"/>
      <point x="721" y="561"/>
      <point x="720" y="520"/>
    </contour>
    <contour>
      <point x="1017" y="8" type="move" name="ogonek"/>
    </contour>
    <contour>
      <point x="812" y="0" type="move" name="bottom"/>
    </contour>
    <contour>
      <point x="813" y="601" type="move" name="top"/>
    </contour>
  </outline>
</glyph>
<glyph name="Eth" format="1">
  <advance width="558"/>
  <unicode hex="00D0"/>
  <outline>
    <contour>
      <point x="278" y="318" type="line"/>
      <point x="280" y="308"/>
      <point x="280" y="298"/>
      <point x="278" y="288" type="curve"/>
      <point x="22" y="288" type="line"/>
      <point x="20" y="298"/>
      <point x="20" y="308"/>
      <point x="22" y="318" type="curve"/>
    </contour>
    <component base="D"/>
  </outline>
</glyph>
<glyph name="Thorn" format="1">
  <advance width="495"/>
  <unicode hex="00DE"/>
  <outline>
    <contour>
      <point x="148" y="18" type="line"/>
      <point x="120" y="51" type="line"/>
      <point x="158" y="30"/>
      <point x="182" y="23"/>
      <point x="215" y="21" type="curve"/>
      <point x="215" y="14"/>
      <point x="214" y="6"/>
      <point x="212" y="0" type="curve"/>
      <point x="34" y="0" type="line"/>
      <point x="33" y="7"/>
      <point x="34" y="16"/>
      <point x="37" y="21" type="curve"/>
      <point x="85" y="27"/>
      <point x="100" y="36"/>
      <point x="100" y="66" type="curve" smooth="yes"/>
      <point x="100" y="582" type="line"/>
      <point x="126" y="551" type="line"/>
      <point x="88" y="571"/>
      <point x="65" y="578"/>
      <point x="31" y="580" type="curve"/>
      <point x="31" y="587"/>
      <point x="32" y="597"/>
      <point x="34" y="601" type="curve"/>
      <point x="212" y="601" type="line"/>
      <point x="212" y="596"/>
      <point x="212" y="586"/>
      <point x="210" y="580" type="curve"/>
      <point x="163" y="575"/>
      <point x="148" y="566"/>
      <point x="148" y="537" type="curve" smooth="yes"/>
    </contour>
    <contour>
      <point x="265" y="458" type="line" smooth="yes"/>
      <point x="382" y="458"/>
      <point x="446" y="393"/>
      <point x="446" y="306" type="curve" smooth="yes"/>
      <point x="446" y="220"/>
      <point x="382" y="155"/>
      <point x="265" y="155" type="curve" smooth="yes"/>
      <point x="123" y="155" type="line"/>
      <point x="123" y="183" type="line"/>
      <point x="251" y="183" type="line" smooth="yes"/>
      <point x="340" y="183"/>
      <point x="388" y="229"/>
      <point x="388" y="306" type="curve" smooth="yes"/>
      <point x="388" y="384"/>
      <point x="342" y="431"/>
      <point x="251" y="431" type="curve" smooth="yes"/>
      <point x="123" y="431" type="line"/>
      <point x="123" y="458" type="line"/>
    </contour>
  </outline>
</glyph>
<glyph name="germandbls" format="1">
  <advance width="527"/>
  <unicode hex="00DF"/>
  <outline>
    <contour>
      <point x="448" y="447" type="curve" smooth="yes"/>
      <point x="448" y="370"/>
      <point x="389" y="319"/>
      <point x="324" y="306" type="curve"/>
      <point x="317" y="316" type="line"/>
      <point x="422" y="315"/>
      <point x="477" y="237"/>
      <point x="477" y="161" type="curve" smooth="yes"/>
      <point x="477" y="84"/>
      <point x="420" y="0"/>
      <point x="299" y="0" type="curve" smooth="yes"/>
      <point x="270" y="0"/>
      <point x="241" y="7"/>
      <point x="217" y="14" type="curve"/>
      <point x="213" y="23"/>
      <point x="213" y="33"/>
      <point x="215" y="42" type="curve"/>
      <point x="241" y="34"/>
      <point x="270" y="28"/>
      <point x="297" y="28" type="curve" smooth="yes"/>
      <point x="383" y="28"/>
      <point x="420" y="92"/>
      <point x="420" y="161" type="curve" smooth="yes"/>
      <point x="420" y="230"/>
      <point x="383" y="295"/>
      <point x="277" y="295" type="curve" smooth="yes"/>
      <point x="235" y="295" type="line"/>
      <point x="231" y="303"/>
      <point x="230" y="312"/>
      <point x="230" y="322" type="curve"/>
      <point x="299" y="322" type="line"/>
      <point x="358" y="341"/>
      <point x="392" y="380"/>
      <point x="392" y="448" type="curve" smooth="yes"/>
      <point x="392" y="527"/>
      <point x="344" y="575"/>
      <point x="265" y="575" type="curve" smooth="yes"/>
      <point x="185" y="575"/>
      <point x="147" y="510"/>
      <point x="147" y="428" type="curve" smooth="yes"/>
      <point x="147" y="0" type="line"/>
      <point x="29" y="0" type="line"/>
      <point x="28" y="7"/>
      <point x="29" y="17"/>
      <point x="30" y="23" type="curve"/>
      <point x="81" y="28"/>
      <point x="97" y="38"/>
      <point x="97" y="69" type="curve" smooth="yes"/>
      <point x="97" y="428" type="line" smooth="yes"/>
      <point x="97" y="526"/>
      <point x="165" y="601"/>
      <point x="279" y="601" type="curve" smooth="yes"/>
      <point x="386" y="601"/>
      <point x="448" y="527"/>
    </contour>
    <contour>
      <point x="532" y="687" type="move" name="top"/>
    </contour>
    <contour>
      <point x="532" y="0" type="move" name="bottom"/>
    </contour>
  </outline>
</glyph>
<glyph name="ae" format="1">
  <advance width="712"/>
  <unicode hex="00E6"/>
  <outline>
    <contour>
      <point x="300" y="253" type="line"/>
      <point x="212" y="231" type="line" smooth="yes"/>
      <point x="133" y="211"/>
      <point x="103" y="171"/>
      <point x="103" y="116" type="curve" smooth="yes"/>
      <point x="103" y="61"/>
      <point x="138" y="31"/>
      <point x="192" y="31" type="curve" smooth="yes"/>
      <point x="249" y="31"/>
      <point x="292" y="60"/>
      <point x="327" y="114" type="curve"/>
      <point x="337" y="87" type="line"/>
      <point x="301" y="35"/>
      <point x="244" y="-12"/>
      <point x="181" y="-12" type="curve" smooth="yes"/>
      <point x="102" y="-12"/>
      <point x="50" y="43"/>
      <point x="50" y="109" type="curve" smooth="yes"/>
      <point x="50" y="191"/>
      <point x="99" y="236"/>
      <point x="206" y="260" type="curve" smooth="yes"/>
      <point x="300" y="282" type="line"/>
    </contour>
    <contour>
      <point x="342" y="377" type="curve"/>
      <point x="385" y="438"/>
      <point x="451" y="465"/>
      <point x="502" y="465" type="curve" smooth="yes"/>
      <point x="598" y="465"/>
      <point x="668" y="397"/>
      <point x="668" y="275" type="curve"/>
      <point x="666" y="272"/>
      <point x="663" y="267"/>
      <point x="660" y="264" type="curve"/>
      <point x="342" y="264" type="line"/>
      <point x="342" y="290" type="line"/>
      <point x="480" y="299" type="line"/>
      <point x="613" y="299" type="line"/>
      <point x="612" y="397"/>
      <point x="554" y="434"/>
      <point x="494" y="434" type="curve" smooth="yes"/>
      <point x="431" y="434"/>
      <point x="348" y="379"/>
      <point x="348" y="235" type="curve" smooth="yes"/>
      <point x="348" y="110"/>
      <point x="403" y="31"/>
      <point x="505" y="31" type="curve" smooth="yes"/>
      <point x="559" y="31"/>
      <point x="608" y="48"/>
      <point x="657" y="83" type="curve"/>
      <point x="662" y="70" type="line"/>
      <point x="620" y="22"/>
      <point x="564" y="-12"/>
      <point x="490" y="-12" type="curve" smooth="yes"/>
      <point x="399" y="-12"/>
      <point x="295" y="60"/>
      <point x="295" y="219" type="curve" smooth="yes"/>
      <point x="295" y="329" type="line" smooth="yes"/>
      <point x="295" y="389"/>
      <point x="276" y="422"/>
      <point x="214" y="422" type="curve" smooth="yes"/>
      <point x="172" y="422"/>
      <point x="126" y="412"/>
      <point x="83" y="396" type="curve"/>
      <point x="74" y="409" type="line"/>
      <point x="118" y="444"/>
      <point x="175" y="465"/>
      <point x="229" y="465" type="curve" smooth="yes"/>
      <point x="288" y="465"/>
      <point x="329" y="433"/>
    </contour>
    <contour>
      <point x="873" y="9" type="move" name="ogonek"/>
    </contour>
    <contour>
      <point x="690" y="0" type="move" name="bottom"/>
    </contour>
    <contour>
      <point x="707" y="453" type="move" name="top"/>
    </contour>
  </outline>
</glyph>
<glyph name="eth" format="1">
  <advance width="488"/>
  <unicode hex="00F0"/>
  <outline>
    <contour>
      <point x="428" y="270" type="curve" smooth="yes"/>
      <point x="428" y="125"/>
      <point x="355" y="-12"/>
      <point x="233" y="-12" type="curve" smooth="yes"/>
      <point x="127" y="-12"/>
      <point x="47" y="80"/>
      <point x="47" y="216" type="curve" smooth="yes"/>
      <point x="47" y="354"/>
      <point x="148" y="465"/>
      <point x="295" y="465" type="curve" smooth="yes"/>
      <point x="324" y="465"/>
      <point x="346" y="463"/>
      <point x="365" y="460" type="curve"/>
      <point x="370" y="414" type="line"/>
      <point x="344" y="422"/>
      <point x="316" y="427"/>
      <point x="284" y="427" type="curve" smooth="yes"/>
      <point x="172" y="427"/>
      <point x="100" y="359"/>
      <point x="100" y="216" type="curve" smooth="yes"/>
      <point x="100" y="113"/>
      <point x="152" y="22"/>
      <point x="236" y="22" type="curve" smooth="yes"/>
      <point x="342" y="22"/>
      <point x="375" y="148"/>
      <point x="375" y="270" type="curve" smooth="yes"/>
      <point x="375" y="403"/>
      <point x="333" y="542"/>
      <point x="188" y="691" type="curve"/>
      <point x="210" y="711" type="line"/>
      <point x="343" y="576"/>
      <point x="428" y="447"/>
    </contour>
    <contour>
      <point x="424" y="643" type="curve"/>
      <point x="173" y="521" type="line"/>
      <point x="165" y="528"/>
      <point x="159" y="538"/>
      <point x="157" y="549" type="curve"/>
      <point x="407" y="670" type="line"/>
      <point x="416" y="664"/>
      <point x="421" y="655"/>
    </contour>
  </outline>
</glyph>
<glyph name="divide" format="1">
  <advance width="570"/>
  <unicode hex="00F7"/>
  <outline>
    <contour>
      <point x="530" y="343" type="line"/>
      <point x="530" y="303" type="line"/>
      <point x="40" y="303" type="line"/>
      <point x="40" y="343" type="line"/>
    </contour>
    <contour>
      <point x="324" y="152" type="curve" smooth="yes"/>
      <point x="324" y="130"/>
      <point x="307" y="113"/>
      <point x="285" y="113" type="curve" smooth="yes"/>
      <point x="263" y="113"/>
      <point x="247" y="130"/>
      <point x="247" y="152" type="curve" smooth="yes"/>
      <point x="247" y="174"/>
      <point x="263" y="191"/>
      <point x="285" y="191" type="curve" smooth="yes"/>
      <point x="307" y="191"/>
      <point x="324" y="174"/>
    </contour>
    <contour>
      <point x="324" y="494" type="curve" smooth="yes"/>
      <point x="324" y="472"/>
      <point x="307" y="455"/>
      <point x="285" y="455" type="curve" smooth="yes"/>
      <point x="263" y="455"/>
      <point x="247" y="472"/>
      <point x="247" y="494" type="curve" smooth="yes"/>
      <point x="247" y="516"/>
      <point x="263" y="533"/>
      <point x="285" y="533" type="curve" smooth="yes"/>
      <point x="307" y="533"/>
      <point x="324" y="516"/>
    </contour>
  </outline>
</glyph>
<glyph name="oslash" format="1">
  <advance width="518"/>
  <unicode hex="00F8"/>
  <outline>
    <contour>
      <point x="471" y="226" type="curve" smooth="yes"/>
      <point x="471" y="90"/>
      <point x="382" y="-12"/>
      <point x="259" y="-12" type="curve" smooth="yes"/>
      <point x="125" y="-12"/>
      <point x="47" y="90"/>
      <point x="47" y="226" type="curve" smooth="yes"/>
      <point x="47" y="364"/>
      <point x="136" y="465"/>
      <point x="259" y="465" type="curve" smooth="yes"/>
      <point x="387" y="465"/>
      <point x="471" y="365"/>
    </contour>
    <contour>
      <point x="100" y="226" type="curve" smooth="yes"/>
      <point x="103" y="105"/>
      <point x="157" y="22"/>
      <point x="263" y="22" type="curve" smooth="yes"/>
      <point x="367" y="22"/>
      <point x="419" y="105"/>
      <point x="417" y="226" type="curve" smooth="yes"/>
      <point x="415" y="348"/>
      <point x="359" y="434"/>
      <point x="255" y="434" type="curve" smooth="yes"/>
      <point x="151" y="434"/>
      <point x="99" y="348"/>
    </contour>
    <contour>
      <point x="87" y="-12" type="line"/>
      <point x="47" y="-12" type="line"/>
      <point x="430" y="465" type="line"/>
      <point x="471" y="465" type="line"/>
    </contour>
    <contour>
      <point x="259" y="453" type="move" name="top"/>
    </contour>
  </outline>
</glyph>
<glyph name="thorn" format="1">
  <advance width="513"/>
  <unicode hex="00FE"/>
  <outline>
    <contour>
      <point x="131" y="687" type="move" name="top"/>
    </contour>
    <contour>
      <point x="131" y="0" type="move" name="bottom"/>
    </contour>
    <contour>
      <point x="143" y="-178" type="line"/>
      <point x="172" y="-192"/>
      <point x="194" y="-196"/>
      <point x="222" y="-198" type="curve"/>
      <point x="222" y="-206"/>
      <point x="221" y="-215"/>
      <point x="219" y="-221" type="curve"/>
      <point x="33" y="-221" type="line"/>
      <point x="32" y="-214"/>
      <point x="33" y="-204"/>
      <point x="34" y="-198" type="curve"/>
      <point x="85" y="-193"/>
      <point x="101" y="-183"/>
      <point x="101" y="-152" type="curve" smooth="yes"/>
      <point x="101" y="671" type="line"/>
      <point x="109" y="656" type="line"/>
      <point x="84" y="658"/>
      <point x="59" y="658"/>
      <point x="30" y="657" type="curve"/>
      <point x="30" y="665"/>
      <point x="31" y="671"/>
      <point x="33" y="677" type="curve"/>
      <point x="71" y="694"/>
      <point x="110" y="706"/>
      <point x="151" y="714" type="curve"/>
      <point x="151" y="-200" type="line"/>
    </contour>
    <contour>
      <point x="282" y="-13" type="curve" smooth="yes"/>
      <point x="206" y="-13"/>
      <point x="143" y="41"/>
      <point x="134" y="157" type="curve"/>
      <point x="144" y="178" type="line"/>
      <point x="156" y="70"/>
      <point x="217" y="26"/>
      <point x="279" y="26" type="curve" smooth="yes"/>
      <point x="342" y="26"/>
      <point x="407" y="74"/>
      <point x="407" y="226" type="curve" smooth="yes"/>
      <point x="407" y="378"/>
      <point x="342" y="427"/>
      <point x="279" y="427" type="curve" smooth="yes"/>
      <point x="217" y="427"/>
      <point x="156" y="383"/>
      <point x="144" y="275" type="curve"/>
      <point x="134" y="296" type="line"/>
      <point x="143" y="412"/>
      <point x="206" y="465"/>
      <point x="282" y="465" type="curve" smooth="yes"/>
      <point x="367" y="465"/>
      <point x="464" y="398"/>
      <point x="464" y="226" type="curve" smooth="yes"/>
      <point x="464" y="54"/>
      <point x="367" y="-12"/>
    </contour>
  </outline>
</glyph>
<glyph name="Dcroat" format="1">
  <advance width="558"/>
  <unicode hex="0110"/>
  <outline>
    <contour>
      <point x="278" y="318" type="line"/>
      <point x="280" y="308"/>
      <point x="280" y="298"/>
      <point x="278" y="288" type="curve"/>
      <point x="22" y="288" type="line"/>
      <point x="20" y="298"/>
      <point x="20" y="308"/>
      <point x="22" y="318" type="curve"/>
    </contour>
    <component base="D"/>
  </outline>
</glyph>
<glyph name="dcroat" format="1">
  <advance width="519"/>
  <unicode hex="0111"/>
  <outline>
    <contour>
      <point x="474" y="627" type="line"/>
      <point x="480" y="619"/>
      <point x="484" y="607"/>
      <point x="484" y="596" type="curve"/>
      <point x="260" y="519" type="line"/>
      <point x="253" y="527"/>
      <point x="249" y="537"/>
      <point x="250" y="550" type="curve"/>
    </contour>
    <component base="d"/>
  </outline>
</glyph>
<glyph name="lslash" format="1">
  <advance width="264"/>
  <unicode hex="0142"/>
  <outline>
    <contour>
      <point x="249" y="385" type="curve"/>
      <point x="25" y="308" type="line"/>
      <point x="18" y="316"/>
      <point x="14" y="326"/>
      <point x="15" y="339" type="curve"/>
      <point x="239" y="416" type="line"/>
      <point x="245" y="408"/>
      <point x="249" y="396"/>
    </contour>
    <component base="l" xOffset="1"/>
  </outline>
</glyph>
<glyph name="OE" format="1">
  <advance width="827"/>
  <unicode hex="0152"/>
  <outline>
    <contour>
      <point x="647" y="289" type="line"/>
      <point x="621" y="289" type="line"/>
      <point x="455" y="293" type="line"/>
      <point x="455" y="321" type="line"/>
      <point x="621" y="327" type="line"/>
      <point x="647" y="327" type="line"/>
    </contour>
    <contour>
      <point x="454" y="1" type="line"/>
      <point x="415" y="-6"/>
      <point x="377" y="-13"/>
      <point x="323" y="-13" type="curve" smooth="yes"/>
      <point x="156" y="-13"/>
      <point x="57" y="119"/>
      <point x="57" y="299" type="curve" smooth="yes"/>
      <point x="57" y="479"/>
      <point x="155" y="614"/>
      <point x="322" y="614" type="curve" smooth="yes"/>
      <point x="376" y="614"/>
      <point x="415" y="607"/>
      <point x="468" y="596" type="curve"/>
      <point x="454" y="554" type="line"/>
      <point x="398" y="574"/>
      <point x="359" y="580"/>
      <point x="304" y="580" type="curve" smooth="yes"/>
      <point x="177" y="580"/>
      <point x="100" y="459"/>
      <point x="110" y="299" type="curve" smooth="yes"/>
      <point x="121" y="101"/>
      <point x="214" y="21"/>
      <point x="341" y="21" type="curve" smooth="yes"/>
      <point x="382" y="21"/>
      <point x="404" y="26"/>
      <point x="442" y="46" type="curve"/>
    </contour>
    <contour>
      <point x="756" y="601" type="line"/>
      <point x="759" y="561"/>
      <point x="758" y="520"/>
      <point x="752" y="482" type="curve"/>
      <point x="748" y="480"/>
      <point x="740" y="480"/>
      <point x="735" y="480" type="curve"/>
      <point x="729" y="548"/>
      <point x="712" y="575"/>
      <point x="645" y="575" type="curve" smooth="yes"/>
      <point x="466" y="575" type="line"/>
      <point x="478" y="583" type="line"/>
      <point x="478" y="19" type="line"/>
      <point x="464" y="28" type="line"/>
      <point x="661" y="28" type="line" smooth="yes"/>
      <point x="729" y="28"/>
      <point x="745" y="54"/>
      <point x="752" y="122" type="curve"/>
      <point x="758" y="122"/>
      <point x="765" y="122"/>
      <point x="771" y="121" type="curve"/>
      <point x="774" y="81"/>
      <point x="775" y="41"/>
      <point x="773" y="0" type="curve"/>
      <point x="430" y="0" type="line"/>
      <point x="430" y="601" type="line"/>
    </contour>
  </outline>
</glyph>
<glyph name="florin" format="1">
  <advance width="382"/>
  <unicode hex="0192"/>
  <outline>
    <contour>
      <point x="139" y="203" type="line"/>
      <point x="196" y="203"/>
      <point x="239" y="204"/>
      <point x="290" y="208" type="curve"/>
      <point x="287" y="190"/>
      <point x="285" y="184"/>
      <point x="277" y="171" type="curve"/>
      <point x="134" y="171" type="line"/>
    </contour>
    <contour>
      <point x="352" y="451" type="curve"/>
      <point x="351" y="439"/>
      <point x="347" y="428"/>
      <point x="338" y="418" type="curve"/>
      <point x="315" y="427"/>
      <point x="300" y="431"/>
      <point x="281" y="431" type="curve" smooth="yes"/>
      <point x="224" y="431"/>
      <point x="185" y="400"/>
      <point x="168" y="306" type="curve" smooth="yes"/>
      <point x="99" y="-90" type="line" smooth="yes"/>
      <point x="82" y="-186"/>
      <point x="26" y="-232"/>
      <point x="-27" y="-232" type="curve" smooth="yes"/>
      <point x="-52" y="-232"/>
      <point x="-68" y="-227"/>
      <point x="-90" y="-218" type="curve"/>
      <point x="-89" y="-206"/>
      <point x="-85" y="-195"/>
      <point x="-76" y="-185" type="curve"/>
      <point x="-53" y="-194"/>
      <point x="-38" y="-198"/>
      <point x="-19" y="-198" type="curve" smooth="yes"/>
      <point x="13" y="-198"/>
      <point x="35" y="-180"/>
      <point x="45" y="-119" type="curve" smooth="yes"/>
      <point x="99" y="183" type="line"/>
      <point x="121" y="166" type="line"/>
      <point x="93" y="173"/>
      <point x="60" y="175"/>
      <point x="30" y="175" type="curve"/>
      <point x="31" y="181"/>
      <point x="33" y="185"/>
      <point x="34" y="188" type="curve"/>
      <point x="56" y="195"/>
      <point x="79" y="200"/>
      <point x="102" y="203" type="curve"/>
      <point x="115" y="274" type="line" smooth="yes"/>
      <point x="139" y="415"/>
      <point x="226" y="465"/>
      <point x="289" y="465" type="curve" smooth="yes"/>
      <point x="314" y="465"/>
      <point x="330" y="460"/>
    </contour>
  </outline>
</glyph>
<glyph name="circumflex" format="1">
  <advance width="278"/>
  <unicode hex="02C6"/>
  <outline>
    <contour>
      <point x="139" y="453" type="move" name="_top"/>
    </contour>
    <contour>
      <point x="254" y="497" type="line"/>
      <point x="139" y="569" type="line"/>
      <point x="25" y="497" type="line"/>
      <point x="10" y="514" type="line"/>
      <point x="126" y="619" type="line"/>
      <point x="153" y="619" type="line"/>
      <point x="268" y="514" type="line"/>
    </contour>
  </outline>
</glyph>
<glyph name="caron" format="1">
  <advance width="278"/>
  <unicode hex="02C7"/>
  <outline>
    <contour>
      <point x="164" y="499" type="line"/>
      <point x="116" y="499" type="line"/>
      <point x="10" y="613" type="line"/>
      <point x="25" y="630" type="line"/>
      <point x="139" y="544" type="line"/>
      <point x="254" y="630" type="line"/>
      <point x="268" y="613" type="line"/>
    </contour>
    <contour>
      <point x="140" y="453" type="move" name="_top"/>
    </contour>
  </outline>
</glyph>
<glyph name="ogonek" format="1">
  <advance width="183"/>
  <unicode hex="02DB"/>
  <outline>
    <contour>
      <point x="132" y="0" type="move" name="_ogonek"/>
    </contour>
    <contour>
      <point x="101" y="-157" type="curve" smooth="yes"/>
      <point x="128" y="-157"/>
      <point x="156" y="-148"/>
      <point x="170" y="-140" type="curve"/>
      <point x="173" y="-147" type="line"/>
      <point x="159" y="-168"/>
      <point x="125" y="-193"/>
      <point x="89" y="-193" type="curve" smooth="yes"/>
      <point x="47" y="-193"/>
      <point x="10" y="-163"/>
      <point x="10" y="-118" type="curve" smooth="yes"/>
      <point x="10" y="-64"/>
      <point x="47" y="-16"/>
      <point x="117" y="13" type="curve"/>
      <point x="132" y="0" type="line"/>
      <point x="78" y="-27"/>
      <point x="58" y="-64"/>
      <point x="58" y="-104" type="curve" smooth="yes"/>
      <point x="58" y="-134"/>
      <point x="75" y="-157"/>
    </contour>
  </outline>
</glyph>
<glyph name="tilde" format="1">
  <advance width="278"/>
  <unicode hex="02DC"/>
  <outline>
    <contour>
      <point x="138" y="453" type="move" name="_top"/>
    </contour>
    <contour>
      <point x="194" y="565" type="curve" smooth="yes"/>
      <point x="214" y="565"/>
      <point x="231" y="577"/>
      <point x="238" y="611" type="curve"/>
      <point x="263" y="611" type="line"/>
      <point x="254" y="568"/>
      <point x="238" y="523"/>
      <point x="187" y="523" type="curve" smooth="yes"/>
      <point x="139" y="523"/>
      <point x="119" y="571"/>
      <point x="89" y="571" type="curve" smooth="yes"/>
      <point x="69" y="571"/>
      <point x="52" y="559"/>
      <point x="45" y="525" type="curve"/>
      <point x="20" y="525" type="line"/>
      <point x="29" y="568"/>
      <point x="45" y="613"/>
      <point x="96" y="613" type="curve" smooth="yes"/>
      <point x="141" y="613"/>
      <point x="164" y="565"/>
    </contour>
  </outline>
</glyph>
<glyph name="dvAnusvara" format="1">
  <advance width="0"/>
  <unicode hex="0902"/>
  <outline>
    <contour>
      <point x="-100" y="625" type="move" name="_abvm"/>
    </contour>
    <contour>
      <point x="-174" y="812" type="line"/>
      <point x="-128" y="765" type="line"/>
      <point x="-80" y="812" type="line"/>
      <point x="-128" y="858" type="line"/>
    </contour>
  </outline>
</glyph>
<glyph name="dvA" format="1">
  <advance width="777"/>
  <unicode hex="0905"/>
  <outline>
    <contour>
      <point x="314" y="41" type="curve" smooth="yes"/>
      <point x="420" y="41"/>
      <point x="471" y="112"/>
      <point x="471" y="188" type="curve" smooth="yes"/>
      <point x="471" y="242"/>
      <point x="455" y="275"/>
      <point x="434" y="305" type="curve"/>
      <point x="468" y="291"/>
      <point x="507" y="275"/>
      <point x="543" y="275" type="curve" smooth="yes"/>
      <point x="574" y="275"/>
      <point x="602" y="283"/>
      <point x="626" y="301" type="curve"/>
      <point x="621" y="-13" type="line"/>
      <point x="677" y="-50" type="line"/>
      <point x="677" y="577" type="line"/>
      <point x="826" y="577" type="line"/>
      <point x="794" y="625" type="line"/>
      <point x="506" y="625" type="line"/>
      <point x="517" y="609"/>
      <point x="526" y="597"/>
      <point x="538" y="577" type="curve"/>
      <point x="621" y="577" type="line"/>
      <point x="621" y="368" type="line"/>
      <point x="604" y="338"/>
      <point x="558" y="320"/>
      <point x="521" y="320" type="curve" smooth="yes"/>
      <point x="491" y="320"/>
      <point x="424" y="335"/>
      <point x="385" y="368" type="curve"/>
      <point x="423" y="398"/>
      <point x="446" y="428"/>
      <point x="446" y="467" type="curve" smooth="yes"/>
      <point x="446" y="544"/>
      <point x="383" y="635"/>
      <point x="294" y="635" type="curve" smooth="yes"/>
      <point x="239" y="635"/>
      <point x="180" y="609"/>
      <point x="136" y="562" type="curve"/>
      <point x="172" y="525" type="line"/>
      <point x="225" y="577"/>
      <point x="274" y="588"/>
      <point x="307" y="588" type="curve" smooth="yes"/>
      <point x="354" y="588"/>
      <point x="404" y="552"/>
      <point x="404" y="495" type="curve" smooth="yes"/>
      <point x="404" y="416"/>
      <point x="305" y="367"/>
      <point x="236" y="342" type="curve"/>
      <point x="263" y="298" type="line"/>
      <point x="292" y="309"/>
      <point x="326" y="325"/>
      <point x="357" y="346" type="curve"/>
      <point x="406" y="307"/>
      <point x="428" y="262"/>
      <point x="428" y="206" type="curve" smooth="yes"/>
      <point x="428" y="139"/>
      <point x="379" y="87"/>
      <point x="294" y="87" type="curve" smooth="yes"/>
      <point x="190" y="87"/>
      <point x="119" y="225"/>
      <point x="81" y="313" type="curve"/>
      <point x="52" y="298" type="line"/>
      <point x="88" y="208"/>
      <point x="171" y="41"/>
    </contour>
  </outline>
</glyph>
<glyph name="dvII" format="1">
  <advance width="544"/>
  <unicode hex="0908"/>
  <outline>
    <contour>
      <point x="511" y="853" type="line"/>
      <point x="485" y="866"/>
      <point x="460" y="872"/>
      <point x="429" y="872" type="curve" smooth="yes"/>
      <point x="364" y="872"/>
      <point x="309" y="832"/>
      <point x="309" y="751" type="curve" smooth="yes"/>
      <point x="309" y="710"/>
      <point x="326" y="661"/>
      <point x="361" y="625" type="curve"/>
      <point x="-40" y="625" type="line"/>
      <point x="-7" y="577" type="line"/>
      <point x="364" y="577" type="line"/>
      <point x="364" y="455" type="line"/>
      <point x="204" y="455" type="line" smooth="yes"/>
      <point x="132" y="455"/>
      <point x="75" y="408"/>
      <point x="75" y="344" type="curve" smooth="yes"/>
      <point x="75" y="256"/>
      <point x="153" y="181"/>
      <point x="211" y="181" type="curve" smooth="yes"/>
      <point x="268" y="181"/>
      <point x="319" y="218"/>
      <point x="360" y="218" type="curve" smooth="yes"/>
      <point x="398" y="218"/>
      <point x="429" y="190"/>
      <point x="429" y="150" type="curve" smooth="yes"/>
      <point x="429" y="60"/>
      <point x="285" y="12"/>
      <point x="219" y="21" type="curve"/>
      <point x="179" y="74"/>
      <point x="140" y="125"/>
      <point x="117" y="125" type="curve" smooth="yes"/>
      <point x="94" y="125"/>
      <point x="73" y="113"/>
      <point x="73" y="96" type="curve" smooth="yes"/>
      <point x="73" y="52"/>
      <point x="139" y="2"/>
      <point x="205" y="-17" type="curve"/>
      <point x="363" y="-202" type="line"/>
      <point x="400" y="-176" type="line"/>
      <point x="251" y="-24" type="line"/>
      <point x="334" y="-24"/>
      <point x="471" y="31"/>
      <point x="471" y="132" type="curve" smooth="yes"/>
      <point x="471" y="186"/>
      <point x="412" y="266"/>
      <point x="341" y="266" type="curve" smooth="yes"/>
      <point x="301" y="266"/>
      <point x="240" y="228"/>
      <point x="193" y="228" type="curve" smooth="yes"/>
      <point x="148" y="228"/>
      <point x="116" y="265"/>
      <point x="116" y="317" type="curve" smooth="yes"/>
      <point x="116" y="379"/>
      <point x="171" y="403"/>
      <point x="219" y="403" type="curve" smooth="yes"/>
      <point x="420" y="403" type="line"/>
      <point x="420" y="577" type="line"/>
      <point x="588" y="577" type="line"/>
      <point x="557" y="625" type="line"/>
      <point x="405" y="625" type="line"/>
      <point x="373" y="652"/>
      <point x="355" y="691"/>
      <point x="355" y="730" type="curve" smooth="yes"/>
      <point x="355" y="803"/>
      <point x="399" y="832"/>
      <point x="453" y="832" type="curve" smooth="yes"/>
      <point x="468" y="832"/>
      <point x="480" y="830"/>
      <point x="494" y="826" type="curve"/>
    </contour>
  </outline>
</glyph>
<glyph name="dvU" format="1">
  <advance width="544"/>
  <unicode hex="0909"/>
  <outline>
    <contour>
      <point x="47" y="298" type="line"/>
      <point x="91" y="189"/>
      <point x="174" y="41"/>
      <point x="316" y="41" type="curve" smooth="yes"/>
      <point x="415" y="41"/>
      <point x="467" y="113"/>
      <point x="467" y="188" type="curve" smooth="yes"/>
      <point x="467" y="280"/>
      <point x="413" y="346"/>
      <point x="388" y="369" type="curve"/>
      <point x="422" y="395"/>
      <point x="443" y="429"/>
      <point x="443" y="470" type="curve" smooth="yes"/>
      <point x="443" y="499"/>
      <point x="432" y="541"/>
      <point x="399" y="577" type="curve"/>
      <point x="595" y="577" type="line"/>
      <point x="562" y="625" type="line"/>
      <point x="-66" y="625" type="line"/>
      <point x="-33" y="577" type="line"/>
      <point x="349" y="577" type="line"/>
      <point x="379" y="560"/>
      <point x="400" y="524"/>
      <point x="400" y="489" type="curve" smooth="yes"/>
      <point x="400" y="406"/>
      <point x="298" y="369"/>
      <point x="202" y="352" type="curve"/>
      <point x="230" y="307" type="line"/>
      <point x="278" y="315"/>
      <point x="323" y="329"/>
      <point x="359" y="350" type="curve"/>
      <point x="406" y="311"/>
      <point x="424" y="261"/>
      <point x="424" y="206" type="curve" smooth="yes"/>
      <point x="424" y="141"/>
      <point x="375" y="87"/>
      <point x="300" y="87" type="curve" smooth="yes"/>
      <point x="184" y="87"/>
      <point x="118" y="214"/>
      <point x="77" y="313" type="curve"/>
    </contour>
  </outline>
</glyph>
<glyph name="dvUU" format="1">
  <advance width="729"/>
  <unicode hex="090A"/>
  <outline>
    <contour>
      <point x="696" y="224" type="curve" smooth="yes"/>
      <point x="696" y="308"/>
      <point x="623" y="409"/>
      <point x="541" y="409" type="curve" smooth="yes"/>
      <point x="494" y="409"/>
      <point x="445" y="380"/>
      <point x="409" y="347" type="curve"/>
      <point x="390" y="367" type="line"/>
      <point x="423" y="393"/>
      <point x="443" y="427"/>
      <point x="443" y="470" type="curve" smooth="yes"/>
      <point x="443" y="499"/>
      <point x="432" y="541"/>
      <point x="399" y="577" type="curve"/>
      <point x="791" y="577" type="line"/>
      <point x="758" y="625" type="line"/>
      <point x="-39" y="625" type="line"/>
      <point x="-6" y="577" type="line"/>
      <point x="349" y="577" type="line"/>
      <point x="379" y="560"/>
      <point x="400" y="524"/>
      <point x="400" y="489" type="curve" smooth="yes"/>
      <point x="400" y="406"/>
      <point x="312" y="369"/>
      <point x="222" y="353" type="curve"/>
      <point x="249" y="309" type="line"/>
      <point x="291" y="317"/>
      <point x="330" y="330"/>
      <point x="361" y="348" type="curve"/>
      <point x="407" y="309"/>
      <point x="424" y="260"/>
      <point x="424" y="206" type="curve" smooth="yes"/>
      <point x="424" y="138"/>
      <point x="371" y="87"/>
      <point x="290" y="87" type="curve" smooth="yes"/>
      <point x="183" y="87"/>
      <point x="114" y="220"/>
      <point x="77" y="313" type="curve"/>
      <point x="48" y="298" type="line"/>
      <point x="84" y="208"/>
      <point x="167" y="41"/>
      <point x="310" y="41" type="curve" smooth="yes"/>
      <point x="412" y="41"/>
      <point x="467" y="112"/>
      <point x="467" y="188" type="curve" smooth="yes"/>
      <point x="467" y="232"/>
      <point x="455" y="271"/>
      <point x="439" y="301" type="curve"/>
      <point x="465" y="331"/>
      <point x="503" y="363"/>
      <point x="557" y="363" type="curve" smooth="yes"/>
      <point x="610" y="363"/>
      <point x="657" y="305"/>
      <point x="657" y="247" type="curve" smooth="yes"/>
      <point x="657" y="186"/>
      <point x="614" y="141"/>
      <point x="530" y="112" type="curve"/>
      <point x="560" y="75" type="line"/>
      <point x="619" y="100"/>
      <point x="696" y="146"/>
    </contour>
  </outline>
</glyph>
<glyph name="dvvR" format="1">
  <advance width="872"/>
  <unicode hex="090B"/>
  <outline>
    <contour>
      <point x="689" y="324" type="line"/>
      <point x="716" y="338"/>
      <point x="741" y="360"/>
      <point x="741" y="379" type="curve" smooth="yes"/>
      <point x="741" y="417"/>
      <point x="704" y="466"/>
      <point x="667" y="466" type="curve" smooth="yes"/>
      <point x="633" y="466"/>
      <point x="605" y="444"/>
      <point x="605" y="411" type="curve" smooth="yes"/>
      <point x="605" y="390"/>
      <point x="615" y="370"/>
      <point x="626" y="349" type="curve"/>
      <point x="601" y="337"/>
      <point x="567" y="327"/>
      <point x="535" y="327" type="curve" smooth="yes"/>
      <point x="518" y="327"/>
      <point x="501" y="329"/>
      <point x="487" y="336" type="curve"/>
      <point x="487" y="577" type="line"/>
      <point x="897" y="577" type="line"/>
      <point x="865" y="625" type="line"/>
      <point x="-22" y="625" type="line"/>
      <point x="10" y="577" type="line"/>
      <point x="431" y="577" type="line"/>
      <point x="431" y="332" type="line"/>
      <point x="351" y="435"/>
      <point x="286" y="467"/>
      <point x="225" y="467" type="curve" smooth="yes"/>
      <point x="176" y="467"/>
      <point x="128" y="456"/>
      <point x="72" y="413" type="curve"/>
      <point x="106" y="371" type="line"/>
      <point x="151" y="403"/>
      <point x="194" y="424"/>
      <point x="252" y="424" type="curve" smooth="yes"/>
      <point x="325" y="424"/>
      <point x="379" y="350"/>
      <point x="407" y="312" type="curve"/>
      <point x="141" y="102" type="line"/>
      <point x="182" y="69" type="line"/>
      <point x="431" y="274" type="line"/>
      <point x="431" y="-9" type="line"/>
      <point x="487" y="-50" type="line"/>
      <point x="487" y="306" type="line"/>
      <point x="510" y="295"/>
      <point x="538" y="289"/>
      <point x="570" y="289" type="curve" smooth="yes"/>
      <point x="598" y="289"/>
      <point x="629" y="295"/>
      <point x="658" y="310" type="curve"/>
      <point x="696" y="243" type="line"/>
      <point x="682" y="234"/>
      <point x="567" y="197"/>
      <point x="567" y="123" type="curve" smooth="yes"/>
      <point x="567" y="42"/>
      <point x="639" y="-5"/>
      <point x="711" y="-5" type="curve" smooth="yes"/>
      <point x="765" y="-5"/>
      <point x="819" y="30"/>
      <point x="847" y="59" type="curve"/>
      <point x="809" y="92" type="line"/>
      <point x="768" y="58"/>
      <point x="741" y="38"/>
      <point x="688" y="38" type="curve" smooth="yes"/>
      <point x="654" y="38"/>
      <point x="610" y="54"/>
      <point x="610" y="99" type="curve" smooth="yes"/>
      <point x="610" y="158"/>
      <point x="699" y="194"/>
      <point x="758" y="205" type="curve"/>
    </contour>
  </outline>
</glyph>
<glyph name="dvvL" format="1">
  <advance width="774"/>
  <unicode hex="090C"/>
  <outline>
    <contour>
      <point x="543" y="367" type="curve" smooth="yes"/>
      <point x="569" y="367"/>
      <point x="598" y="361"/>
      <point x="618" y="354" type="curve"/>
      <point x="618" y="74" type="line"/>
      <point x="604" y="65"/>
      <point x="470" y="22"/>
      <point x="470" y="-52" type="curve" smooth="yes"/>
      <point x="470" y="-133"/>
      <point x="542" y="-180"/>
      <point x="614" y="-180" type="curve" smooth="yes"/>
      <point x="668" y="-180"/>
      <point x="741" y="-139"/>
      <point x="769" y="-110" type="curve"/>
      <point x="731" y="-77" type="line"/>
      <point x="690" y="-111"/>
      <point x="644" y="-137"/>
      <point x="591" y="-137" type="curve" smooth="yes"/>
      <point x="557" y="-137"/>
      <point x="513" y="-121"/>
      <point x="513" y="-76" type="curve" smooth="yes"/>
      <point x="513" y="-17"/>
      <point x="615" y="19"/>
      <point x="674" y="30" type="curve"/>
      <point x="674" y="577" type="line"/>
      <point x="828" y="577" type="line"/>
      <point x="796" y="625" type="line"/>
      <point x="-56" y="625" type="line"/>
      <point x="-24" y="577" type="line"/>
      <point x="618" y="577" type="line"/>
      <point x="618" y="387" type="line"/>
      <point x="591" y="404"/>
      <point x="552" y="415"/>
      <point x="516" y="415" type="curve" smooth="yes"/>
      <point x="470" y="415"/>
      <point x="430" y="392"/>
      <point x="408" y="360" type="curve"/>
      <point x="384" y="388"/>
      <point x="335" y="418"/>
      <point x="282" y="418" type="curve" smooth="yes"/>
      <point x="195" y="418"/>
      <point x="123" y="350"/>
      <point x="123" y="260" type="curve" smooth="yes"/>
      <point x="123" y="140"/>
      <point x="221" y="28"/>
      <point x="312" y="-50" type="curve"/>
      <point x="342" y="-29" type="line"/>
      <point x="258" y="43"/>
      <point x="173" y="133"/>
      <point x="173" y="234" type="curve" smooth="yes"/>
      <point x="173" y="318"/>
      <point x="224" y="370"/>
      <point x="299" y="370" type="curve" smooth="yes"/>
      <point x="337" y="370"/>
      <point x="368" y="353"/>
      <point x="391" y="330" type="curve"/>
      <point x="379" y="303"/>
      <point x="376" y="274"/>
      <point x="376" y="244" type="curve" smooth="yes"/>
      <point x="376" y="210"/>
      <point x="382" y="177"/>
      <point x="392" y="148" type="curve"/>
      <point x="440" y="135" type="line"/>
      <point x="435" y="164"/>
      <point x="430" y="198"/>
      <point x="430" y="231" type="curve" smooth="yes"/>
      <point x="430" y="301"/>
      <point x="456" y="367"/>
    </contour>
  </outline>
</glyph>
<glyph name="dvAI" format="1">
  <advance width="571"/>
  <unicode hex="0910"/>
  <outline>
    <contour>
      <point x="199" y="799" type="line"/>
      <point x="218" y="806"/>
      <point x="231" y="809"/>
      <point x="248" y="809" type="curve" smooth="yes"/>
      <point x="329" y="809"/>
      <point x="391" y="712"/>
      <point x="435" y="625" type="curve"/>
      <point x="-55" y="625" type="line"/>
      <point x="-22" y="577" type="line"/>
      <point x="106" y="577" type="line"/>
      <point x="106" y="271" type="line" smooth="yes"/>
      <point x="106" y="238"/>
      <point x="106" y="218"/>
      <point x="129" y="201" type="curve" smooth="yes"/>
      <point x="211" y="138"/>
      <point x="283" y="89"/>
      <point x="336" y="50" type="curve" smooth="yes"/>
      <point x="394" y="7"/>
      <point x="429" y="-24"/>
      <point x="429" y="-49" type="curve" smooth="yes"/>
      <point x="429" y="-74"/>
      <point x="418" y="-90"/>
      <point x="405" y="-104" type="curve"/>
      <point x="451" y="-138" type="line"/>
      <point x="466" y="-121"/>
      <point x="481" y="-94"/>
      <point x="481" y="-67" type="curve" smooth="yes"/>
      <point x="481" y="-46"/>
      <point x="474" y="-11"/>
      <point x="430" y="20" type="curve" smooth="yes"/>
      <point x="228" y="167" type="line"/>
      <point x="175" y="208"/>
      <point x="162" y="206"/>
      <point x="162" y="269" type="curve" smooth="yes"/>
      <point x="162" y="577" type="line"/>
      <point x="423" y="577" type="line"/>
      <point x="423" y="371" type="line" smooth="yes"/>
      <point x="423" y="310"/>
      <point x="404" y="279"/>
      <point x="362" y="251" type="curve"/>
      <point x="402" y="211" type="line"/>
      <point x="455" y="248"/>
      <point x="479" y="288"/>
      <point x="479" y="364" type="curve" smooth="yes"/>
      <point x="479" y="577" type="line"/>
      <point x="635" y="577" type="line"/>
      <point x="603" y="625" type="line"/>
      <point x="472" y="625" type="line"/>
      <point x="430" y="714"/>
      <point x="361" y="860"/>
      <point x="227" y="860" type="curve" smooth="yes"/>
      <point x="213" y="860"/>
      <point x="185" y="854"/>
      <point x="172" y="845" type="curve"/>
    </contour>
  </outline>
</glyph>
<glyph name="dvKA" format="1">
  <advance width="806"/>
  <unicode hex="0915"/>
  <outline>
    <contour>
      <point x="439" y="-50" type="move" name="blwm.virama"/>
    </contour>
    <contour>
      <point x="439" y="-50" type="move" name="blwm.u"/>
    </contour>
    <contour>
      <point x="439" y="625" type="move" name="abvm"/>
    </contour>
    <contour>
      <point x="439" y="-50" type="line"/>
      <point x="439" y="288" type="line"/>
      <point x="476" y="360"/>
      <point x="519" y="406"/>
      <point x="585" y="406" type="curve"/>
      <point x="674" y="406"/>
      <point x="714" y="320"/>
      <point x="714" y="255" type="curve" smooth="yes"/>
      <point x="714" y="174"/>
      <point x="662" y="147"/>
      <point x="600" y="147" type="curve" smooth="yes"/>
      <point x="577" y="147"/>
      <point x="553" y="151"/>
      <point x="529" y="157" type="curve"/>
      <point x="547" y="110" type="line"/>
      <point x="569" y="103"/>
      <point x="592" y="100"/>
      <point x="613" y="100" type="curve" smooth="yes"/>
      <point x="693" y="100"/>
      <point x="759" y="145"/>
      <point x="759" y="232" type="curve" smooth="yes"/>
      <point x="759" y="331"/>
      <point x="679" y="456"/>
      <point x="561" y="456" type="curve" smooth="yes"/>
      <point x="511" y="456"/>
      <point x="459" y="418"/>
      <point x="433" y="376" type="curve"/>
      <point x="439" y="577" type="line"/>
      <point x="858" y="577" type="line"/>
      <point x="826" y="625" type="line"/>
      <point x="-52" y="625" type="line"/>
      <point x="-20" y="577" type="line"/>
      <point x="383" y="577" type="line"/>
      <point x="383" y="265" type="line"/>
      <point x="349" y="203"/>
      <point x="302" y="148"/>
      <point x="229" y="148" type="curve" smooth="yes"/>
      <point x="161" y="148"/>
      <point x="101" y="211"/>
      <point x="101" y="281" type="curve" smooth="yes"/>
      <point x="101" y="368"/>
      <point x="159" y="408"/>
      <point x="228" y="408" type="curve" smooth="yes"/>
      <point x="248" y="408"/>
      <point x="269" y="405"/>
      <point x="290" y="398" type="curve"/>
      <point x="273" y="445" type="line"/>
      <point x="250" y="454"/>
      <point x="226" y="458"/>
      <point x="203" y="458" type="curve" smooth="yes"/>
      <point x="120" y="458"/>
      <point x="50" y="403"/>
      <point x="50" y="317" type="curve" smooth="yes"/>
      <point x="50" y="213"/>
      <point x="151" y="98"/>
      <point x="249" y="98" type="curve" smooth="yes"/>
      <point x="299" y="98"/>
      <point x="353" y="130"/>
      <point x="389" y="188" type="curve"/>
      <point x="383" y="-9" type="line"/>
    </contour>
  </outline>
</glyph>
<glyph name="dvKHA" format="1">
  <advance width="805"/>
  <unicode hex="0916"/>
  <outline>
    <contour>
      <point x="50" y="285" type="line"/>
      <point x="133" y="147"/>
      <point x="239" y="-12"/>
      <point x="427" y="-12" type="curve" smooth="yes"/>
      <point x="541" y="-12"/>
      <point x="630" y="82"/>
      <point x="655" y="129" type="curve"/>
      <point x="649" y="-5" type="line"/>
      <point x="705" y="-50" type="line"/>
      <point x="705" y="577" type="line"/>
      <point x="857" y="577" type="line"/>
      <point x="825" y="625" type="line"/>
      <point x="-52" y="625" type="line"/>
      <point x="-20" y="577" type="line"/>
      <point x="194" y="577" type="line"/>
      <point x="194" y="333" type="line"/>
      <point x="194" y="290"/>
      <point x="172" y="272"/>
      <point x="138" y="272" type="curve" smooth="yes"/>
      <point x="114" y="272"/>
      <point x="92" y="284"/>
      <point x="71" y="305" type="curve"/>
    </contour>
    <contour>
      <point x="248" y="315" type="curve"/>
      <point x="248" y="577" type="line"/>
      <point x="649" y="577" type="line"/>
      <point x="648" y="363" type="line"/>
      <point x="614" y="415"/>
      <point x="560" y="442"/>
      <point x="495" y="442" type="curve" smooth="yes"/>
      <point x="414" y="442"/>
      <point x="359" y="383"/>
      <point x="359" y="310" type="curve" smooth="yes"/>
      <point x="359" y="186"/>
      <point x="467" y="127"/>
      <point x="591" y="130" type="curve"/>
      <point x="547" y="71"/>
      <point x="489" y="34"/>
      <point x="403" y="34" type="curve" smooth="yes"/>
      <point x="288" y="34"/>
      <point x="186" y="137"/>
      <point x="141" y="213" type="curve"/>
      <point x="207" y="218"/>
      <point x="248" y="261"/>
    </contour>
    <contour>
      <point x="651" y="270" type="curve" smooth="yes"/>
      <point x="651" y="221"/>
      <point x="631" y="180"/>
      <point x="616" y="164" type="curve"/>
      <point x="529" y="153"/>
      <point x="405" y="186"/>
      <point x="405" y="290" type="curve" smooth="yes"/>
      <point x="405" y="366"/>
      <point x="458" y="402"/>
      <point x="511" y="402" type="curve" smooth="yes"/>
      <point x="585" y="402"/>
      <point x="651" y="345"/>
    </contour>
  </outline>
</glyph>
<glyph name="dvGA" format="1">
  <advance width="536"/>
  <unicode hex="0917"/>
  <outline>
    <contour>
      <point x="436" y="577" type="line"/>
      <point x="588" y="577" type="line"/>
      <point x="556" y="625" type="line"/>
      <point x="-52" y="625" type="line"/>
      <point x="-20" y="577" type="line"/>
      <point x="130" y="577" type="line"/>
      <point x="130" y="334" type="line"/>
      <point x="103" y="334"/>
      <point x="64" y="333"/>
      <point x="64" y="309" type="curve" smooth="yes"/>
      <point x="64" y="270"/>
      <point x="126" y="198"/>
      <point x="163" y="198" type="curve" smooth="yes"/>
      <point x="183" y="198"/>
      <point x="186" y="218"/>
      <point x="186" y="246" type="curve" smooth="yes"/>
      <point x="186" y="577" type="line"/>
      <point x="380" y="577" type="line"/>
      <point x="380" y="-5" type="line"/>
      <point x="436" y="-50" type="line"/>
    </contour>
  </outline>
</glyph>
<glyph name="dvCHA" format="1">
  <advance width="695"/>
  <unicode hex="091B"/>
  <outline>
    <contour>
      <point x="537" y="625" type="move" name="abvm"/>
    </contour>
    <contour>
      <point x="417" y="-104" type="move" name="blwm.u"/>
    </contour>
    <contour>
      <point x="364" y="-13" type="move" name="blwm.virama"/>
    </contour>
    <contour>
      <point x="300" y="287" type="line"/>
      <point x="285" y="290"/>
      <point x="267" y="291"/>
      <point x="248" y="291" type="curve" smooth="yes"/>
      <point x="224" y="291"/>
      <point x="199" y="288"/>
      <point x="175" y="282" type="curve"/>
      <point x="148" y="303"/>
      <point x="116" y="333"/>
      <point x="116" y="368" type="curve" smooth="yes"/>
      <point x="116" y="432"/>
      <point x="170" y="451"/>
      <point x="237" y="451" type="curve" smooth="yes"/>
      <point x="260" y="451"/>
      <point x="285" y="449"/>
      <point x="310" y="445" type="curve"/>
      <point x="292" y="496" type="line"/>
      <point x="268" y="501"/>
      <point x="243" y="504"/>
      <point x="218" y="504" type="curve" smooth="yes"/>
      <point x="136" y="504"/>
      <point x="61" y="472"/>
      <point x="61" y="392" type="curve" smooth="yes"/>
      <point x="61" y="338"/>
      <point x="104" y="296"/>
      <point x="140" y="270" type="curve"/>
      <point x="110" y="255"/>
      <point x="89" y="230"/>
      <point x="89" y="192" type="curve" smooth="yes"/>
      <point x="89" y="85"/>
      <point x="193" y="6"/>
      <point x="318" y="6" type="curve" smooth="yes"/>
      <point x="394" y="6"/>
      <point x="473" y="42"/>
      <point x="533" y="99" type="curve"/>
      <point x="573" y="67"/>
      <point x="622" y="32"/>
      <point x="657" y="8" type="curve"/>
      <point x="686" y="42" type="line"/>
      <point x="648" y="65"/>
      <point x="603" y="92"/>
      <point x="558" y="125" type="curve"/>
      <point x="603" y="177"/>
      <point x="632" y="242"/>
      <point x="632" y="312" type="curve" smooth="yes"/>
      <point x="632" y="377"/>
      <point x="603" y="457"/>
      <point x="537" y="480" type="curve"/>
      <point x="537" y="577" type="line"/>
      <point x="747" y="577" type="line"/>
      <point x="715" y="625" type="line"/>
      <point x="-52" y="625" type="line"/>
      <point x="-20" y="577" type="line"/>
      <point x="481" y="577" type="line"/>
      <point x="481" y="485" type="line"/>
      <point x="409" y="476"/>
      <point x="372" y="408"/>
      <point x="372" y="339" type="curve" smooth="yes"/>
      <point x="372" y="250"/>
      <point x="424" y="190"/>
      <point x="492" y="133" type="curve"/>
      <point x="437" y="82"/>
      <point x="365" y="50"/>
      <point x="289" y="50" type="curve" smooth="yes"/>
      <point x="195" y="50"/>
      <point x="142" y="100"/>
      <point x="142" y="158" type="curve" smooth="yes"/>
      <point x="142" y="227"/>
      <point x="201" y="241"/>
      <point x="253" y="241" type="curve" smooth="yes"/>
      <point x="280" y="241"/>
      <point x="306" y="237"/>
      <point x="319" y="235" type="curve"/>
    </contour>
    <contour>
      <point x="418" y="314" type="curve" smooth="yes"/>
      <point x="418" y="378"/>
      <point x="454" y="446"/>
      <point x="519" y="446" type="curve" smooth="yes"/>
      <point x="572" y="446"/>
      <point x="589" y="392"/>
      <point x="589" y="339" type="curve" smooth="yes"/>
      <point x="589" y="272"/>
      <point x="561" y="208"/>
      <point x="516" y="157" type="curve"/>
      <point x="467" y="196"/>
      <point x="418" y="244"/>
    </contour>
  </outline>
</glyph>
<glyph name="dvTTA" format="1">
  <advance width="513"/>
  <unicode hex="091F"/>
  <outline>
    <contour>
      <point x="362" y="-4" type="move" name="blwm.virama"/>
    </contour>
    <contour>
      <point x="362" y="-97" type="move" name="blwm.u"/>
    </contour>
    <contour>
      <point x="417" y="625" type="move" name="abvm"/>
    </contour>
    <contour>
      <point x="533" y="625" type="line"/>
      <point x="-52" y="625" type="line"/>
      <point x="-20" y="577" type="line"/>
      <point x="361" y="577" type="line"/>
      <point x="361" y="440" type="line"/>
      <point x="246" y="440" type="line" smooth="yes"/>
      <point x="113" y="440"/>
      <point x="58" y="350"/>
      <point x="58" y="260" type="curve" smooth="yes"/>
      <point x="58" y="130"/>
      <point x="193" y="14"/>
      <point x="320" y="14" type="curve" smooth="yes"/>
      <point x="391" y="14"/>
      <point x="453" y="52"/>
      <point x="478" y="84" type="curve"/>
      <point x="445" y="126" type="line"/>
      <point x="399" y="81"/>
      <point x="354" y="64"/>
      <point x="295" y="64" type="curve" smooth="yes"/>
      <point x="197" y="64"/>
      <point x="108" y="137"/>
      <point x="108" y="230" type="curve" smooth="yes"/>
      <point x="108" y="357"/>
      <point x="206" y="390"/>
      <point x="270" y="390" type="curve" smooth="yes"/>
      <point x="417" y="390" type="line"/>
      <point x="417" y="577" type="line"/>
      <point x="565" y="577" type="line"/>
    </contour>
  </outline>
</glyph>
<glyph name="dvTTHA" format="1">
  <advance width="574"/>
  <unicode hex="0920"/>
  <outline>
    <contour>
      <point x="412" y="625" type="move" name="abvm"/>
    </contour>
    <contour>
      <point x="365" y="-98" type="move" name="blwm.u"/>
    </contour>
    <contour>
      <point x="355" y="-9" type="move" name="blwm.virama"/>
    </contour>
    <contour>
      <point x="594" y="625" type="line"/>
      <point x="-52" y="625" type="line"/>
      <point x="-20" y="577" type="line"/>
      <point x="356" y="577" type="line"/>
      <point x="356" y="440" type="line"/>
      <point x="242" y="440" type="line" smooth="yes"/>
      <point x="118" y="440"/>
      <point x="58" y="360"/>
      <point x="58" y="270" type="curve" smooth="yes"/>
      <point x="58" y="129"/>
      <point x="187" y="17"/>
      <point x="322" y="17" type="curve" smooth="yes"/>
      <point x="438" y="17"/>
      <point x="519" y="102"/>
      <point x="519" y="212" type="curve" smooth="yes"/>
      <point x="519" y="280"/>
      <point x="490" y="348"/>
      <point x="412" y="398" type="curve"/>
      <point x="412" y="577" type="line"/>
      <point x="626" y="577" type="line"/>
    </contour>
    <contour>
      <point x="473" y="229" type="curve" smooth="yes"/>
      <point x="473" y="123"/>
      <point x="393" y="64"/>
      <point x="295" y="64" type="curve" smooth="yes"/>
      <point x="191" y="64"/>
      <point x="108" y="140"/>
      <point x="108" y="235" type="curve" smooth="yes"/>
      <point x="108" y="362"/>
      <point x="193" y="390"/>
      <point x="284" y="390" type="curve" smooth="yes"/>
      <point x="368" y="390" type="line"/>
      <point x="420" y="360"/>
      <point x="473" y="303"/>
    </contour>
  </outline>
</glyph>
<glyph name="dvDDA" format="1">
  <advance width="526"/>
  <unicode hex="0921"/>
  <outline>
    <contour>
      <point x="52" y="125" type="line"/>
      <point x="113" y="35"/>
      <point x="203" y="-27"/>
      <point x="291" y="-27" type="curve" smooth="yes"/>
      <point x="412" y="-27"/>
      <point x="479" y="52"/>
      <point x="479" y="126" type="curve" smooth="yes"/>
      <point x="479" y="182"/>
      <point x="427" y="265"/>
      <point x="356" y="265" type="curve" smooth="yes"/>
      <point x="314" y="265"/>
      <point x="245" y="223"/>
      <point x="202" y="223" type="curve" smooth="yes"/>
      <point x="159" y="223"/>
      <point x="126" y="264"/>
      <point x="126" y="312" type="curve" smooth="yes"/>
      <point x="126" y="374"/>
      <point x="163" y="403"/>
      <point x="225" y="403" type="curve" smooth="yes"/>
      <point x="429" y="403" type="line"/>
      <point x="429" y="577" type="line"/>
      <point x="577" y="577" type="line"/>
      <point x="546" y="625" type="line"/>
      <point x="-53" y="625" type="line"/>
      <point x="-20" y="577" type="line"/>
      <point x="373" y="577" type="line"/>
      <point x="373" y="455" type="line"/>
      <point x="210" y="455" type="line" smooth="yes"/>
      <point x="131" y="455"/>
      <point x="85" y="403"/>
      <point x="85" y="339" type="curve" smooth="yes"/>
      <point x="85" y="247"/>
      <point x="162" y="176"/>
      <point x="220" y="176" type="curve" smooth="yes"/>
      <point x="274" y="176"/>
      <point x="333" y="217"/>
      <point x="368" y="217" type="curve" smooth="yes"/>
      <point x="418" y="217"/>
      <point x="438" y="180"/>
      <point x="438" y="147" type="curve" smooth="yes"/>
      <point x="438" y="80"/>
      <point x="371" y="18"/>
      <point x="270" y="18" type="curve" smooth="yes"/>
      <point x="200" y="18"/>
      <point x="128" y="71"/>
      <point x="77" y="147" type="curve"/>
    </contour>
    <contour>
      <point x="350" y="-41" type="move" name="blwm.virama"/>
    </contour>
    <contour>
      <point x="364" y="-129" type="move" name="blwm.u"/>
    </contour>
    <contour>
      <point x="429" y="625" type="move" name="abvm"/>
    </contour>
  </outline>
</glyph>
<glyph name="dvDDHA" format="1">
  <advance width="524"/>
  <unicode hex="0922"/>
  <outline>
    <contour>
      <point x="544" y="625" type="line"/>
      <point x="-52" y="625" type="line"/>
      <point x="-20" y="577" type="line"/>
      <point x="353" y="577" type="line"/>
      <point x="353" y="443" type="line"/>
      <point x="239" y="443" type="line" smooth="yes"/>
      <point x="115" y="443"/>
      <point x="58" y="363"/>
      <point x="58" y="273" type="curve" smooth="yes"/>
      <point x="58" y="131"/>
      <point x="181" y="20"/>
      <point x="317" y="20" type="curve" smooth="yes"/>
      <point x="395" y="20"/>
      <point x="488" y="73"/>
      <point x="488" y="149" type="curve" smooth="yes"/>
      <point x="488" y="231"/>
      <point x="423" y="282"/>
      <point x="361" y="282" type="curve" smooth="yes"/>
      <point x="291" y="282"/>
      <point x="250" y="228"/>
      <point x="250" y="167" type="curve"/>
      <point x="250" y="117"/>
      <point x="278" y="77"/>
      <point x="291" y="64" type="curve"/>
      <point x="189" y="65"/>
      <point x="105" y="144"/>
      <point x="105" y="238" type="curve" smooth="yes"/>
      <point x="105" y="365"/>
      <point x="190" y="393"/>
      <point x="281" y="393" type="curve" smooth="yes"/>
      <point x="409" y="393" type="line"/>
      <point x="409" y="577" type="line"/>
      <point x="576" y="577" type="line"/>
    </contour>
    <contour>
      <point x="295" y="147" type="curve" smooth="yes"/>
      <point x="295" y="198"/>
      <point x="326" y="240"/>
      <point x="379" y="240" type="curve" smooth="yes"/>
      <point x="420" y="240"/>
      <point x="444" y="214"/>
      <point x="444" y="176" type="curve" smooth="yes"/>
      <point x="444" y="110"/>
      <point x="385" y="75"/>
      <point x="326" y="66" type="curve"/>
      <point x="307" y="87"/>
      <point x="295" y="117"/>
    </contour>
    <contour>
      <point x="377" y="0" type="move" name="blwm.virama"/>
    </contour>
    <contour>
      <point x="384" y="-90" type="move" name="blwm.u"/>
    </contour>
    <contour>
      <point x="409" y="625" type="move" name="abvm"/>
    </contour>
  </outline>
</glyph>
<glyph name="dvNNA" format="1">
  <advance width="718"/>
  <unicode hex="0923"/>
  <outline>
    <contour>
      <point x="738" y="625" type="line"/>
      <point x="-52" y="625" type="line"/>
      <point x="-20" y="577" type="line"/>
      <point x="73" y="577" type="line"/>
      <point x="73" y="373" type="line" smooth="yes"/>
      <point x="73" y="326"/>
      <point x="89" y="266"/>
      <point x="140" y="221" type="curve" smooth="yes"/>
      <point x="193" y="175"/>
      <point x="232" y="168"/>
      <point x="262" y="168" type="curve" smooth="yes"/>
      <point x="335" y="168"/>
      <point x="387" y="224"/>
      <point x="387" y="300" type="curve" smooth="yes"/>
      <point x="387" y="577" type="line"/>
      <point x="562" y="577" type="line"/>
      <point x="562" y="-9" type="line"/>
      <point x="618" y="-50" type="line"/>
      <point x="618" y="577" type="line"/>
      <point x="771" y="577" type="line"/>
    </contour>
    <contour>
      <point x="238" y="213" type="curve"/>
      <point x="165" y="213"/>
      <point x="127" y="270"/>
      <point x="127" y="356" type="curve" smooth="yes"/>
      <point x="127" y="577" type="line"/>
      <point x="333" y="577" type="line"/>
      <point x="333" y="330" type="line" smooth="yes"/>
      <point x="333" y="248"/>
      <point x="303" y="213"/>
    </contour>
  </outline>
</glyph>
<glyph name="dvTA" format="1">
  <advance width="546"/>
  <unicode hex="0924"/>
  <outline>
    <contour>
      <point x="566" y="625" type="line"/>
      <point x="-52" y="625" type="line"/>
      <point x="-20" y="577" type="line"/>
      <point x="390" y="577" type="line"/>
      <point x="390" y="390" type="line"/>
      <point x="224" y="390" type="line" smooth="yes"/>
      <point x="119" y="390"/>
      <point x="60" y="334"/>
      <point x="60" y="248" type="curve" smooth="yes"/>
      <point x="60" y="154"/>
      <point x="113" y="50"/>
      <point x="189" y="-50" type="curve"/>
      <point x="216" y="-30" type="line"/>
      <point x="163" y="41"/>
      <point x="107" y="134"/>
      <point x="107" y="218" type="curve" smooth="yes"/>
      <point x="107" y="295"/>
      <point x="152" y="340"/>
      <point x="236" y="340" type="curve" smooth="yes"/>
      <point x="390" y="340" type="line"/>
      <point x="390" y="-9" type="line"/>
      <point x="446" y="-50" type="line"/>
      <point x="446" y="577" type="line"/>
      <point x="598" y="577" type="line"/>
    </contour>
  </outline>
</glyph>
<glyph name="dvTHA" format="1">
  <advance width="629"/>
  <unicode hex="0925"/>
  <outline>
    <contour>
      <point x="352" y="492" type="curve"/>
      <point x="352" y="558"/>
      <point x="287" y="633"/>
      <point x="206" y="633" type="curve" smooth="yes"/>
      <point x="142" y="633"/>
      <point x="97" y="584"/>
      <point x="97" y="537" type="curve" smooth="yes"/>
      <point x="97" y="502"/>
      <point x="111" y="469"/>
      <point x="155" y="432" type="curve"/>
      <point x="177" y="451" type="line"/>
      <point x="156" y="468"/>
      <point x="141" y="494"/>
      <point x="141" y="514" type="curve" smooth="yes"/>
      <point x="141" y="558"/>
      <point x="179" y="591"/>
      <point x="231" y="591" type="curve" smooth="yes"/>
      <point x="277" y="591"/>
      <point x="309" y="553"/>
      <point x="309" y="515" type="curve" smooth="yes"/>
      <point x="309" y="440"/>
      <point x="155" y="378"/>
      <point x="103" y="345" type="curve" smooth="yes"/>
      <point x="86" y="334"/>
      <point x="80" y="323"/>
      <point x="80" y="311" type="curve" smooth="yes"/>
      <point x="80" y="228"/>
      <point x="183" y="127"/>
      <point x="291" y="127" type="curve" smooth="yes"/>
      <point x="343" y="127"/>
      <point x="419" y="163"/>
      <point x="477" y="231" type="curve"/>
      <point x="473" y="-9" type="line"/>
      <point x="529" y="-50" type="line"/>
      <point x="529" y="577" type="line"/>
      <point x="681" y="577" type="line"/>
      <point x="649" y="625" type="line"/>
      <point x="358" y="625" type="line"/>
      <point x="390" y="577" type="line"/>
      <point x="473" y="577" type="line"/>
      <point x="473" y="306" type="line"/>
      <point x="447" y="260"/>
      <point x="349" y="173"/>
      <point x="267" y="173" type="curve" smooth="yes"/>
      <point x="210" y="173"/>
      <point x="134" y="217"/>
      <point x="134" y="278" type="curve" smooth="yes"/>
      <point x="134" y="302"/>
      <point x="155" y="315"/>
      <point x="171" y="325" type="curve" smooth="yes"/>
      <point x="230" y="363"/>
      <point x="352" y="419"/>
    </contour>
  </outline>
</glyph>
<glyph name="dvDA" format="1">
  <advance width="544"/>
  <unicode hex="0926"/>
  <outline>
    <contour>
      <point x="392" y="-6" type="move" name="blwm.virama"/>
    </contour>
    <contour>
      <point x="392" y="-104" type="move" name="blwm.u"/>
    </contour>
    <contour>
      <point x="413" y="625" type="move" name="abvm"/>
    </contour>
    <contour>
      <point x="413" y="390" type="line"/>
      <point x="413" y="577" type="line"/>
      <point x="596" y="577" type="line"/>
      <point x="564" y="625" type="line"/>
      <point x="-52" y="625" type="line"/>
      <point x="-20" y="577" type="line"/>
      <point x="357" y="577" type="line"/>
      <point x="357" y="440" type="line"/>
      <point x="245" y="440" type="line" smooth="yes"/>
      <point x="125" y="440"/>
      <point x="59" y="362"/>
      <point x="59" y="270" type="curve" smooth="yes"/>
      <point x="59" y="204"/>
      <point x="96" y="137"/>
      <point x="146" y="93" type="curve" smooth="yes"/>
      <point x="188" y="55"/>
      <point x="238" y="30"/>
      <point x="292" y="30" type="curve" smooth="yes"/>
      <point x="330" y="30"/>
      <point x="367" y="43"/>
      <point x="398" y="61" type="curve"/>
      <point x="494" y="-70" type="line"/>
      <point x="530" y="-43" type="line"/>
      <point x="425" y="80" type="line"/>
      <point x="452" y="102"/>
      <point x="470" y="129"/>
      <point x="470" y="151" type="curve" smooth="yes"/>
      <point x="470" y="184"/>
      <point x="435" y="238"/>
      <point x="399" y="238" type="curve" smooth="yes"/>
      <point x="366" y="238"/>
      <point x="332" y="213"/>
      <point x="332" y="182" type="curve" smooth="yes"/>
      <point x="332" y="160"/>
      <point x="347" y="132"/>
      <point x="364" y="107" type="curve"/>
      <point x="364" y="107"/>
      <point x="337" y="76"/>
      <point x="270" y="76" type="curve" smooth="yes"/>
      <point x="192" y="76"/>
      <point x="109" y="153"/>
      <point x="109" y="239" type="curve" smooth="yes"/>
      <point x="109" y="350"/>
      <point x="176" y="390"/>
      <point x="283" y="390" type="curve"/>
    </contour>
  </outline>
</glyph>
<glyph name="dvDHA" format="1">
  <advance width="602"/>
  <unicode hex="0927"/>
  <outline>
    <contour>
      <point x="390" y="577" type="line"/>
      <point x="446" y="577" type="line"/>
      <point x="446" y="235" type="line"/>
      <point x="417" y="193"/>
      <point x="353" y="128"/>
      <point x="264" y="128" type="curve" smooth="yes"/>
      <point x="182" y="128"/>
      <point x="129" y="173"/>
      <point x="129" y="242" type="curve" smooth="yes"/>
      <point x="129" y="307"/>
      <point x="191" y="327"/>
      <point x="250" y="327" type="curve" smooth="yes"/>
      <point x="274" y="327"/>
      <point x="299" y="323"/>
      <point x="315" y="321" type="curve"/>
      <point x="297" y="373" type="line"/>
      <point x="274" y="377"/>
      <point x="250" y="379"/>
      <point x="226" y="379" type="curve" smooth="yes"/>
      <point x="214" y="379"/>
      <point x="202" y="378"/>
      <point x="190" y="376" type="curve"/>
      <point x="160" y="398"/>
      <point x="127" y="429"/>
      <point x="126" y="473" type="curve"/>
      <point x="126" y="522"/>
      <point x="165" y="564"/>
      <point x="218" y="577" type="curve"/>
      <point x="271" y="577" type="line"/>
      <point x="239" y="625" type="line"/>
      <point x="-52" y="625" type="line"/>
      <point x="-20" y="577" type="line"/>
      <point x="3" y="577" type="line"/>
      <point x="127" y="578" type="line"/>
      <point x="105" y="565"/>
      <point x="73" y="535"/>
      <point x="73" y="485" type="curve" smooth="yes"/>
      <point x="73" y="434"/>
      <point x="117" y="390"/>
      <point x="153" y="366" type="curve"/>
      <point x="111" y="351"/>
      <point x="77" y="319"/>
      <point x="77" y="268" type="curve" smooth="yes"/>
      <point x="77" y="167"/>
      <point x="184" y="78"/>
      <point x="292" y="78" type="curve" smooth="yes"/>
      <point x="343" y="78"/>
      <point x="404" y="113"/>
      <point x="448" y="159" type="curve"/>
      <point x="446" y="-9" type="line"/>
      <point x="502" y="-50" type="line"/>
      <point x="502" y="577" type="line"/>
      <point x="654" y="577" type="line"/>
      <point x="622" y="625" type="line"/>
      <point x="358" y="625" type="line"/>
    </contour>
  </outline>
</glyph>
<glyph name="dvNA" format="1">
  <advance width="536"/>
  <unicode hex="0928"/>
  <outline>
    <contour>
      <point x="436" y="-50" type="line"/>
      <point x="436" y="577" type="line"/>
      <point x="589" y="577" type="line"/>
      <point x="556" y="625" type="line"/>
      <point x="-52" y="625" type="line"/>
      <point x="-20" y="577" type="line"/>
      <point x="380" y="577" type="line"/>
      <point x="380" y="355" type="line"/>
      <point x="98" y="355" type="line" smooth="yes"/>
      <point x="70" y="355"/>
      <point x="51" y="345"/>
      <point x="51" y="320" type="curve" smooth="yes"/>
      <point x="51" y="268"/>
      <point x="117" y="183"/>
      <point x="156" y="183" type="curve" smooth="yes"/>
      <point x="168" y="183"/>
      <point x="176" y="191"/>
      <point x="176" y="205" type="curve" smooth="yes"/>
      <point x="176" y="301" type="line"/>
      <point x="380" y="301" type="line"/>
      <point x="380" y="-9" type="line"/>
    </contour>
  </outline>
</glyph>
